<?xml version="1.0" standalone="no"?>
<!DOCTYPE svg PUBLIC "-//W3C//DTD SVG 1.1//EN" "http://www.w3.org/Graphics/SVG/1.1/DTD/svg11.dtd">
<svg width="100%" height="100%" viewBox="0 0 76 76" version="1.1" xmlns="http://www.w3.org/2000/svg" xmlns:xlink="http://www.w3.org/1999/xlink" xml:space="preserve" style="fill-rule:evenodd;clip-rule:evenodd;stroke-linejoin:round;stroke-miterlimit:1.41421;">
	<g id="CIUM" transform="matrix(1,0,0,1,-23,-26)">
		<g transform="matrix(0.573791,0,0,0.573791,24.3912,26.912)">
			<path d="M72.38,14.022C77.836,15.313 82,16.849 82,16.849L82,28.305C82,30.881 79.912,32.969 77.336,32.969L42.664,32.969C40.088,32.969 38,30.881 38,28.305L38,16.849C38,16.849 42.051,15.119 47.697,13.789C49.446,8.676 54.294,5 60,5C65.792,5 70.7,8.788 72.38,14.022ZM60,12C63.314,12 66,14.686 66,18C66,21.314 63.314,24 60,24C56.686,24 54,21.314 54,18C54,14.686 56.686,12 60,12Z" style="fill:white;" />
		</g>
		<g transform="matrix(0.503143,0,0,0.503143,29.473,27.4122)">
			<g transform="matrix(0.833155,-1.02491e-17,-1.02491e-17,0.875,2.33885,18.776)">
				<ellipse cx="33.442" cy="77.086" rx="8.402" ry="7.989" style="fill:white;" />
			</g>
			<g transform="matrix(0.833155,-1.02491e-17,-1.02491e-17,0.875,15.6447,-12.0155)">
				<ellipse cx="33.442" cy="77.086" rx="8.402" ry="7.989" style="fill:white;" />
			</g>
			<g transform="matrix(0.833155,-1.02491e-17,-1.02491e-17,0.875,39.1238,1.70048)">
				<ellipse cx="33.442" cy="77.086" rx="8.402" ry="7.989" style="fill:white;" />
			</g>
			<g transform="matrix(0.833155,-1.02491e-17,-1.02491e-17,0.875,58.1933,-20.8927)">
				<ellipse cx="33.442" cy="77.086" rx="8.402" ry="7.989" style="fill:white;" />
			</g>
			<g transform="matrix(1.98751,0,0,1.98751,-6.56289,-2.80681)">
				<path d="M18.549,46.943C18.417,46.934 18.384,46.936 18.254,46.912C18.06,46.876 17.872,46.812 17.696,46.72C17.521,46.629 17.36,46.512 17.22,46.373C16.831,45.988 16.616,45.449 16.633,44.903C16.638,44.755 16.659,44.607 16.697,44.464C16.73,44.337 16.746,44.307 16.793,44.184L23.621,28.289C23.675,28.175 23.685,28.144 23.752,28.036C23.826,27.914 23.914,27.801 24.013,27.698C24.481,27.212 25.183,26.995 25.843,27.133C25.983,27.162 26.12,27.207 26.25,27.265C26.366,27.317 26.392,27.336 26.501,27.401L36.52,33.773L45.121,23.815L45.222,23.707C45.318,23.618 45.34,23.592 45.446,23.514C45.606,23.397 45.782,23.304 45.969,23.24C46.155,23.175 46.351,23.138 46.548,23.131C46.746,23.124 46.944,23.147 47.135,23.198C47.711,23.354 48.196,23.773 48.434,24.321C48.533,24.547 48.588,24.792 48.597,25.038C48.609,25.384 48.529,25.731 48.367,26.037C48.297,26.17 48.21,26.286 48.117,26.403L38.398,37.654C38.365,37.69 38.332,37.728 38.297,37.763C38.192,37.867 38.075,37.96 37.949,38.039C37.484,38.329 36.908,38.414 36.379,38.27C36.236,38.231 36.097,38.175 35.966,38.105C35.923,38.082 35.881,38.055 35.838,38.03L26.34,31.989L20.43,45.746L20.366,45.88C20.292,46.01 20.216,46.133 20.119,46.248C19.862,46.549 19.516,46.769 19.134,46.874C18.99,46.914 18.846,46.931 18.697,46.943C18.647,46.943 18.598,46.943 18.549,46.943Z" style="fill:white;fill-rule:nonzero;" />
			</g>
		</g>
		<g transform="matrix(0.573791,0,0,0.573791,24.3912,26.912)">
			<path d="M62.318,117L20.852,117C16.515,117 13,113.485 13,109.148L13,24.852C13,20.515 16.515,17 20.852,17L35.047,17L35.047,25L24.017,25C22.351,25 21,26.351 21,28.017L21,105.983C21,107.649 22.351,109 24.017,109L56.846,109C58.261,111.944 60.112,114.639 62.318,117ZM107,71.274C104.624,69.155 101.931,67.385 99,66.045L99,28.017C99,26.351 97.649,25 95.983,25L85.047,25L85.047,17L99.148,17C103.485,17 107,20.515 107,24.852L107,71.274Z" style="fill:white;" />
		</g>
		<g transform="matrix(0.573791,0,0,0.573791,24.3912,26.912)">
			<path d="M85.603,66.273C101.62,66.273 114.603,79.257 114.603,95.273C114.603,111.29 101.62,124.273 85.603,124.273C69.587,124.273 56.603,111.29 56.603,95.273C56.603,79.257 69.587,66.273 85.603,66.273ZM85.6,71.3C98.855,71.3 109.6,82.045 109.6,95.3C109.6,108.555 98.855,119.3 85.6,119.3C72.345,119.3 61.6,108.555 61.6,95.3C61.6,82.045 72.345,71.3 85.6,71.3Z" style="fill:white;" />
		</g>
		<g transform="matrix(0.780077,0,0,0.780077,8.85831,7.46829)">
			<path d="M87.001,102.097L87.001,109.169L79.001,109.169L79.001,102.097L72.877,105.633L68.877,98.705L75.001,95.169L68.877,91.633L72.877,84.705L79.001,88.241L79.001,81.169L87.001,81.169L87.001,88.241L93.126,84.705L97.126,91.633L91.001,95.169L97.126,98.705L93.126,105.633L87.001,102.097Z" style="fill:white;" />
		</g>
	</g>
</svg>
