<?xml version="1.0" standalone="no"?><!DOCTYPE svg PUBLIC "-//W3C//DTD SVG 1.1//EN" "http://www.w3.org/Graphics/SVG/1.1/DTD/svg11.dtd"><svg xmlns="http://www.w3.org/2000/svg" width="50" height="50" viewBox="0 0 50 50">
    <path d="M 22.71875 2 A 1.0043849 1.0043849 0 0 0 23 4 L 24 4 L 24 6.0625 C 22.137371 6.1603493 20.340058 6.4952952 18.65625 7.09375 L 18.28125 6.09375 L 18.71875 5.90625 A 1.0001 1.0001 0 0 0 18.15625 4 A 1.0001 1.0001 0 0 0 17.90625 4.09375 L 15.1875 5.28125 A 1.0074188 1.0074188 0 1 0 16 7.125 L 16.4375 6.9375 L 16.8125 7.875 C 15.166796 8.6654291 13.654848 9.6974045 12.3125 10.90625 L 10.875 9.4375 L 11.59375 8.71875 A 1.0001 1.0001 0 0 0 10.78125 7 A 1.0001 1.0001 0 0 0 10.1875 7.28125 L 7.28125 10.1875 A 1.0054782 1.0054782 0 1 0 8.71875 11.59375 L 9.4375 10.875 L 10.90625 12.3125 C 9.6974045 13.654848 8.6654291 15.166796 7.875 16.8125 L 6.9375 16.4375 L 7.125 16 A 1.0001 1.0001 0 0 0 6.125 14.5625 A 1.0001 1.0001 0 0 0 6 14.59375 A 1.0001 1.0001 0 0 0 5.28125 15.1875 L 4.09375 17.90625 A 1.0001 1.0001 0 1 0 5.90625 18.71875 L 6.09375 18.28125 L 7.09375 18.65625 C 6.4952952 20.340058 6.1603493 22.137371 6.0625 24 L 4 24 L 4 23 A 1.0001 1.0001 0 0 0 2.90625 21.96875 A 1.0001 1.0001 0 0 0 2.78125 22 A 1.0001 1.0001 0 0 0 2 23 L 2 27 A 1.0001 1.0001 0 1 0 4 27 L 4 26 L 6.0625 26 C 6.1603493 27.862629 6.4952952 29.659942 7.09375 31.34375 L 6.09375 31.71875 L 5.90625 31.28125 A 1.0001 1.0001 0 0 0 4.875 30.6875 A 1.0001 1.0001 0 0 0 4.09375 32.09375 L 5.28125 34.8125 A 1.0074188 1.0074188 0 1 0 7.125 34 L 6.9375 33.5625 L 7.875 33.1875 C 8.6623487 34.82679 9.6723275 36.349043 10.875 37.6875 L 9.4375 39.125 L 8.71875 38.40625 A 1.0001 1.0001 0 0 0 7.875 38.09375 A 1.0001 1.0001 0 0 0 7.28125 39.8125 L 10.1875 42.71875 A 1.0054782 1.0054782 0 1 0 11.59375 41.28125 L 10.875 40.5625 L 12.3125 39.125 C 13.650957 40.327673 15.17321 41.337651 16.8125 42.125 L 16.4375 43.0625 L 16 42.875 A 1.0001 1.0001 0 0 0 15.53125 42.78125 A 1.0001 1.0001 0 0 0 15.1875 44.71875 L 17.90625 45.90625 A 1.0001 1.0001 0 1 0 18.71875 44.09375 L 18.28125 43.90625 L 18.65625 42.90625 C 20.340058 43.504705 22.137371 43.839651 24 43.9375 L 24 46 L 23 46 A 1.0001 1.0001 0 0 0 22.90625 46 A 1.001098 1.001098 0 0 0 22.8125 46 A 1.0043849 1.0043849 0 0 0 23 48 L 27 48 A 1.0001 1.0001 0 1 0 27 46 L 26 46 L 26 43.9375 C 27.862629 43.839651 29.659942 43.504705 31.34375 42.90625 L 31.71875 43.90625 L 31.28125 44.09375 A 1.0001 1.0001 0 1 0 32.09375 45.90625 L 34.8125 44.71875 A 1.0001 1.0001 0 0 0 34.34375 42.78125 A 1.0001 1.0001 0 0 0 34 42.875 L 33.5625 43.0625 L 33.1875 42.125 C 34.833204 41.334571 36.345152 40.302596 37.6875 39.09375 L 39.125 40.5625 L 38.40625 41.28125 A 1.0054782 1.0054782 0 1 0 39.8125 42.71875 L 42.71875 39.8125 A 1.0001 1.0001 0 0 0 41.875 38.09375 A 1.0001 1.0001 0 0 0 41.28125 38.40625 L 40.5625 39.125 L 39.09375 37.6875 C 40.302596 36.345152 41.334571 34.833204 42.125 33.1875 L 43.0625 33.5625 L 42.875 34 A 1.0074188 1.0074188 0 1 0 44.71875 34.8125 L 45.90625 32.09375 A 1.0001 1.0001 0 0 0 44.90625 30.6875 A 1.0001 1.0001 0 0 0 44.8125 30.6875 A 1.0001 1.0001 0 0 0 44.09375 31.28125 L 43.90625 31.71875 L 42.90625 31.34375 C 43.504705 29.659942 43.839651 27.862629 43.9375 26 L 46 26 L 46 27 A 1.0001 1.0001 0 1 0 48 27 L 48 23 A 1.0001 1.0001 0 0 0 46.90625 21.96875 A 1.0001 1.0001 0 0 0 46.78125 22 A 1.0001 1.0001 0 0 0 46 23 L 46 24 L 43.9375 24 C 43.839651 22.137371 43.504705 20.340058 42.90625 18.65625 L 43.90625 18.28125 L 44.09375 18.71875 A 1.0001 1.0001 0 1 0 45.90625 17.90625 L 44.71875 15.1875 A 1.0001 1.0001 0 0 0 43.65625 14.59375 A 1.0001 1.0001 0 0 0 42.875 16 L 43.0625 16.4375 L 42.125 16.8125 C 41.337651 15.17321 40.327673 13.650957 39.125 12.3125 L 40.5625 10.875 L 41.28125 11.59375 A 1.0054782 1.0054782 0 1 0 42.71875 10.1875 L 39.8125 7.28125 A 1.0001 1.0001 0 0 0 39.09375 6.96875 A 1.0001 1.0001 0 0 0 38.90625 7 A 1.0001 1.0001 0 0 0 38.40625 8.71875 L 39.125 9.4375 L 37.6875 10.875 C 36.349043 9.6723275 34.82679 8.6623487 33.1875 7.875 L 33.5625 6.9375 L 34 7.125 A 1.0074188 1.0074188 0 1 0 34.8125 5.28125 L 32.09375 4.09375 A 1.0001 1.0001 0 0 0 31.53125 4 A 1.0001 1.0001 0 0 0 31.28125 5.90625 L 31.71875 6.09375 L 31.34375 7.09375 C 29.659942 6.4952952 27.862629 6.1603493 26 6.0625 L 26 4 L 27 4 A 1.0001 1.0001 0 1 0 27 2 L 23 2 A 1.0001 1.0001 0 0 0 22.90625 2 A 1.001098 1.001098 0 0 0 22.8125 2 A 1.0043849 1.0043849 0 0 0 22.71875 2 z M 24.96875 11.96875 C 26.07275 11.96875 26.96875 12.86475 26.96875 13.96875 C 26.96875 15.07275 26.07275 15.96875 24.96875 15.96875 C 23.86475 15.96875 22.96875 15.07275 22.96875 13.96875 C 22.96875 12.86475 23.86475 11.96875 24.96875 11.96875 z M 32.0625 15.875 C 33.1675 15.875 34.0625 16.771 34.0625 17.875 C 34.0625 18.979 33.1675 19.875 32.0625 19.875 C 30.9585 19.875 30.0625 18.979 30.0625 17.875 C 30.0625 16.771 30.9595 15.875 32.0625 15.875 z M 17.90625 15.90625 C 19.01025 15.90625 19.90625 16.80225 19.90625 17.90625 C 19.90625 19.01025 19.01025 19.90625 17.90625 19.90625 C 16.80225 19.90625 15.90625 19.01025 15.90625 17.90625 C 15.90625 16.80225 16.80225 15.90625 17.90625 15.90625 z M 13.96875 22.96875 C 15.07275 22.96875 15.96875 23.86475 15.96875 24.96875 C 15.96875 26.07275 15.07275 26.96875 13.96875 26.96875 C 12.86475 26.96875 11.96875 26.07275 11.96875 24.96875 C 11.96875 23.86475 12.86475 22.96875 13.96875 22.96875 z M 24.96875 22.96875 C 26.07275 22.96875 26.96875 23.86475 26.96875 24.96875 C 26.96875 26.07275 26.07275 26.96875 24.96875 26.96875 C 23.86475 26.96875 22.96875 26.07275 22.96875 24.96875 C 22.96875 23.86475 23.86475 22.96875 24.96875 22.96875 z M 36 23 C 37.104 23 38 23.896 38 25 C 38 26.104 37.104 27 36 27 C 34.896 27 34 26.104 34 25 C 34 23.896 34.896 23 36 23 z M 17.875 30.0625 C 18.979 30.0625 19.875 30.9585 19.875 32.0625 C 19.875 33.1685 18.979 34.0625 17.875 34.0625 C 16.771 34.0625 15.875 33.1675 15.875 32.0625 C 15.875 30.9585 16.771 30.0625 17.875 30.0625 z M 32.0625 30.0625 C 33.1675 30.0625 34.0625 30.9585 34.0625 32.0625 C 34.0625 33.1685 33.1685 34.0625 32.0625 34.0625 C 30.9585 34.0625 30.0625 33.1675 30.0625 32.0625 C 30.0625 30.9585 30.9585 30.0625 32.0625 30.0625 z M 24.96875 33.96875 C 26.07275 33.96875 26.96875 34.86475 26.96875 35.96875 C 26.96875 37.07275 26.07275 37.96875 24.96875 37.96875 C 23.86475 37.96875 22.96875 37.07275 22.96875 35.96875 C 22.96875 34.86475 23.86475 33.96875 24.96875 33.96875 z"></path>
</svg>
