<?xml version="1.0" standalone="no"?><!DOCTYPE svg PUBLIC "-//W3C//DTD SVG 1.1//EN" "http://www.w3.org/Graphics/SVG/1.1/DTD/svg11.dtd"><svg xmlns="http://www.w3.org/2000/svg" width="50" height="50" viewBox="0 0 50 50">
    <path d="M 44.96875 1.96875 C 44.347469 1.9594219 43.70325 2.0465 43.0625 2.25 L 7.375 15.15625 C 4.558 16.16625 2.29425 18.21125 1.03125 20.90625 C -0.22175 23.58225 -0.35275 26.58075 0.65625 29.34375 L 4.75 40.75 C 6.348 45.125 10.574 48.0625 15.25 48.0625 C 16.493 48.0625 17.7305 47.8455 18.9375 47.4375 L 31.84375 42.84375 C 33.26575 42.34875 34.44775 40.877 34.96875 39 C 35.54275 36.933 35.193 34.77375 34 32.96875 C 34.776 31.83575 35.28 29.88325 35.125 28.15625 C 34.982 26.56725 34.318 25.32425 33.25 24.53125 C 34.182 23.21525 34.5615 21.334 34.1875 19.5 C 33.9655 18.413 33.49075 17.4905 32.84375 16.8125 C 39.74875 14.3455 46.40775 11.926 46.84375 11.75 C 48.23575 11.266 49.32375 10.1885 49.84375 8.8125 C 50.37075 7.4155 50.24375 5.83975 49.46875 4.46875 C 48.526 2.9275 46.832594 1.9967344 44.96875 1.96875 z M 45 13.65625 L 44.125 15.21875 C 43.435 16.44275 40 22.656 40 25 C 40 27.757 42.243 30 45 30 C 47.757 30 50 27.757 50 25 C 50 22.656 46.565 16.44275 45.875 15.21875 L 45 13.65625 z"></path>
</svg>
