<svg id="svg" version="1.1" width="400" height="400" viewBox="0 0 400 400" xmlns="http://www.w3.org/2000/svg" xmlns:xlink="http://www.w3.org/1999/xlink" ><g id="svgg"><path id="path0" d="M107.600 55.821 C 105.070 56.339,101.927 56.965,100.615 57.214 C 99.303 57.463,97.753 58.006,97.170 58.421 C 96.588 58.836,95.080 59.493,93.819 59.881 C 92.559 60.269,91.358 60.904,91.151 61.292 C 90.943 61.680,90.014 62.381,89.087 62.851 C 88.159 63.320,86.639 64.400,85.709 65.252 C 84.779 66.103,83.773 66.800,83.473 66.800 C 83.174 66.800,82.720 67.258,82.464 67.819 C 82.209 68.379,81.460 69.144,80.799 69.519 C 80.138 69.893,79.492 70.527,79.364 70.926 C 79.235 71.326,78.328 72.555,77.348 73.658 C 76.369 74.761,75.461 76.195,75.331 76.844 C 75.201 77.493,74.699 78.336,74.216 78.716 C 73.694 79.127,72.985 80.563,72.473 82.251 C 71.998 83.815,71.346 85.313,71.025 85.579 C 68.602 87.590,68.408 92.761,68.412 155.400 C 68.416 218.426,68.627 223.810,71.147 225.367 C 71.383 225.513,71.943 226.864,72.391 228.370 C 72.839 229.875,73.504 231.353,73.868 231.654 C 74.232 231.954,74.937 233.121,75.436 234.247 C 76.431 236.491,76.765 236.901,81.997 242.286 C 83.967 244.314,86.303 246.342,87.189 246.794 C 88.075 247.246,88.800 247.788,88.800 247.999 C 88.800 248.415,91.844 250.000,92.644 250.000 C 92.916 250.000,93.647 250.427,94.269 250.950 C 94.891 251.472,96.808 252.285,98.529 252.756 C 100.250 253.228,102.331 253.957,103.154 254.376 C 106.233 255.948,109.365 256.000,200.000 256.000 C 290.564 256.000,293.769 255.946,296.834 254.383 C 297.987 253.794,303.783 252.000,304.530 252.000 C 304.610 252.000,305.199 251.550,305.838 251.000 C 306.477 250.451,307.219 250.001,307.486 250.000 C 308.404 250.000,311.000 248.600,311.710 247.724 C 312.101 247.242,312.796 246.728,313.254 246.583 C 314.237 246.271,321.600 239.139,321.600 238.498 C 321.600 238.256,322.115 237.640,322.744 237.129 C 323.374 236.618,324.354 235.165,324.922 233.900 C 325.491 232.635,326.124 231.600,326.329 231.600 C 326.753 231.600,327.299 230.272,328.012 227.508 C 328.280 226.467,328.766 225.394,329.092 225.124 C 331.470 223.150,331.593 219.748,331.595 156.000 C 331.598 92.168,331.474 88.600,329.163 85.662 C 328.745 85.130,328.047 83.504,327.613 82.048 C 327.150 80.499,326.501 79.200,326.047 78.919 C 325.621 78.655,325.150 77.882,325.000 77.202 C 324.851 76.522,323.845 74.955,322.764 73.720 C 321.684 72.486,320.800 71.238,320.800 70.948 C 320.800 70.658,320.263 70.143,319.607 69.804 C 318.950 69.464,318.136 68.650,317.796 67.993 C 317.457 67.337,316.930 66.800,316.624 66.800 C 316.319 66.800,315.424 66.174,314.637 65.409 C 313.849 64.644,312.491 63.655,311.619 63.210 C 310.746 62.765,309.620 61.972,309.116 61.447 C 308.612 60.923,307.210 60.178,306.000 59.791 C 304.790 59.404,303.350 58.782,302.800 58.409 C 301.683 57.651,299.209 56.967,296.200 56.585 C 295.100 56.445,292.760 55.987,291.000 55.568 C 287.901 54.830,285.041 54.807,200.000 54.843 L 112.200 54.880 107.600 55.821 M214.000 88.215 C 218.641 89.564,220.274 89.945,222.484 90.195 C 223.892 90.354,225.311 90.823,226.186 91.416 C 226.966 91.946,228.623 92.675,229.868 93.037 C 231.113 93.399,232.577 94.141,233.122 94.686 C 233.667 95.231,234.885 96.008,235.829 96.412 C 236.772 96.817,237.742 97.519,237.985 97.972 C 238.228 98.426,239.141 99.162,240.013 99.607 C 240.886 100.052,241.600 100.678,241.600 100.998 C 241.600 101.318,242.118 101.847,242.752 102.175 C 243.385 102.503,244.279 103.407,244.738 104.185 C 245.197 104.963,245.757 105.600,245.981 105.600 C 246.206 105.600,246.871 106.365,247.459 107.300 C 248.046 108.235,248.844 109.225,249.230 109.499 C 249.617 109.774,250.252 110.854,250.641 111.899 C 251.030 112.945,251.848 114.383,252.458 115.095 C 253.067 115.807,253.758 117.157,253.992 118.095 C 254.226 119.033,254.596 120.070,254.815 120.400 C 255.033 120.730,255.544 121.501,255.949 122.113 C 256.355 122.725,256.900 124.525,257.160 126.113 C 257.420 127.701,258.088 130.142,258.644 131.537 C 260.605 136.459,261.091 163.144,259.264 165.598 C 258.136 167.112,257.744 167.127,217.514 167.165 C 181.276 167.199,180.419 167.218,180.014 167.974 C 179.368 169.182,179.525 170.608,180.392 171.392 C 180.827 171.786,181.553 173.098,182.006 174.307 C 182.458 175.516,183.362 177.004,184.014 177.613 C 184.666 178.222,185.200 179.006,185.200 179.355 C 185.200 179.710,185.861 180.265,186.700 180.615 C 187.525 180.959,188.560 181.649,189.000 182.147 C 189.440 182.646,190.790 183.386,192.000 183.792 C 193.210 184.198,194.688 184.934,195.285 185.426 C 198.019 187.686,212.523 188.898,223.696 187.801 C 227.053 187.471,231.753 187.014,234.140 186.784 C 237.353 186.475,238.962 186.116,240.340 185.401 C 247.073 181.908,249.512 183.861,250.587 193.604 C 251.252 199.639,251.515 201.146,252.017 201.800 C 252.813 202.836,253.678 207.056,253.510 209.080 C 253.282 211.834,252.542 212.581,249.200 213.432 C 247.770 213.796,246.132 214.426,245.559 214.832 C 244.309 215.719,242.034 216.254,238.000 216.610 C 236.350 216.755,233.681 217.318,232.068 217.860 C 224.849 220.285,193.523 220.288,188.229 217.865 C 187.058 217.329,184.953 216.768,183.550 216.618 C 180.345 216.275,178.425 215.703,177.400 214.785 C 176.960 214.391,175.535 213.762,174.234 213.387 C 172.933 213.012,171.475 212.311,170.993 211.829 C 170.511 211.348,169.311 210.646,168.327 210.270 C 167.342 209.894,166.022 209.049,165.393 208.393 C 164.765 207.737,163.990 207.200,163.672 207.200 C 163.355 207.200,162.533 206.606,161.847 205.880 C 161.161 205.154,160.278 204.437,159.885 204.287 C 159.492 204.137,158.877 203.501,158.517 202.875 C 158.158 202.249,157.351 201.442,156.724 201.082 C 156.097 200.723,155.453 200.086,155.292 199.667 C 155.132 199.248,154.415 198.415,153.700 197.817 C 152.985 197.218,152.400 196.465,152.400 196.142 C 152.400 195.819,151.894 195.070,151.276 194.477 C 150.657 193.885,149.814 192.590,149.402 191.600 C 148.991 190.610,148.249 189.350,147.753 188.800 C 147.258 188.250,146.541 186.675,146.161 185.300 C 145.780 183.925,145.323 182.800,145.145 182.800 C 144.468 182.800,143.551 180.255,142.944 176.695 C 142.598 174.663,142.159 172.808,141.969 172.572 C 139.667 169.731,139.513 144.395,141.768 139.482 C 142.092 138.777,142.643 136.495,142.994 134.411 C 143.344 132.326,143.980 130.076,144.407 129.411 C 145.467 127.758,145.801 126.972,146.571 124.311 C 146.936 123.052,147.588 121.773,148.021 121.470 C 148.454 121.167,149.074 120.022,149.400 118.925 C 149.726 117.829,150.373 116.587,150.839 116.166 C 151.305 115.745,152.113 114.558,152.635 113.530 C 153.157 112.501,153.929 111.549,154.352 111.415 C 154.775 111.281,155.225 110.755,155.353 110.246 C 155.480 109.737,157.343 107.562,159.492 105.412 C 164.310 100.593,164.664 100.285,166.385 99.402 C 167.147 99.011,168.083 98.294,168.466 97.808 C 168.848 97.321,170.025 96.604,171.080 96.213 C 172.136 95.822,173.180 95.286,173.400 95.021 C 174.137 94.134,175.784 93.304,177.736 92.835 C 178.801 92.579,180.162 92.009,180.760 91.567 C 181.479 91.034,183.393 90.511,186.423 90.016 C 188.940 89.606,191.720 88.961,192.600 88.583 C 195.992 87.127,209.458 86.896,214.000 88.215 M195.126 116.759 C 194.315 116.928,193.010 117.555,192.225 118.154 C 191.440 118.753,190.283 119.422,189.654 119.641 C 189.025 119.860,188.313 120.472,188.072 121.001 C 187.832 121.529,187.087 122.245,186.417 122.591 C 185.748 122.937,185.200 123.500,185.200 123.841 C 185.200 124.182,184.688 124.974,184.061 125.600 C 183.345 126.317,182.664 127.677,182.224 129.270 C 181.840 130.661,180.987 132.650,180.328 133.688 C 178.703 136.253,178.976 137.792,181.121 138.147 C 181.934 138.281,191.093 138.393,201.473 138.396 L 220.346 138.400 221.152 137.267 C 222.212 135.778,221.444 128.989,220.018 127.237 C 219.554 126.666,218.814 125.441,218.374 124.514 C 217.935 123.586,217.249 122.596,216.851 122.314 C 216.453 122.031,215.906 121.383,215.635 120.874 C 215.365 120.364,214.391 119.603,213.472 119.182 C 212.552 118.760,211.292 118.007,210.671 117.508 C 209.461 116.535,198.697 116.016,195.126 116.759 M256.400 286.655 C 243.077 287.726,239.345 288.114,238.912 288.473 C 238.036 289.200,238.173 360.914,239.053 361.644 C 241.193 363.420,272.884 362.399,276.971 360.423 C 278.307 359.776,280.300 359.024,281.399 358.751 C 282.582 358.458,283.697 357.876,284.129 357.327 C 284.530 356.817,285.076 356.400,285.342 356.400 C 285.953 356.400,290.400 351.934,290.400 351.319 C 290.400 351.067,290.824 350.353,291.342 349.731 C 293.793 346.788,294.283 335.077,292.057 332.637 C 291.637 332.177,290.976 331.170,290.588 330.400 C 289.561 328.364,287.085 326.117,284.690 325.048 C 280.126 323.011,279.353 320.090,282.925 318.377 C 289.244 315.349,291.814 308.898,290.279 299.921 C 289.825 297.269,284.783 291.523,282.462 291.014 C 281.798 290.868,281.018 290.462,280.728 290.112 C 279.172 288.236,263.839 286.057,256.400 286.655 M104.096 288.395 C 103.774 288.911,103.600 290.851,103.600 293.933 C 103.600 300.423,102.895 300.000,113.709 300.000 C 122.272 300.000,122.366 300.009,123.478 300.965 L 124.600 301.931 124.704 331.465 C 124.799 358.598,124.862 361.041,125.480 361.500 C 126.340 362.139,139.420 362.215,139.811 361.583 C 139.952 361.354,140.098 347.891,140.134 331.666 C 140.196 304.163,140.248 302.092,140.909 301.083 L 141.618 300.000 149.379 300.000 C 153.839 300.000,157.993 299.803,159.147 299.537 L 161.155 299.073 161.277 294.237 C 161.426 288.365,161.464 288.511,159.660 288.010 C 156.478 287.126,104.664 287.485,104.096 288.395 M181.858 288.581 C 181.276 289.120,180.800 289.781,180.800 290.049 C 180.800 290.318,180.522 290.844,180.182 291.220 C 179.842 291.596,179.209 293.680,178.775 295.851 C 178.341 298.023,177.643 300.269,177.224 300.842 C 176.362 302.020,175.793 303.988,175.384 307.200 C 175.230 308.410,174.671 310.257,174.143 311.305 C 173.614 312.353,172.903 314.693,172.562 316.505 C 172.222 318.317,171.530 320.520,171.026 321.400 C 170.168 322.896,169.572 324.987,169.013 328.461 C 168.884 329.264,168.355 330.718,167.837 331.692 C 167.319 332.666,166.678 334.799,166.412 336.431 C 166.146 338.064,165.418 340.480,164.795 341.800 C 164.172 343.120,163.380 345.728,163.035 347.597 C 162.678 349.527,162.057 351.467,161.596 352.091 C 161.140 352.708,160.432 354.900,159.981 357.092 C 158.927 362.214,158.612 362.000,167.227 362.000 C 174.540 362.000,174.591 361.984,175.058 359.562 C 175.202 358.813,175.731 357.390,176.232 356.400 C 176.733 355.410,177.352 353.160,177.606 351.400 C 178.842 342.857,179.845 342.279,193.085 342.471 C 202.601 342.610,204.000 342.963,204.000 345.229 C 204.000 345.608,204.536 346.937,205.190 348.182 C 205.913 349.554,206.620 351.813,206.988 353.922 C 207.591 357.379,208.853 360.546,210.000 361.484 C 210.734 362.084,223.675 362.202,224.766 361.618 C 225.713 361.111,224.524 354.444,223.027 351.869 C 222.493 350.951,221.771 348.681,221.423 346.825 C 221.074 344.969,220.352 342.705,219.818 341.795 C 219.284 340.884,218.637 338.893,218.379 337.369 C 218.121 335.846,217.410 333.430,216.800 332.000 C 216.190 330.570,215.480 328.140,215.224 326.600 C 214.968 325.060,214.312 322.938,213.767 321.884 C 213.222 320.830,212.492 318.580,212.144 316.884 C 211.797 315.188,210.998 312.720,210.370 311.400 C 209.741 310.080,209.025 307.650,208.778 306.000 C 208.527 304.322,207.921 302.292,207.402 301.392 C 206.891 300.507,206.170 298.130,205.798 296.109 C 205.393 293.901,204.824 292.089,204.373 291.569 C 203.961 291.094,203.507 290.321,203.365 289.852 C 202.682 287.606,202.650 287.600,192.396 287.600 L 182.917 287.600 181.858 288.581 M267.642 298.137 C 268.611 298.652,270.079 299.296,270.905 299.569 C 271.731 299.841,272.589 300.406,272.812 300.823 C 273.036 301.241,273.635 301.999,274.145 302.508 C 277.771 306.135,273.912 315.095,268.197 316.321 C 264.752 317.059,258.364 317.338,256.499 316.831 C 253.815 316.102,253.650 315.582,253.570 307.626 L 253.501 300.651 255.327 298.926 L 257.153 297.200 261.517 297.200 C 265.325 297.200,266.105 297.319,267.642 298.137 M193.939 303.938 C 194.131 304.742,194.499 306.742,194.757 308.383 C 195.015 310.023,195.467 311.643,195.762 311.983 C 196.473 312.800,197.067 314.783,197.626 318.200 C 197.886 319.787,198.541 321.780,199.138 322.800 C 200.525 325.170,200.696 330.102,199.424 331.032 C 198.245 331.894,185.732 331.848,184.489 330.977 C 182.922 329.880,183.638 321.775,185.579 318.634 C 186.060 317.856,186.701 315.466,187.160 312.738 C 188.028 307.582,189.481 303.585,191.104 301.892 L 192.195 300.753 192.892 301.614 C 193.276 302.088,193.747 303.134,193.939 303.938 M268.267 329.020 C 268.890 329.472,270.247 330.158,271.281 330.546 C 273.548 331.396,275.387 333.378,276.059 335.693 C 276.332 336.632,276.810 337.804,277.121 338.297 C 278.212 340.024,275.962 345.834,273.257 348.276 C 269.301 351.846,257.644 352.736,254.315 349.723 C 253.469 348.958,253.227 332.791,254.026 330.497 C 254.937 327.884,265.225 326.817,268.267 329.020 " stroke="none" fill="#f7f9fb" fill-rule="evenodd"></path><path id="path1" d="M67.600 0.800 C 67.600 1.536,67.333 1.600,64.260 1.600 C 60.015 1.600,58.489 2.096,58.324 3.531 C 58.203 4.575,58.120 4.605,54.799 4.833 C 50.983 5.095,49.718 5.591,49.375 6.959 C 49.173 7.761,48.821 7.927,46.907 8.125 C 45.680 8.251,44.548 8.561,44.393 8.812 C 44.238 9.063,43.951 9.271,43.755 9.274 C 43.560 9.277,43.445 9.442,43.500 9.640 C 43.555 9.838,43.420 10.000,43.200 10.000 C 42.980 10.000,42.800 10.270,42.800 10.600 C 42.800 11.018,42.379 11.200,41.414 11.200 C 39.944 11.200,39.200 11.998,39.200 13.574 C 39.200 14.273,38.938 14.406,37.500 14.440 C 35.027 14.498,33.824 14.930,33.659 15.818 C 33.473 16.818,32.803 17.649,32.388 17.393 C 31.966 17.132,29.980 17.893,30.044 18.291 C 30.257 19.596,29.925 20.400,29.174 20.400 C 27.688 20.400,26.800 21.153,26.800 22.414 C 26.800 23.403,26.639 23.600,25.829 23.600 C 24.586 23.600,23.600 24.586,23.600 25.829 C 23.600 26.639,23.403 26.800,22.414 26.800 C 21.166 26.800,20.400 27.686,20.400 29.129 C 20.400 29.706,20.033 29.980,19.000 30.174 C 17.994 30.362,17.586 30.657,17.550 31.218 C 17.523 31.648,17.455 32.180,17.400 32.400 C 17.345 32.620,17.277 32.991,17.250 33.224 C 17.222 33.457,17.047 33.552,16.859 33.436 C 16.362 33.129,15.092 34.166,14.889 35.045 C 14.793 35.460,14.626 36.565,14.517 37.500 C 14.359 38.856,14.160 39.200,13.533 39.200 C 12.073 39.200,11.200 39.964,11.200 41.243 C 11.200 41.911,10.930 42.727,10.600 43.057 C 10.270 43.387,10.000 43.532,10.000 43.380 C 10.000 43.227,9.732 43.324,9.404 43.596 C 9.077 43.868,8.898 44.235,9.007 44.411 C 9.116 44.587,9.006 44.798,8.763 44.879 C 8.520 44.960,8.221 45.916,8.098 47.004 C 7.923 48.559,6.800 50.960,6.800 49.780 C 6.800 49.627,6.526 49.730,6.190 50.008 C 5.855 50.286,5.673 50.607,5.787 50.720 C 5.900 50.834,5.770 51.195,5.497 51.523 C 5.223 51.851,4.910 53.487,4.800 55.159 C 4.604 58.139,4.577 58.203,3.476 58.329 C 2.858 58.400,2.279 58.670,2.189 58.929 C 1.857 59.882,1.665 61.872,1.633 64.700 C 1.603 67.322,1.523 67.600,0.800 67.600 C 0.002 67.600,0.000 67.867,0.000 200.000 C 0.000 329.964,0.014 332.400,0.763 332.400 C 1.449 332.400,1.547 332.809,1.741 336.500 C 2.023 341.836,1.930 341.551,3.467 341.839 L 4.800 342.089 4.800 344.756 C 4.800 346.522,5.010 347.722,5.423 348.311 C 5.765 348.800,5.947 349.200,5.827 349.200 C 5.706 349.200,5.916 349.560,6.293 350.000 C 6.670 350.440,7.208 350.800,7.489 350.800 C 7.803 350.800,8.000 351.321,8.000 352.151 C 8.000 354.075,9.057 356.352,10.191 356.869 C 10.950 357.214,11.185 357.666,11.280 358.955 C 11.395 360.534,11.459 360.605,12.861 360.722 C 14.281 360.840,14.329 360.898,14.550 362.722 C 14.676 363.755,14.818 364.780,14.867 365.000 C 14.991 365.561,16.340 366.821,16.687 366.700 C 16.845 366.645,17.174 367.312,17.418 368.183 C 17.775 369.455,18.103 369.828,19.087 370.083 C 20.074 370.338,20.361 370.668,20.571 371.785 C 20.790 372.956,21.033 373.207,22.141 373.415 C 23.177 373.610,23.530 373.927,23.826 374.931 C 24.132 375.969,24.433 376.223,25.477 376.324 C 26.634 376.436,26.766 376.587,26.877 377.924 C 26.993 379.315,27.086 379.407,28.500 379.524 C 29.838 379.635,30.000 379.767,30.000 380.744 C 30.000 382.193,30.673 382.800,32.280 382.800 C 33.425 382.800,33.600 382.934,33.600 383.810 C 33.600 384.959,34.721 385.559,37.500 385.897 C 38.947 386.073,39.200 386.241,39.200 387.023 C 39.200 388.338,40.241 389.200,41.829 389.200 C 42.787 389.200,43.200 389.383,43.200 389.806 C 43.200 390.826,45.615 391.997,47.724 391.999 C 48.877 391.999,49.550 392.157,49.405 392.392 C 49.087 392.906,49.939 394.485,50.386 394.209 C 50.576 394.091,50.805 394.215,50.895 394.484 C 50.999 394.798,52.337 395.049,54.629 395.186 L 58.200 395.400 58.325 396.700 C 58.394 397.415,58.619 398.023,58.825 398.050 C 59.031 398.078,59.380 398.145,59.600 398.200 C 59.820 398.255,61.710 398.322,63.800 398.350 C 67.317 398.396,67.600 398.460,67.600 399.200 C 67.600 399.998,67.867 400.000,200.000 400.000 C 332.133 400.000,332.400 399.998,332.400 399.200 C 332.400 398.460,332.677 398.398,336.100 398.369 C 341.503 398.325,341.980 398.141,341.994 396.100 C 342.000 395.242,342.149 395.200,345.213 395.200 C 347.636 395.200,348.479 395.059,348.646 394.625 C 348.773 394.294,349.135 394.154,349.499 394.293 C 349.889 394.443,350.030 394.373,349.868 394.110 C 349.723 393.876,349.892 393.573,350.244 393.439 C 350.608 393.299,350.785 392.937,350.654 392.597 C 350.470 392.118,350.812 392.000,352.384 392.000 C 354.066 392.000,354.549 391.806,355.796 390.629 C 356.708 389.770,357.783 389.187,358.679 389.066 C 360.233 388.856,360.784 388.292,360.794 386.900 C 360.798 386.224,361.034 386.000,361.740 386.000 C 363.829 386.000,366.800 384.421,366.800 383.311 C 366.800 383.022,367.277 382.797,367.900 382.794 C 369.471 382.785,370.009 382.317,370.111 380.871 C 370.191 379.727,370.327 379.602,371.486 379.601 C 372.843 379.600,373.600 378.759,373.600 377.252 C 373.600 376.640,373.908 376.421,374.900 376.325 C 376.043 376.215,376.215 376.043,376.325 374.900 C 376.421 373.908,376.640 373.600,377.252 373.600 C 378.709 373.600,379.600 372.839,379.600 371.594 C 379.600 370.638,379.808 370.365,380.700 370.152 C 382.353 369.758,382.800 369.241,382.800 367.727 C 382.800 366.913,382.963 366.454,383.200 366.600 C 383.420 366.736,383.600 366.657,383.600 366.424 C 383.600 366.191,383.813 366.045,384.073 366.100 C 384.696 366.232,385.636 364.301,385.897 362.353 C 386.083 360.963,386.225 360.800,387.239 360.800 C 388.483 360.800,389.200 359.880,389.200 358.282 C 389.200 357.723,389.793 356.683,390.600 355.827 C 391.736 354.623,392.001 354.028,392.006 352.672 C 392.011 351.362,392.769 348.887,392.794 350.100 C 392.797 350.265,393.131 350.085,393.537 349.700 C 393.942 349.315,394.201 348.865,394.113 348.700 C 394.025 348.535,394.233 348.400,394.576 348.400 C 395.089 348.400,395.200 347.832,395.200 345.200 C 395.200 343.440,395.335 341.987,395.500 341.970 C 398.289 341.694,398.386 341.504,398.394 336.300 C 398.400 332.269,398.450 332.000,399.200 332.000 C 399.998 332.000,400.000 331.733,400.000 199.800 C 400.000 67.867,399.998 67.600,399.200 67.600 C 398.456 67.600,398.400 67.333,398.400 63.774 C 398.400 59.318,398.056 58.400,396.386 58.400 L 395.200 58.400 395.200 55.461 C 395.200 52.132,394.531 50.371,393.004 49.674 C 392.146 49.284,392.000 48.952,392.000 47.396 C 392.000 46.149,391.811 45.503,391.402 45.346 C 391.074 45.219,390.895 44.969,391.006 44.790 C 391.117 44.611,390.756 44.109,390.204 43.674 C 389.652 43.240,389.198 42.551,389.195 42.142 C 389.181 40.334,388.708 39.619,387.356 39.365 C 386.154 39.140,386.000 38.967,386.000 37.844 C 386.000 37.148,385.720 36.178,385.377 35.689 C 385.035 35.200,384.877 34.800,385.026 34.800 C 385.176 34.800,385.076 34.532,384.804 34.204 C 384.532 33.877,384.170 33.695,384.000 33.800 C 383.529 34.091,382.811 33.041,382.719 31.928 C 382.644 31.028,381.928 29.970,381.408 29.992 C 379.766 30.058,379.645 29.963,379.524 28.500 C 379.407 27.086,379.315 26.993,377.924 26.877 C 376.590 26.766,376.435 26.632,376.324 25.490 C 376.223 24.457,375.968 24.159,374.936 23.865 C 373.923 23.576,373.621 23.235,373.418 22.154 C 373.193 20.957,372.989 20.776,371.613 20.556 C 370.625 20.398,370.129 20.130,370.248 19.820 C 370.538 19.064,369.044 17.484,367.966 17.407 C 367.320 17.360,366.959 17.059,366.876 16.498 C 366.685 15.206,365.843 14.746,363.236 14.510 L 360.842 14.293 360.721 12.846 C 360.604 11.451,360.536 11.393,358.800 11.200 C 357.810 11.090,357.018 10.820,357.040 10.600 C 357.062 10.380,356.792 9.962,356.440 9.670 C 355.935 9.252,355.927 9.195,356.400 9.400 C 356.730 9.543,356.661 9.383,356.246 9.046 C 355.831 8.709,354.661 8.326,353.646 8.196 C 351.455 7.916,350.600 7.512,350.600 6.760 C 350.600 5.737,347.964 4.840,344.900 4.819 C 342.167 4.801,342.000 4.748,341.994 3.900 C 341.982 2.097,341.500 1.882,337.037 1.684 C 333.233 1.514,332.800 1.419,332.800 0.748 C 332.800 0.019,329.433 0.000,200.200 0.000 C 67.867 0.000,67.600 0.002,67.600 0.800 M293.159 52.809 C 295.008 53.049,296.744 53.560,297.789 54.173 C 298.709 54.712,300.681 55.365,302.172 55.624 C 304.155 55.970,305.234 56.405,306.194 57.248 C 306.915 57.882,307.804 58.400,308.169 58.400 C 309.073 58.400,311.882 59.867,312.279 60.545 C 312.455 60.848,313.352 61.476,314.271 61.941 C 315.190 62.406,316.058 63.152,316.199 63.598 C 316.341 64.044,316.970 64.674,317.597 64.998 C 318.224 65.323,319.116 66.120,319.579 66.770 C 320.042 67.421,320.793 68.071,321.247 68.215 C 321.701 68.359,322.326 69.083,322.636 69.824 C 322.945 70.565,323.559 71.364,324.000 71.600 C 324.441 71.836,325.231 72.877,325.757 73.914 C 326.283 74.951,327.091 76.141,327.552 76.558 C 328.014 76.975,328.687 78.370,329.048 79.658 C 329.410 80.946,329.841 82.000,330.007 82.000 C 330.761 82.000,331.736 84.397,332.265 87.552 C 332.583 89.449,333.097 91.553,333.407 92.230 C 334.758 95.177,334.825 98.532,334.712 157.200 C 334.605 212.731,334.566 215.483,333.861 217.200 C 333.455 218.190,332.797 220.734,332.400 222.854 C 331.639 226.914,331.172 228.152,330.194 228.699 C 329.866 228.883,329.348 229.997,329.043 231.175 C 328.682 232.563,328.062 233.713,327.279 234.445 C 326.614 235.067,325.865 236.196,325.615 236.955 C 325.365 237.714,324.719 238.623,324.180 238.976 C 323.641 239.330,323.200 239.855,323.200 240.143 C 323.200 240.857,316.072 247.681,314.700 248.281 C 314.095 248.545,313.600 248.960,313.600 249.203 C 313.600 249.446,312.745 250.016,311.700 250.469 C 310.655 250.923,309.319 251.743,308.731 252.292 C 308.143 252.841,306.520 253.607,305.124 253.994 C 303.728 254.381,301.914 255.154,301.093 255.711 C 297.826 257.928,294.901 257.994,200.000 257.985 C 100.788 257.975,101.734 258.002,98.076 255.164 C 97.567 254.769,96.153 254.239,94.933 253.986 C 93.495 253.688,92.307 253.135,91.553 252.416 C 90.914 251.805,89.592 251.000,88.615 250.627 C 87.637 250.254,86.733 249.618,86.604 249.214 C 86.476 248.810,85.954 248.375,85.444 248.247 C 84.265 247.951,76.800 240.731,76.800 239.887 C 76.800 239.539,76.457 239.145,76.037 239.012 C 75.618 238.879,74.979 238.030,74.617 237.127 C 74.256 236.223,73.443 235.001,72.811 234.410 C 72.110 233.756,71.405 232.452,71.003 231.069 C 70.640 229.821,70.166 228.800,69.949 228.800 C 69.308 228.800,68.108 225.580,67.809 223.057 C 67.657 221.768,67.052 219.518,66.466 218.057 L 65.400 215.400 65.400 155.400 L 65.400 95.400 66.466 92.743 C 67.052 91.282,67.654 89.032,67.804 87.743 C 68.080 85.364,69.381 82.000,70.025 82.000 C 70.219 82.000,70.669 80.998,71.025 79.772 C 71.381 78.547,72.171 76.972,72.781 76.272 C 73.390 75.573,74.211 74.370,74.605 73.600 C 75.371 72.105,75.738 71.682,79.909 67.505 C 81.389 66.023,83.230 64.176,84.000 63.402 C 84.770 62.628,85.583 61.996,85.807 61.997 C 86.031 61.999,87.057 61.304,88.087 60.453 C 89.117 59.601,90.759 58.704,91.735 58.458 C 92.711 58.212,93.616 57.736,93.745 57.400 C 94.037 56.639,95.261 56.165,98.885 55.409 C 100.442 55.084,102.005 54.558,102.358 54.239 C 103.031 53.632,105.623 52.911,108.000 52.670 C 111.451 52.320,290.426 52.454,293.159 52.809 M267.906 283.994 C 272.330 284.300,273.526 284.525,275.106 285.352 C 276.148 285.898,278.046 286.552,279.325 286.806 C 280.816 287.103,282.108 287.667,282.925 288.379 C 283.626 288.989,284.830 289.810,285.600 290.203 C 288.443 291.652,291.376 295.330,291.762 297.929 C 291.903 298.880,292.414 300.193,292.898 300.847 C 294.147 302.536,294.172 307.430,292.940 309.096 C 292.480 309.718,291.897 311.191,291.644 312.369 C 291.134 314.747,287.061 319.318,284.988 319.839 C 284.426 319.980,284.021 320.209,284.089 320.348 C 284.878 321.956,286.230 323.619,286.929 323.841 C 288.842 324.447,290.739 326.021,291.552 327.675 C 292.018 328.624,292.834 329.809,293.365 330.308 C 294.080 330.982,294.453 331.966,294.805 334.108 C 295.067 335.699,295.480 337.532,295.723 338.183 C 296.210 339.485,296.160 341.651,295.607 343.200 C 295.411 343.750,295.038 345.533,294.778 347.162 C 294.421 349.409,294.071 350.343,293.331 351.029 C 292.794 351.527,291.910 352.804,291.366 353.867 C 290.231 356.085,286.237 359.338,283.494 360.278 C 282.562 360.598,281.440 361.194,281.000 361.603 C 279.767 362.749,278.552 363.074,273.590 363.583 C 271.065 363.842,268.286 364.357,267.412 364.727 C 265.055 365.726,246.044 365.722,242.800 364.721 C 241.590 364.348,239.925 363.935,239.101 363.803 C 236.226 363.345,236.375 365.598,236.494 324.370 L 236.600 287.524 237.800 286.563 C 239.919 284.867,242.524 284.291,249.397 284.000 C 258.993 283.593,262.082 283.592,267.906 283.994 M161.785 285.349 C 163.154 286.718,163.595 288.801,163.598 293.913 C 163.602 301.907,162.909 302.400,151.674 302.400 C 144.757 302.400,142.003 302.845,141.996 303.963 C 141.994 304.313,141.949 317.586,141.896 333.458 C 141.804 361.202,141.771 362.349,141.038 363.158 C 140.064 364.234,126.264 364.455,123.819 363.434 C 121.529 362.477,121.601 363.473,121.586 332.726 C 121.574 309.923,121.466 304.010,121.046 303.251 L 120.520 302.303 112.843 302.374 C 101.973 302.474,101.600 302.192,101.600 293.879 C 101.600 288.498,101.942 286.739,103.260 285.336 L 104.139 284.400 132.488 284.400 L 160.836 284.400 161.785 285.349 M204.117 286.140 C 206.431 288.389,206.620 288.784,207.207 292.600 C 207.498 294.495,208.101 296.507,208.686 297.534 C 209.292 298.598,209.899 300.667,210.256 302.886 C 210.680 305.520,211.112 306.863,211.846 307.825 C 212.585 308.793,213.013 310.135,213.449 312.841 C 213.883 315.541,214.297 316.837,214.983 317.653 C 215.627 318.419,216.065 319.685,216.375 321.685 C 216.624 323.288,216.919 325.185,217.032 325.900 C 217.144 326.615,217.388 327.200,217.573 327.200 C 218.210 327.200,219.126 329.808,219.610 333.000 C 219.926 335.081,220.431 336.700,221.054 337.631 C 221.926 338.932,223.176 343.460,223.193 345.378 C 223.197 345.807,223.643 346.797,224.184 347.578 C 224.884 348.590,225.353 350.153,225.810 353.000 C 226.238 355.667,226.701 357.267,227.199 357.800 C 231.359 362.252,228.796 364.000,218.107 364.000 C 207.052 364.000,206.549 363.741,205.545 357.540 C 205.264 355.806,204.607 353.771,203.942 352.580 C 203.184 351.222,202.713 349.649,202.507 347.780 L 202.200 345.000 192.600 344.800 C 181.918 344.577,182.326 344.481,181.624 347.400 C 181.359 348.500,180.796 349.771,180.372 350.225 C 179.827 350.809,179.436 352.227,179.036 355.076 C 178.419 359.477,177.862 360.876,175.981 362.758 L 174.738 364.000 166.788 364.000 C 158.329 364.000,157.200 363.797,156.444 362.137 C 155.800 360.724,155.874 360.331,157.150 358.369 C 158.007 357.050,158.367 355.899,158.566 353.848 C 158.838 351.048,159.589 348.723,160.580 347.615 C 160.883 347.277,161.418 345.322,161.770 343.270 C 162.396 339.622,163.191 337.409,163.974 337.136 C 164.189 337.061,164.564 335.650,164.808 334.000 C 165.341 330.381,165.907 328.422,166.674 327.543 C 166.989 327.181,167.563 325.079,167.950 322.870 C 168.458 319.970,168.950 318.427,169.718 317.318 C 170.489 316.206,170.903 314.902,171.219 312.591 C 171.511 310.454,172.028 308.734,172.784 307.384 C 173.441 306.210,174.095 304.204,174.350 302.584 C 174.910 299.020,175.429 297.253,176.155 296.445 C 176.473 296.090,176.935 294.630,177.180 293.200 C 177.425 291.770,177.733 290.066,177.864 289.414 C 178.008 288.693,178.905 287.480,180.151 286.321 L 182.200 284.414 192.263 284.407 L 202.327 284.400 204.117 286.140 M257.445 300.750 C 256.336 301.976,256.499 314.211,257.633 314.818 C 258.910 315.501,267.117 314.883,267.960 314.040 C 268.318 313.682,269.214 312.960,269.951 312.435 C 270.688 311.910,271.530 310.909,271.822 310.209 C 272.115 309.509,272.614 308.721,272.931 308.457 C 273.591 307.910,273.122 305.803,271.939 304.000 C 271.578 303.450,271.169 302.614,271.028 302.143 C 270.550 300.537,258.734 299.326,257.445 300.750 M191.604 307.260 C 190.765 310.511,190.300 311.799,189.725 312.459 C 189.409 312.821,188.890 314.801,188.571 316.859 C 187.775 321.989,187.755 322.060,186.582 323.789 C 185.557 325.299,185.213 327.050,185.764 327.942 C 186.318 328.838,195.715 328.539,196.925 327.587 L 197.958 326.775 197.219 325.487 C 196.813 324.779,196.263 322.623,195.998 320.696 C 195.733 318.770,195.291 317.060,195.017 316.896 C 194.054 316.326,193.578 314.785,192.993 310.345 C 192.308 305.150,192.206 304.924,191.604 307.260 M257.264 331.819 C 256.257 334.030,256.653 348.750,257.733 349.242 C 259.742 350.158,268.087 349.113,269.853 347.725 C 270.704 347.057,271.974 346.216,272.675 345.857 C 275.484 344.421,275.372 336.768,272.504 334.126 C 270.400 332.188,270.553 332.245,265.200 331.402 C 259.419 330.491,257.831 330.575,257.264 331.819 " stroke="none" fill="#049ce4" fill-rule="evenodd"></path><path id="path2" d="M350.334 5.682 C 350.628 6.058,350.760 6.540,350.628 6.755 C 350.495 6.969,350.533 7.235,350.710 7.345 C 351.352 7.741,351.130 6.041,350.473 5.527 C 349.873 5.057,349.858 5.074,350.334 5.682 M356.624 9.033 C 357.389 9.657,357.389 9.662,356.600 9.432 C 355.859 9.215,355.851 9.238,356.494 9.739 C 356.875 10.036,357.088 10.378,356.967 10.499 C 356.846 10.621,356.901 10.815,357.090 10.932 C 357.598 11.246,357.634 9.523,357.132 8.918 C 356.896 8.633,356.510 8.400,356.275 8.400 C 356.039 8.400,356.196 8.685,356.624 9.033 M369.402 18.002 C 369.802 18.444,370.211 18.722,370.312 18.621 C 370.528 18.405,369.388 17.200,368.967 17.200 C 368.807 17.200,369.003 17.561,369.402 18.002 M383.428 33.562 C 383.554 33.687,383.959 33.792,384.328 33.795 C 384.698 33.798,385.002 34.102,385.005 34.472 C 385.012 35.430,385.421 35.715,385.489 34.810 C 385.521 34.394,385.333 33.886,385.073 33.681 C 384.570 33.286,383.041 33.175,383.428 33.562 M8.584 43.227 C 8.439 43.461,8.416 43.749,8.533 43.867 C 8.820 44.153,9.600 43.648,9.600 43.176 C 9.600 42.665,8.909 42.699,8.584 43.227 M390.000 43.151 C 390.000 43.663,391.176 44.557,391.467 44.267 C 391.757 43.976,390.863 42.800,390.351 42.800 C 390.158 42.800,390.000 42.958,390.000 43.151 M6.062 49.442 C 5.558 49.794,5.234 50.312,5.342 50.593 C 5.449 50.873,5.327 51.341,5.069 51.632 C 4.681 52.070,4.719 52.072,5.287 51.642 C 5.665 51.357,5.959 51.006,5.940 50.862 C 5.829 50.022,6.064 49.539,6.502 49.707 C 6.778 49.813,7.235 49.652,7.518 49.350 C 8.267 48.548,7.246 48.613,6.062 49.442 M197.800 90.203 C 197.360 90.284,194.390 90.660,191.200 91.038 C 187.134 91.520,184.862 91.988,183.600 92.605 C 182.610 93.089,180.519 93.869,178.953 94.338 C 177.387 94.807,175.884 95.458,175.613 95.784 C 175.342 96.111,174.133 96.830,172.925 97.383 C 171.718 97.936,170.192 98.841,169.534 99.394 C 168.877 99.947,168.128 100.400,167.870 100.400 C 167.612 100.400,166.860 100.930,166.200 101.578 C 165.540 102.225,163.319 104.340,161.264 106.278 C 159.209 108.215,157.086 110.549,156.547 111.464 C 156.008 112.379,155.310 113.226,154.996 113.346 C 154.682 113.467,154.150 114.224,153.814 115.028 C 153.478 115.833,152.670 117.098,152.019 117.839 C 151.369 118.580,150.618 119.955,150.351 120.893 C 150.084 121.832,149.475 123.140,148.997 123.800 C 148.519 124.460,147.723 126.350,147.228 128.000 C 146.733 129.650,145.995 131.543,145.589 132.206 C 145.174 132.884,144.488 135.599,144.021 138.406 C 143.565 141.153,142.886 144.660,142.513 146.200 C 141.716 149.487,141.594 161.553,142.330 164.200 C 142.575 165.080,143.235 168.469,143.796 171.731 C 144.383 175.149,145.175 178.367,145.663 179.324 C 146.129 180.237,146.923 182.197,147.427 183.678 C 147.931 185.160,148.716 186.772,149.171 187.261 C 149.627 187.751,150.000 188.442,150.000 188.797 C 150.000 189.153,150.585 190.318,151.300 191.387 C 152.015 192.456,152.899 193.796,153.263 194.365 C 155.310 197.558,162.736 204.723,165.452 206.124 C 166.140 206.480,166.793 207.005,166.903 207.291 C 167.013 207.578,168.160 208.241,169.451 208.765 C 170.743 209.288,172.183 210.061,172.650 210.481 C 173.118 210.902,174.771 211.676,176.325 212.201 C 177.878 212.727,180.007 213.548,181.055 214.025 C 182.102 214.502,184.409 215.145,186.180 215.452 C 187.951 215.760,191.380 216.409,193.800 216.893 C 204.701 219.076,234.481 217.064,242.200 213.622 C 243.080 213.230,245.212 212.598,246.938 212.219 C 250.785 211.373,252.176 209.477,251.006 206.676 C 250.681 205.898,250.228 203.582,249.999 201.530 C 249.209 194.430,247.860 189.078,246.237 186.601 L 245.608 185.641 243.504 186.592 C 242.296 187.138,239.527 187.815,237.000 188.181 C 234.580 188.532,231.610 189.083,230.400 189.406 C 224.072 191.094,207.188 191.258,202.583 189.677 C 201.253 189.221,198.887 188.557,197.326 188.201 C 195.764 187.846,193.624 187.009,192.570 186.340 C 191.515 185.671,190.252 184.972,189.761 184.785 C 188.308 184.233,183.903 180.716,183.702 179.947 C 183.600 179.557,183.095 178.961,182.579 178.623 C 182.063 178.285,181.269 177.242,180.814 176.304 C 180.359 175.367,179.543 173.880,179.000 173.000 C 178.263 171.805,178.011 170.834,178.007 169.162 C 177.995 165.253,174.150 165.600,217.431 165.599 C 252.778 165.599,255.497 165.550,256.800 164.899 L 258.200 164.200 258.524 159.600 C 259.050 152.123,258.556 139.537,257.607 136.220 C 257.169 134.691,256.519 131.811,256.162 129.820 C 255.806 127.829,255.108 125.480,254.612 124.600 C 254.116 123.720,253.299 121.740,252.796 120.200 C 252.294 118.660,251.459 116.970,250.941 116.445 C 250.424 115.920,250.000 115.181,250.000 114.801 C 250.000 114.422,249.519 113.412,248.932 112.556 C 248.344 111.700,247.371 110.280,246.770 109.400 C 246.169 108.520,244.400 106.455,242.839 104.812 C 241.277 103.168,240.000 101.724,240.000 101.603 C 240.000 101.482,239.190 100.941,238.200 100.400 C 237.210 99.859,236.400 99.283,236.400 99.119 C 236.400 98.955,235.815 98.522,235.100 98.156 C 234.385 97.791,232.851 96.866,231.691 96.101 C 230.532 95.336,228.509 94.377,227.197 93.968 C 225.885 93.560,224.367 92.935,223.825 92.580 C 221.690 91.181,202.147 89.396,197.800 90.203 M204.410 114.413 C 209.033 114.977,211.750 115.811,214.082 117.381 C 215.968 118.651,219.600 122.489,219.600 123.212 C 219.600 123.403,220.049 124.043,220.597 124.634 C 221.145 125.226,221.883 126.720,222.237 127.955 C 222.591 129.190,223.296 131.496,223.803 133.079 C 225.102 137.136,224.627 139.212,222.164 140.241 C 219.777 141.238,179.997 141.050,178.744 140.035 C 177.156 138.749,177.570 133.076,179.419 130.800 C 179.687 130.470,180.309 129.081,180.802 127.714 C 181.341 126.218,182.075 124.981,182.648 124.605 C 183.172 124.262,183.600 123.696,183.600 123.347 C 183.600 122.694,188.208 118.000,188.849 118.000 C 189.046 118.000,189.919 117.484,190.789 116.854 C 192.218 115.819,195.369 114.930,200.000 114.255 C 200.550 114.175,201.005 114.084,201.010 114.054 C 201.016 114.025,202.546 114.186,204.410 114.413 M398.400 332.400 C 398.400 332.620,398.760 332.800,399.200 332.800 C 399.640 332.800,400.000 332.620,400.000 332.400 C 400.000 332.180,399.640 332.000,399.200 332.000 C 398.760 332.000,398.400 332.180,398.400 332.400 M4.800 347.900 C 4.800 348.149,4.972 348.459,5.183 348.589 C 5.393 348.719,5.473 349.067,5.360 349.361 C 5.127 349.967,6.212 351.216,6.929 351.168 C 7.260 351.146,7.252 351.077,6.900 350.935 C 6.625 350.824,6.400 350.478,6.400 350.167 C 6.400 349.855,6.209 349.600,5.976 349.600 C 5.743 349.600,5.637 349.463,5.741 349.296 C 5.844 349.128,5.675 348.644,5.365 348.219 C 5.054 347.795,4.800 347.651,4.800 347.900 M393.307 350.034 C 393.164 350.579,392.989 350.706,392.800 350.400 C 392.596 350.070,392.440 350.119,392.268 350.566 C 391.956 351.381,392.756 351.386,393.911 350.577 C 394.951 349.849,395.069 349.200,394.163 349.200 C 393.812 349.200,393.427 349.575,393.307 350.034 M390.080 355.680 C 389.850 355.910,389.769 356.375,389.899 356.714 C 390.055 357.119,389.975 357.232,389.668 357.042 C 389.411 356.883,389.200 356.943,389.200 357.176 C 389.200 357.409,389.340 357.600,389.511 357.600 C 390.001 357.600,391.600 356.391,391.600 356.020 C 391.600 355.470,390.529 355.231,390.080 355.680 M8.400 356.109 C 8.400 356.238,8.683 356.626,9.029 356.971 C 9.731 357.674,10.995 357.838,10.584 357.173 C 10.439 356.939,10.218 356.849,10.092 356.974 C 9.967 357.099,9.535 356.903,9.132 356.539 C 8.730 356.174,8.400 355.981,8.400 356.109 M14.400 365.167 C 14.400 365.988,14.919 366.800,15.443 366.800 C 16.186 366.800,16.156 366.035,15.402 365.746 C 15.074 365.619,14.904 365.355,15.026 365.158 C 15.148 364.961,15.057 364.800,14.824 364.800 C 14.591 364.800,14.400 364.965,14.400 365.167 M385.094 365.562 C 384.925 366.207,384.651 366.428,384.224 366.265 C 383.881 366.133,383.600 366.199,383.600 366.413 C 383.600 367.004,384.641 366.874,385.189 366.213 C 385.457 365.891,385.600 365.400,385.508 365.124 C 385.416 364.847,385.229 365.044,385.094 365.562 M365.632 385.100 C 365.651 385.522,365.744 385.601,365.866 385.298 C 365.977 385.021,366.233 384.897,366.434 385.021 C 366.635 385.145,366.800 385.057,366.800 384.824 C 366.800 384.591,366.530 384.400,366.200 384.400 C 365.870 384.400,365.614 384.715,365.632 385.100 M357.042 389.668 C 357.234 389.978,357.117 390.054,356.695 389.892 C 355.839 389.563,355.128 390.447,355.631 391.213 C 355.954 391.706,356.144 391.648,356.808 390.856 C 357.685 389.809,357.821 389.200,357.176 389.200 C 356.943 389.200,356.883 389.411,357.042 389.668 M350.669 392.742 C 350.822 393.328,350.709 393.600,350.313 393.600 C 349.994 393.600,349.733 393.870,349.733 394.200 C 349.733 395.135,350.369 394.906,350.878 393.789 C 351.217 393.045,351.221 392.661,350.892 392.332 C 350.563 392.003,350.504 392.111,350.669 392.742 M49.200 393.937 C 49.200 394.549,50.708 395.286,51.521 395.072 C 52.142 394.908,52.140 394.889,51.500 394.846 C 51.115 394.821,50.800 394.590,50.800 394.333 C 50.800 394.077,50.682 393.985,50.537 394.130 C 50.392 394.275,50.032 394.193,49.737 393.948 C 49.357 393.632,49.200 393.629,49.200 393.937 " stroke="none" fill="#0c3982" fill-rule="evenodd"></path><path id="path3" d="M109.200 53.612 C 107.770 53.786,106.068 54.134,105.417 54.386 C 104.767 54.637,102.517 55.293,100.417 55.843 C 98.318 56.393,96.150 57.157,95.600 57.542 C 95.050 57.926,93.738 58.564,92.684 58.960 C 91.631 59.355,90.281 60.076,89.684 60.563 C 89.088 61.049,87.903 61.848,87.052 62.339 C 86.200 62.829,84.940 63.776,84.252 64.443 C 83.563 65.110,81.920 66.704,80.600 67.985 C 77.741 70.758,75.674 73.265,74.658 75.192 C 74.250 75.966,73.578 76.969,73.164 77.419 C 72.751 77.870,72.063 79.254,71.636 80.495 C 71.209 81.736,70.480 83.265,70.016 83.893 C 69.032 85.223,67.366 92.686,66.772 98.423 C 66.524 100.817,66.424 123.156,66.505 158.223 L 66.634 214.200 67.917 220.000 C 68.622 223.190,69.530 226.250,69.935 226.800 C 70.340 227.350,71.073 228.880,71.563 230.200 C 72.054 231.520,72.883 233.050,73.406 233.600 C 73.928 234.150,74.591 235.155,74.878 235.834 C 76.226 239.020,87.480 250.000,89.398 250.000 C 89.685 250.000,90.883 250.649,92.060 251.442 C 93.237 252.236,95.329 253.234,96.709 253.661 C 98.089 254.088,99.799 254.772,100.509 255.180 C 103.720 257.028,102.213 257.000,200.000 257.000 C 297.507 257.000,296.405 257.020,299.487 255.201 C 300.196 254.783,302.034 254.066,303.572 253.608 C 305.109 253.150,306.901 252.327,307.554 251.778 C 308.206 251.228,309.339 250.576,310.070 250.327 C 310.802 250.079,312.076 249.273,312.901 248.538 C 313.727 247.802,314.572 247.200,314.778 247.200 C 315.850 247.200,324.579 237.578,325.627 235.242 C 325.982 234.449,326.544 233.576,326.875 233.302 C 327.206 233.029,327.793 232.039,328.179 231.102 C 328.566 230.166,329.485 228.140,330.222 226.600 C 331.040 224.890,331.731 222.633,331.997 220.800 C 332.237 219.150,332.696 216.664,333.017 215.275 C 333.513 213.126,333.600 204.237,333.600 155.526 L 333.600 98.302 332.360 92.051 C 331.568 88.061,330.778 85.204,330.174 84.153 C 329.654 83.247,328.855 81.509,328.399 80.290 C 327.943 79.070,327.278 77.831,326.922 77.536 C 326.565 77.241,325.965 76.312,325.588 75.472 C 324.300 72.599,316.009 63.876,313.153 62.391 C 312.358 61.977,311.173 61.189,310.520 60.639 C 309.867 60.090,308.397 59.272,307.253 58.821 C 306.110 58.370,304.775 57.742,304.287 57.424 C 303.799 57.106,301.960 56.461,300.200 55.990 C 298.440 55.519,295.830 54.743,294.400 54.267 L 291.800 53.400 201.800 53.348 C 152.300 53.320,110.630 53.439,109.200 53.612 M291.000 55.568 C 292.760 55.987,295.100 56.445,296.200 56.585 C 299.209 56.967,301.683 57.651,302.800 58.409 C 303.350 58.782,304.790 59.404,306.000 59.791 C 307.210 60.178,308.612 60.923,309.116 61.447 C 309.620 61.972,310.746 62.765,311.619 63.210 C 312.491 63.655,313.849 64.644,314.637 65.409 C 315.424 66.174,316.319 66.800,316.624 66.800 C 316.930 66.800,317.457 67.337,317.796 67.993 C 318.136 68.650,318.950 69.464,319.607 69.804 C 320.263 70.143,320.800 70.658,320.800 70.948 C 320.800 71.238,321.684 72.486,322.764 73.720 C 323.845 74.955,324.851 76.522,325.000 77.202 C 325.150 77.882,325.621 78.655,326.047 78.919 C 326.501 79.200,327.150 80.499,327.613 82.048 C 328.047 83.504,328.745 85.130,329.163 85.662 C 331.474 88.600,331.598 92.168,331.595 156.000 C 331.593 219.748,331.470 223.150,329.092 225.124 C 328.766 225.394,328.280 226.467,328.012 227.508 C 327.299 230.272,326.753 231.600,326.329 231.600 C 326.124 231.600,325.491 232.635,324.922 233.900 C 324.354 235.165,323.374 236.618,322.744 237.129 C 322.115 237.640,321.600 238.256,321.600 238.498 C 321.600 239.139,314.237 246.271,313.254 246.583 C 312.796 246.728,312.101 247.242,311.710 247.724 C 311.000 248.600,308.404 250.000,307.486 250.000 C 307.219 250.001,306.477 250.451,305.838 251.000 C 305.199 251.550,304.610 252.000,304.530 252.000 C 303.783 252.000,297.987 253.794,296.834 254.383 C 293.769 255.946,290.564 256.000,200.000 256.000 C 109.365 256.000,106.233 255.948,103.154 254.376 C 102.331 253.957,100.250 253.228,98.529 252.756 C 96.808 252.285,94.891 251.472,94.269 250.950 C 93.647 250.427,92.916 250.000,92.644 250.000 C 91.844 250.000,88.800 248.415,88.800 247.999 C 88.800 247.788,88.075 247.246,87.189 246.794 C 86.303 246.342,83.967 244.314,81.997 242.286 C 76.765 236.901,76.431 236.491,75.436 234.247 C 74.937 233.121,74.232 231.954,73.868 231.654 C 73.504 231.353,72.839 229.875,72.391 228.370 C 71.943 226.864,71.383 225.513,71.147 225.367 C 68.627 223.810,68.416 218.426,68.412 155.400 C 68.408 92.761,68.602 87.590,71.025 85.579 C 71.346 85.313,71.998 83.815,72.473 82.251 C 72.985 80.563,73.694 79.127,74.216 78.716 C 74.699 78.336,75.201 77.493,75.331 76.844 C 75.461 76.195,76.369 74.761,77.348 73.658 C 78.328 72.555,79.235 71.326,79.364 70.926 C 79.492 70.527,80.138 69.893,80.799 69.519 C 81.460 69.144,82.209 68.379,82.464 67.819 C 82.720 67.258,83.174 66.800,83.473 66.800 C 83.773 66.800,84.779 66.103,85.709 65.252 C 86.639 64.400,88.159 63.320,89.087 62.851 C 90.014 62.381,90.943 61.680,91.151 61.292 C 91.358 60.904,92.559 60.269,93.819 59.881 C 95.080 59.493,96.588 58.836,97.170 58.421 C 97.753 58.006,99.303 57.463,100.615 57.214 C 101.927 56.965,105.070 56.339,107.600 55.821 L 112.200 54.880 200.000 54.843 C 285.041 54.807,287.901 54.830,291.000 55.568 M197.200 87.582 C 195.550 87.762,193.300 88.280,192.200 88.733 C 189.810 89.717,190.660 89.868,193.436 88.953 C 197.226 87.703,208.969 87.706,214.066 88.958 C 218.506 90.048,221.100 90.340,218.000 89.400 C 212.457 87.720,211.544 87.569,206.000 87.415 C 202.810 87.326,198.850 87.401,197.200 87.582 M185.700 90.276 C 186.085 90.376,186.715 90.376,187.100 90.276 C 187.485 90.175,187.170 90.093,186.400 90.093 C 185.630 90.093,185.315 90.175,185.700 90.276 M221.981 90.455 C 223.181 90.654,224.779 91.180,225.532 91.625 C 227.139 92.573,227.744 92.375,226.244 91.392 C 225.038 90.602,222.691 90.004,221.000 90.056 C 220.257 90.079,220.631 90.231,221.981 90.455 M181.800 91.027 C 179.483 92.177,178.588 92.788,179.211 92.794 C 179.547 92.797,180.244 92.505,180.759 92.144 C 181.275 91.783,182.440 91.255,183.348 90.970 C 184.580 90.585,184.745 90.451,184.000 90.442 C 183.450 90.436,182.460 90.699,181.800 91.027 M227.600 92.525 C 227.600 92.641,228.506 93.036,229.612 93.404 C 230.719 93.772,232.114 94.482,232.712 94.982 C 233.311 95.482,234.532 96.262,235.427 96.716 C 236.321 97.170,237.293 97.830,237.585 98.181 C 238.374 99.133,241.600 101.232,241.600 100.795 C 241.600 100.587,240.886 100.052,240.013 99.607 C 239.141 99.162,238.228 98.426,237.985 97.972 C 237.742 97.519,236.772 96.817,235.829 96.412 C 234.885 96.008,233.659 95.222,233.103 94.666 C 232.547 94.110,231.340 93.453,230.421 93.206 C 229.502 92.958,228.491 92.656,228.175 92.535 C 227.859 92.414,227.600 92.409,227.600 92.525 M176.187 93.225 C 174.880 93.605,173.001 95.134,173.378 95.511 C 173.505 95.638,173.831 95.439,174.104 95.068 C 174.377 94.698,175.500 94.044,176.600 93.616 C 178.637 92.823,178.386 92.585,176.187 93.225 M170.549 96.391 C 169.640 96.795,168.650 97.476,168.349 97.903 C 168.047 98.331,167.170 99.003,166.400 99.397 C 165.630 99.790,164.640 100.427,164.200 100.811 C 162.211 102.547,155.944 108.957,155.592 109.616 C 154.875 110.954,155.191 111.020,155.996 109.700 C 156.432 108.985,156.974 108.400,157.200 108.400 C 157.426 108.400,157.924 107.895,158.306 107.277 C 158.688 106.660,160.080 105.206,161.400 104.046 C 162.720 102.886,164.380 101.411,165.089 100.769 C 165.798 100.126,166.557 99.600,166.775 99.600 C 166.994 99.600,167.763 99.085,168.486 98.455 C 169.209 97.825,170.520 96.933,171.400 96.473 C 173.368 95.443,172.801 95.389,170.549 96.391 M243.903 103.915 C 245.115 105.172,246.799 107.132,247.645 108.271 C 248.490 109.410,249.352 110.447,249.561 110.576 C 249.769 110.704,250.228 111.681,250.582 112.747 C 250.936 113.813,251.677 115.109,252.229 115.627 C 252.780 116.145,253.427 117.347,253.667 118.300 C 253.907 119.252,254.181 119.952,254.278 119.856 C 254.686 119.447,253.478 116.287,252.458 115.095 C 251.848 114.383,251.030 112.945,250.641 111.899 C 250.252 110.854,249.617 109.774,249.230 109.499 C 248.844 109.225,248.046 108.235,247.459 107.300 C 246.871 106.365,246.206 105.600,245.981 105.600 C 245.757 105.600,245.197 104.963,244.738 104.185 C 244.279 103.407,243.407 102.514,242.801 102.200 C 241.987 101.779,242.275 102.228,243.903 103.915 M154.088 111.469 C 153.806 111.582,153.151 112.513,152.631 113.537 C 152.112 114.562,151.314 115.737,150.858 116.148 C 150.050 116.879,148.946 119.479,149.296 119.829 C 149.393 119.926,149.682 119.303,149.940 118.444 C 150.197 117.585,150.668 116.783,150.987 116.660 C 151.306 116.538,152.021 115.542,152.576 114.447 C 153.131 113.352,153.989 112.173,154.482 111.828 C 155.346 111.222,155.149 111.043,154.088 111.469 M199.282 116.296 C 200.758 116.373,203.278 116.373,204.882 116.297 C 206.487 116.221,205.280 116.158,202.200 116.158 C 199.120 116.157,197.807 116.219,199.282 116.296 M191.663 118.000 C 190.972 118.660,190.160 119.200,189.858 119.200 C 189.235 119.200,184.800 123.265,184.800 123.836 C 184.800 124.041,184.343 124.701,183.784 125.304 C 183.225 125.907,182.942 126.400,183.155 126.400 C 183.675 126.400,185.200 124.428,185.200 123.756 C 185.200 123.462,185.748 122.937,186.417 122.591 C 187.087 122.245,187.832 121.529,188.072 121.001 C 188.313 120.472,189.004 119.868,189.606 119.658 C 191.067 119.149,194.283 116.800,193.519 116.800 C 193.189 116.800,192.354 117.340,191.663 118.000 M211.073 117.754 C 211.696 118.279,212.866 118.984,213.671 119.320 C 214.477 119.657,215.359 120.353,215.631 120.866 C 215.904 121.380,216.461 122.037,216.869 122.327 C 217.278 122.616,217.877 123.488,218.200 124.263 C 218.812 125.726,220.800 128.344,220.800 127.686 C 220.800 127.479,220.260 126.631,219.600 125.800 C 218.940 124.969,218.397 124.090,218.394 123.845 C 218.385 123.151,214.189 118.800,213.529 118.800 C 213.205 118.800,212.517 118.350,212.000 117.800 C 211.483 117.250,210.808 116.800,210.500 116.800 C 210.178 116.800,210.423 117.208,211.073 117.754 M148.117 121.352 C 147.226 122.207,145.989 125.147,146.013 126.350 C 146.020 126.708,146.355 126.049,146.756 124.886 C 147.158 123.724,147.903 122.329,148.411 121.788 C 149.564 120.561,149.319 120.198,148.117 121.352 M254.400 120.567 C 254.400 120.713,254.782 121.349,255.249 121.981 C 255.717 122.613,256.345 124.091,256.646 125.265 L 257.192 127.400 256.957 125.405 C 256.680 123.046,254.400 118.734,254.400 120.567 M181.788 129.241 C 181.380 130.586,180.746 132.072,180.379 132.543 C 180.011 133.014,179.579 133.850,179.418 134.400 C 179.172 135.243,179.287 135.180,180.150 134.000 C 181.112 132.684,183.050 127.317,182.692 126.959 C 182.602 126.869,182.195 127.895,181.788 129.241 M144.838 128.626 C 143.869 130.041,142.788 133.821,142.844 135.600 C 142.861 136.150,143.120 135.371,143.418 133.868 C 143.717 132.366,144.436 130.327,145.016 129.337 C 146.283 127.174,146.163 126.693,144.838 128.626 M221.293 130.800 C 221.293 131.570,221.375 131.885,221.476 131.500 C 221.576 131.115,221.576 130.485,221.476 130.100 C 221.375 129.715,221.293 130.030,221.293 130.800 M257.634 129.837 C 257.615 130.078,257.974 131.338,258.430 132.637 C 258.887 133.937,259.402 136.620,259.573 138.600 C 259.883 142.168,259.887 142.177,259.943 139.555 C 260.020 135.980,257.861 126.893,257.634 129.837 M221.777 134.193 C 221.887 135.701,221.731 136.454,221.134 137.293 L 220.346 138.400 201.473 138.396 C 181.599 138.391,179.600 138.289,179.600 137.281 C 179.600 136.943,179.501 136.765,179.381 136.886 C 179.260 137.007,179.279 137.577,179.424 138.153 L 179.687 139.200 200.211 139.200 L 220.735 139.200 221.598 137.803 C 222.370 136.554,222.418 136.182,222.047 134.303 L 221.632 132.200 221.777 134.193 M141.582 139.845 C 140.833 141.812,140.398 144.793,140.456 147.555 L 140.512 150.200 140.826 146.650 C 140.999 144.697,141.434 142.202,141.793 141.106 C 142.492 138.970,142.316 137.918,141.582 139.845 M260.168 151.000 C 260.168 155.400,260.226 157.255,260.298 155.121 C 260.370 152.988,260.370 149.388,260.299 147.121 C 260.227 144.855,260.168 146.600,260.168 151.000 M140.155 155.400 C 140.156 158.260,140.220 159.378,140.297 157.883 C 140.374 156.389,140.374 154.049,140.296 152.683 C 140.218 151.318,140.155 152.540,140.155 155.400 M259.676 162.230 C 259.599 164.683,258.932 165.845,257.200 166.539 C 256.862 166.674,257.018 166.740,257.560 166.690 C 259.215 166.535,260.066 164.893,259.898 162.175 L 259.751 159.800 259.676 162.230 M140.472 163.921 C 140.399 166.877,141.353 172.200,142.031 172.619 C 142.234 172.745,142.400 172.487,142.400 172.047 C 142.400 171.607,142.246 171.152,142.059 171.036 C 141.675 170.799,140.851 166.044,140.666 163.000 C 140.576 161.524,140.525 161.765,140.472 163.921 M179.377 168.611 C 179.145 170.161,179.254 170.636,180.134 171.911 C 180.700 172.730,181.462 174.120,181.827 175.000 C 182.506 176.635,185.200 179.959,185.200 179.162 C 185.200 178.919,184.666 178.222,184.014 177.613 C 183.362 177.004,182.458 175.516,182.006 174.307 C 181.553 173.098,180.827 171.786,180.392 171.392 C 179.495 170.581,179.355 168.885,180.100 167.876 C 180.563 167.250,183.404 167.192,218.000 167.098 L 255.400 166.996 217.525 166.898 L 179.649 166.800 179.377 168.611 M142.487 173.800 C 142.491 174.240,142.632 175.140,142.800 175.800 C 143.074 176.878,143.106 176.898,143.113 176.000 C 143.117 175.450,142.976 174.550,142.800 174.000 C 142.549 173.216,142.481 173.173,142.487 173.800 M143.236 178.200 C 143.215 179.599,144.568 182.800,145.180 182.800 C 145.781 182.800,145.699 182.373,144.938 181.532 C 144.574 181.130,144.046 179.945,143.765 178.900 C 143.342 177.328,143.251 177.207,143.236 178.200 M187.113 181.204 C 187.836 181.644,188.530 182.274,188.656 182.602 C 188.782 182.931,189.050 183.200,189.252 183.200 C 189.911 183.200,188.414 181.335,187.376 180.862 C 185.799 180.143,185.664 180.320,187.113 181.204 M192.252 184.361 C 193.600 184.998,194.826 185.718,194.975 185.960 C 195.125 186.202,195.520 186.400,195.854 186.400 C 196.842 186.400,194.408 184.627,192.387 183.875 C 189.597 182.837,189.531 183.073,192.252 184.361 M243.340 184.233 C 241.301 184.758,238.113 186.396,239.125 186.399 C 239.413 186.399,240.626 185.938,241.820 185.373 C 246.969 182.937,249.196 185.007,250.186 193.152 C 250.470 195.489,250.724 196.860,250.750 196.200 C 251.093 187.554,248.253 182.968,243.340 184.233 M146.021 184.640 C 145.977 185.565,146.946 187.842,147.791 188.800 C 148.276 189.350,148.905 190.391,149.190 191.113 C 149.475 191.835,149.778 192.355,149.864 192.269 C 150.138 191.996,148.445 188.400,148.042 188.400 C 147.830 188.400,147.293 187.455,146.849 186.300 C 146.405 185.145,146.032 184.398,146.021 184.640 M197.400 186.790 C 198.164 187.128,200.714 187.357,200.367 187.056 C 200.275 186.976,199.390 186.804,198.400 186.673 C 197.198 186.514,196.866 186.553,197.400 186.790 M233.305 187.087 C 233.914 187.179,234.814 187.177,235.305 187.082 C 235.797 186.987,235.300 186.911,234.200 186.914 C 233.100 186.917,232.697 186.995,233.305 187.087 M205.200 188.208 C 211.025 189.404,216.655 189.466,223.948 188.413 C 226.947 187.981,230.030 187.560,230.800 187.477 C 232.196 187.328,232.196 187.328,230.600 187.265 C 229.720 187.230,226.480 187.469,223.400 187.796 C 216.326 188.548,211.183 188.548,206.600 187.795 C 201.015 186.877,200.071 187.156,205.200 188.208 M150.000 193.121 C 150.000 193.374,150.437 193.868,150.970 194.217 C 151.504 194.567,152.118 195.364,152.336 195.990 C 152.554 196.615,153.288 197.537,153.966 198.038 C 154.645 198.540,155.200 199.174,155.200 199.446 C 155.200 199.719,155.695 200.313,156.300 200.767 C 156.905 201.220,157.625 201.780,157.900 202.011 C 159.288 203.178,158.100 201.703,155.836 199.450 C 154.426 198.047,153.003 196.382,152.674 195.749 C 151.968 194.392,150.000 192.458,150.000 193.121 M251.024 199.483 C 251.134 200.629,251.685 202.789,252.249 204.283 C 254.060 209.076,253.232 211.837,249.631 213.015 C 248.196 213.485,248.091 213.570,249.142 213.409 C 252.351 212.917,253.584 211.522,253.594 208.373 C 253.600 206.559,252.626 202.578,251.983 201.788 C 251.799 201.561,251.463 200.481,251.237 199.388 L 250.825 197.400 251.024 199.483 M158.962 203.556 C 159.381 204.020,159.945 204.400,160.216 204.400 C 160.487 204.400,161.013 204.865,161.385 205.433 C 161.758 206.002,162.637 206.707,163.339 207.000 C 164.042 207.294,164.973 207.935,165.408 208.425 C 166.231 209.351,169.521 211.012,169.860 210.673 C 169.967 210.567,169.457 210.279,168.727 210.033 C 167.997 209.787,166.682 208.959,165.804 208.193 C 164.927 207.427,163.997 206.800,163.738 206.800 C 163.480 206.800,162.758 206.254,162.134 205.588 C 161.510 204.921,160.370 204.001,159.600 203.543 L 158.200 202.712 158.962 203.556 M170.400 211.162 C 170.400 211.810,172.043 212.738,174.432 213.439 C 175.624 213.789,176.960 214.393,177.400 214.782 C 178.437 215.699,180.592 216.412,182.160 216.356 C 183.228 216.318,183.158 216.265,181.659 215.970 C 180.701 215.782,179.171 215.196,178.259 214.668 C 177.346 214.141,175.665 213.404,174.523 213.030 C 173.380 212.656,171.985 211.989,171.423 211.546 C 170.860 211.104,170.400 210.931,170.400 211.162 M244.713 214.601 C 243.679 215.151,241.881 215.775,240.717 215.987 L 238.600 216.373 240.986 216.173 C 242.298 216.063,243.828 215.733,244.386 215.441 C 247.194 213.968,247.750 213.605,247.197 213.602 C 246.865 213.601,245.748 214.050,244.713 214.601 M236.500 216.676 C 236.885 216.776,237.515 216.776,237.900 216.676 C 238.285 216.575,237.970 216.493,237.200 216.493 C 236.430 216.493,236.115 216.575,236.500 216.676 M188.345 217.880 C 190.009 218.667,191.267 218.923,193.945 219.024 L 197.400 219.154 194.600 218.821 C 193.060 218.638,190.726 218.109,189.414 217.644 C 186.223 216.515,185.700 216.631,188.345 217.880 M230.400 217.641 C 228.970 218.070,226.180 218.571,224.200 218.755 L 220.600 219.090 223.600 219.138 C 226.787 219.189,230.890 218.467,233.200 217.449 C 235.186 216.573,233.597 216.682,230.400 217.641 M203.324 219.499 C 206.583 219.567,211.803 219.566,214.924 219.499 C 218.046 219.431,215.380 219.376,209.000 219.377 C 202.620 219.377,200.066 219.432,203.324 219.499 M249.200 285.046 C 242.342 285.821,238.197 286.885,237.585 288.029 C 237.347 288.474,237.200 302.594,237.200 325.104 L 237.200 361.461 238.101 362.307 C 240.457 364.520,261.280 364.775,274.200 362.749 C 276.753 362.348,279.135 361.456,283.927 359.107 C 286.019 358.081,291.050 353.507,291.433 352.282 C 291.585 351.797,292.130 350.897,292.644 350.282 C 295.422 346.959,295.397 334.259,292.607 331.038 C 292.053 330.399,291.600 329.640,291.600 329.352 C 291.600 328.565,288.024 325.251,286.200 324.346 C 284.700 323.603,283.069 321.970,282.599 320.740 C 282.469 320.399,283.073 319.839,284.239 319.222 C 293.359 314.390,295.165 300.846,287.691 293.338 C 281.549 287.169,274.849 285.133,260.200 284.985 C 254.920 284.932,249.970 284.959,249.200 285.046 M103.913 286.300 C 102.603 287.802,102.400 288.828,102.400 293.945 C 102.400 301.356,102.334 301.309,112.745 301.193 C 116.845 301.147,120.428 301.130,120.706 301.155 C 122.782 301.340,122.797 301.565,122.799 332.706 L 122.800 361.612 124.100 362.404 C 125.270 363.118,126.128 363.197,132.671 363.199 L 139.942 363.200 140.784 362.130 C 141.623 361.063,141.625 360.971,141.584 331.673 C 141.550 307.313,141.637 302.192,142.090 301.739 C 142.514 301.314,144.677 301.170,151.753 301.096 L 160.870 301.000 161.835 299.878 C 164.255 297.064,162.941 286.810,160.058 286.009 C 157.159 285.204,104.632 285.476,103.913 286.300 M181.503 286.659 C 179.686 287.951,178.627 290.051,177.800 294.000 C 177.455 295.650,176.804 297.709,176.353 298.576 C 175.902 299.443,175.268 301.693,174.945 303.576 C 174.621 305.459,173.911 307.862,173.366 308.916 C 172.821 309.970,172.090 312.220,171.741 313.916 C 171.392 315.612,170.758 317.686,170.332 318.525 C 169.906 319.364,169.122 321.794,168.589 323.925 C 168.057 326.056,167.276 328.700,166.855 329.800 C 166.434 330.900,165.775 333.240,165.391 335.000 C 165.006 336.760,164.288 339.010,163.793 340.000 C 163.299 340.990,162.598 343.240,162.235 345.000 C 161.873 346.760,161.216 348.891,160.776 349.735 C 160.337 350.579,159.620 352.829,159.185 354.735 C 158.750 356.641,158.088 358.897,157.714 359.749 L 157.034 361.299 158.139 362.249 C 159.594 363.500,173.793 363.749,174.998 362.545 C 176.152 361.391,177.899 357.087,178.386 354.200 C 179.006 350.516,181.158 344.851,182.134 344.328 C 183.102 343.810,201.586 343.890,202.218 344.415 C 202.467 344.621,202.899 345.828,203.177 347.095 C 203.456 348.363,204.019 350.030,204.429 350.800 C 204.839 351.570,205.617 354.039,206.158 356.286 C 207.828 363.220,207.960 363.294,218.333 363.125 C 227.366 362.977,228.584 362.525,227.051 359.888 C 226.116 358.279,225.703 356.899,225.174 353.612 C 224.944 352.189,224.402 350.451,223.969 349.750 C 223.536 349.049,222.853 346.974,222.451 345.138 C 222.049 343.302,221.262 340.810,220.702 339.600 C 220.142 338.390,219.374 335.960,218.996 334.200 C 218.618 332.440,218.042 330.480,217.716 329.845 C 217.390 329.210,216.692 326.912,216.166 324.738 C 215.639 322.564,214.852 320.087,214.417 319.232 C 213.981 318.378,213.263 316.025,212.822 314.002 C 212.380 311.980,211.656 309.738,211.213 309.021 C 210.769 308.303,210.115 306.295,209.759 304.558 C 209.403 302.821,208.699 300.410,208.195 299.200 C 207.690 297.990,207.050 295.830,206.774 294.400 C 206.077 290.802,205.134 288.763,203.377 287.057 L 201.877 285.600 192.434 285.600 L 182.990 285.600 181.503 286.659 M271.600 287.591 C 277.452 288.309,279.761 288.947,280.728 290.112 C 281.018 290.462,281.798 290.868,282.462 291.014 C 284.783 291.523,289.825 297.269,290.279 299.921 C 291.814 308.898,289.244 315.349,282.925 318.377 C 279.353 320.090,280.126 323.011,284.690 325.048 C 287.085 326.117,289.561 328.364,290.588 330.400 C 290.976 331.170,291.637 332.177,292.057 332.637 C 294.283 335.077,293.793 346.788,291.342 349.731 C 290.824 350.353,290.400 351.067,290.400 351.319 C 290.400 351.934,285.953 356.400,285.342 356.400 C 285.076 356.400,284.530 356.817,284.129 357.327 C 283.697 357.876,282.582 358.458,281.399 358.751 C 280.300 359.024,278.307 359.776,276.971 360.423 C 272.884 362.399,241.193 363.420,239.053 361.644 C 238.173 360.914,238.036 289.200,238.912 288.473 C 239.345 288.114,243.077 287.726,256.400 286.655 C 259.160 286.433,265.189 286.805,271.600 287.591 M159.660 288.010 C 161.464 288.511,161.426 288.365,161.277 294.237 L 161.155 299.073 159.147 299.537 C 157.993 299.803,153.839 300.000,149.379 300.000 L 141.618 300.000 140.909 301.083 C 140.248 302.092,140.196 304.163,140.134 331.666 C 140.098 347.891,139.952 361.354,139.811 361.583 C 139.420 362.215,126.340 362.139,125.480 361.500 C 124.862 361.041,124.799 358.598,124.704 331.465 L 124.600 301.931 123.478 300.965 C 122.366 300.009,122.272 300.000,113.709 300.000 C 102.895 300.000,103.600 300.423,103.600 293.933 C 103.600 286.776,99.985 287.600,131.396 287.602 C 148.277 287.604,158.741 287.755,159.660 288.010 M202.491 288.300 C 202.829 288.685,203.222 289.384,203.365 289.852 C 203.507 290.321,203.961 291.094,204.373 291.569 C 204.824 292.089,205.393 293.901,205.798 296.109 C 206.170 298.130,206.891 300.507,207.402 301.392 C 207.921 302.292,208.527 304.322,208.778 306.000 C 209.025 307.650,209.741 310.080,210.370 311.400 C 210.998 312.720,211.797 315.188,212.144 316.884 C 212.492 318.580,213.222 320.830,213.767 321.884 C 214.312 322.938,214.968 325.060,215.224 326.600 C 215.480 328.140,216.190 330.570,216.800 332.000 C 217.410 333.430,218.121 335.846,218.379 337.369 C 218.637 338.893,219.284 340.884,219.818 341.795 C 220.352 342.705,221.074 344.969,221.423 346.825 C 221.771 348.681,222.493 350.951,223.027 351.869 C 224.524 354.444,225.713 361.111,224.766 361.618 C 223.675 362.202,210.734 362.084,210.000 361.484 C 208.853 360.546,207.591 357.379,206.988 353.922 C 206.620 351.813,205.913 349.554,205.190 348.182 C 204.536 346.937,204.000 345.608,204.000 345.229 C 204.000 342.963,202.601 342.610,193.085 342.471 C 179.845 342.279,178.842 342.857,177.606 351.400 C 177.352 353.160,176.733 355.410,176.232 356.400 C 175.731 357.390,175.202 358.813,175.058 359.562 C 174.591 361.984,174.540 362.000,167.227 362.000 C 158.612 362.000,158.927 362.214,159.981 357.092 C 160.432 354.900,161.140 352.708,161.596 352.091 C 162.057 351.467,162.678 349.527,163.035 347.597 C 163.380 345.728,164.172 343.120,164.795 341.800 C 165.418 340.480,166.146 338.064,166.412 336.431 C 166.678 334.799,167.319 332.666,167.837 331.692 C 168.355 330.718,168.884 329.264,169.013 328.461 C 169.572 324.987,170.168 322.896,171.026 321.400 C 171.530 320.520,172.222 318.317,172.562 316.505 C 172.903 314.693,173.614 312.353,174.143 311.305 C 174.671 310.257,175.230 308.410,175.384 307.200 C 175.793 303.988,176.362 302.020,177.224 300.842 C 177.643 300.269,178.341 298.023,178.775 295.851 C 179.209 293.680,179.842 291.596,180.182 291.220 C 180.522 290.844,180.800 290.318,180.800 290.049 C 180.800 289.781,181.276 289.120,181.858 288.581 L 182.917 287.600 192.396 287.600 C 200.924 287.600,201.938 287.670,202.491 288.300 M255.327 298.926 L 253.501 300.651 253.570 307.626 C 253.650 315.582,253.815 316.102,256.499 316.831 C 258.364 317.338,264.752 317.059,268.197 316.321 C 273.912 315.095,277.771 306.135,274.145 302.508 C 273.635 301.999,273.036 301.241,272.812 300.823 C 272.589 300.406,271.731 299.841,270.905 299.569 C 270.079 299.296,268.611 298.652,267.642 298.137 C 266.105 297.319,265.325 297.200,261.517 297.200 L 257.153 297.200 255.327 298.926 M267.524 299.869 C 270.169 300.381,270.985 300.709,271.524 301.481 C 271.896 302.014,272.582 302.934,273.049 303.525 C 275.689 306.866,273.258 312.604,268.267 314.811 C 265.365 316.095,258.121 316.350,256.700 315.218 L 255.600 314.342 255.600 307.752 C 255.600 298.418,256.602 297.756,267.524 299.869 M191.104 301.892 C 189.481 303.585,188.028 307.582,187.160 312.738 C 186.701 315.466,186.060 317.856,185.579 318.634 C 183.638 321.775,182.922 329.880,184.489 330.977 C 185.732 331.848,198.245 331.894,199.424 331.032 C 200.696 330.102,200.525 325.170,199.138 322.800 C 198.541 321.780,197.886 319.787,197.626 318.200 C 197.067 314.783,196.473 312.800,195.762 311.983 C 195.467 311.643,195.015 310.023,194.757 308.383 C 194.072 304.027,193.673 302.579,192.892 301.614 L 192.195 300.753 191.104 301.892 M193.622 309.020 C 194.035 311.310,194.732 313.972,195.171 314.935 C 195.609 315.899,196.326 318.327,196.764 320.332 C 197.202 322.337,197.942 324.495,198.410 325.127 C 199.085 326.040,199.202 326.583,198.980 327.767 C 198.601 329.786,197.858 330.000,191.222 330.000 L 185.697 330.000 185.196 328.789 C 184.546 327.221,184.891 324.776,186.156 321.993 C 186.704 320.787,187.511 317.994,187.950 315.787 C 188.618 312.427,189.378 310.166,191.895 304.056 C 192.294 303.087,192.829 304.623,193.622 309.020 M255.726 328.626 C 253.811 329.601,253.600 330.769,253.600 340.398 C 253.600 348.222,253.670 349.140,254.315 349.723 C 257.644 352.736,269.301 351.846,273.257 348.276 C 275.962 345.834,278.212 340.024,277.121 338.297 C 276.810 337.804,276.332 336.632,276.059 335.693 C 275.387 333.378,273.548 331.396,271.281 330.546 C 270.247 330.158,268.890 329.472,268.267 329.020 C 266.703 327.888,257.729 327.605,255.726 328.626 M267.800 330.721 C 272.458 332.117,275.151 334.480,275.277 337.281 C 275.501 342.277,274.821 345.756,273.486 346.442 C 272.999 346.693,272.147 347.319,271.594 347.833 C 269.277 349.990,258.252 351.076,256.331 349.338 C 254.568 347.742,255.439 330.857,257.356 329.481 C 258.153 328.909,264.118 329.617,267.800 330.721 " stroke="none" fill="#72ccf4" fill-rule="evenodd"></path><path id="path4" d="M108.000 52.670 C 105.623 52.911,103.031 53.632,102.358 54.239 C 102.005 54.558,100.442 55.084,98.885 55.409 C 95.261 56.165,94.037 56.639,93.745 57.400 C 93.616 57.736,92.711 58.212,91.735 58.458 C 90.759 58.704,89.117 59.601,88.087 60.453 C 87.057 61.304,86.031 61.999,85.807 61.997 C 85.583 61.996,84.770 62.628,84.000 63.402 C 83.230 64.176,81.389 66.023,79.909 67.505 C 75.738 71.682,75.371 72.105,74.605 73.600 C 74.211 74.370,73.390 75.573,72.781 76.272 C 72.171 76.972,71.381 78.547,71.025 79.772 C 70.669 80.998,70.219 82.000,70.025 82.000 C 69.381 82.000,68.080 85.364,67.804 87.743 C 67.654 89.032,67.052 91.282,66.466 92.743 L 65.400 95.400 65.400 155.400 L 65.400 215.400 66.466 218.057 C 67.052 219.518,67.657 221.768,67.809 223.057 C 68.108 225.580,69.308 228.800,69.949 228.800 C 70.166 228.800,70.640 229.821,71.003 231.069 C 71.405 232.452,72.110 233.756,72.811 234.410 C 73.443 235.001,74.256 236.223,74.617 237.127 C 74.979 238.030,75.618 238.879,76.037 239.012 C 76.457 239.145,76.800 239.539,76.800 239.887 C 76.800 240.731,84.265 247.951,85.444 248.247 C 85.954 248.375,86.476 248.810,86.604 249.214 C 86.733 249.618,87.637 250.254,88.615 250.627 C 89.592 251.000,90.914 251.805,91.553 252.416 C 92.307 253.135,93.495 253.688,94.933 253.986 C 96.153 254.239,97.567 254.769,98.076 255.164 C 101.734 258.002,100.788 257.975,200.000 257.985 C 294.901 257.994,297.826 257.928,301.093 255.711 C 301.914 255.154,303.728 254.381,305.124 253.994 C 306.520 253.607,308.143 252.841,308.731 252.292 C 309.319 251.743,310.655 250.923,311.700 250.469 C 312.745 250.016,313.600 249.446,313.600 249.203 C 313.600 248.960,314.095 248.545,314.700 248.281 C 316.072 247.681,323.200 240.857,323.200 240.143 C 323.200 239.855,323.641 239.330,324.180 238.976 C 324.719 238.623,325.365 237.714,325.615 236.955 C 325.865 236.196,326.614 235.067,327.279 234.445 C 328.062 233.713,328.682 232.563,329.043 231.175 C 329.348 229.997,329.866 228.883,330.194 228.699 C 331.172 228.152,331.639 226.914,332.400 222.854 C 332.797 220.734,333.455 218.190,333.861 217.200 C 334.566 215.483,334.605 212.731,334.712 157.200 C 334.825 98.532,334.758 95.177,333.407 92.230 C 333.097 91.553,332.583 89.449,332.265 87.552 C 331.736 84.397,330.761 82.000,330.007 82.000 C 329.841 82.000,329.410 80.946,329.048 79.658 C 328.687 78.370,328.014 76.975,327.552 76.558 C 327.091 76.141,326.283 74.951,325.757 73.914 C 325.231 72.877,324.441 71.836,324.000 71.600 C 323.559 71.364,322.945 70.565,322.636 69.824 C 322.326 69.083,321.701 68.359,321.247 68.215 C 320.793 68.071,320.042 67.421,319.579 66.770 C 319.116 66.120,318.224 65.323,317.597 64.998 C 316.970 64.674,316.341 64.044,316.199 63.598 C 316.058 63.152,315.190 62.406,314.271 61.941 C 313.352 61.476,312.455 60.848,312.279 60.545 C 311.882 59.867,309.073 58.400,308.169 58.400 C 307.804 58.400,306.915 57.882,306.194 57.248 C 305.234 56.405,304.155 55.970,302.172 55.624 C 300.681 55.365,298.709 54.712,297.789 54.173 C 296.744 53.560,295.008 53.049,293.159 52.809 C 290.426 52.454,111.451 52.320,108.000 52.670 M294.400 54.267 C 295.830 54.743,298.440 55.519,300.200 55.990 C 301.960 56.461,303.799 57.106,304.287 57.424 C 304.775 57.742,306.110 58.370,307.253 58.821 C 308.397 59.272,309.867 60.090,310.520 60.639 C 311.173 61.189,312.358 61.977,313.153 62.391 C 316.009 63.876,324.300 72.599,325.588 75.472 C 325.965 76.312,326.565 77.241,326.922 77.536 C 327.278 77.831,327.943 79.070,328.399 80.290 C 328.855 81.509,329.654 83.247,330.174 84.153 C 330.778 85.204,331.568 88.061,332.360 92.051 L 333.600 98.302 333.600 155.526 C 333.600 204.237,333.513 213.126,333.017 215.275 C 332.696 216.664,332.237 219.150,331.997 220.800 C 331.731 222.633,331.040 224.890,330.222 226.600 C 329.485 228.140,328.566 230.166,328.179 231.102 C 327.793 232.039,327.206 233.029,326.875 233.302 C 326.544 233.576,325.982 234.449,325.627 235.242 C 324.579 237.578,315.850 247.200,314.778 247.200 C 314.572 247.200,313.727 247.802,312.901 248.538 C 312.076 249.273,310.802 250.079,310.070 250.327 C 309.339 250.576,308.206 251.228,307.554 251.778 C 306.901 252.327,305.109 253.150,303.572 253.608 C 302.034 254.066,300.196 254.783,299.487 255.201 C 296.405 257.020,297.507 257.000,200.000 257.000 C 102.213 257.000,103.720 257.028,100.509 255.180 C 99.799 254.772,98.089 254.088,96.709 253.661 C 95.329 253.234,93.237 252.236,92.060 251.442 C 90.883 250.649,89.685 250.000,89.398 250.000 C 87.480 250.000,76.226 239.020,74.878 235.834 C 74.591 235.155,73.928 234.150,73.406 233.600 C 72.883 233.050,72.054 231.520,71.563 230.200 C 71.073 228.880,70.340 227.350,69.935 226.800 C 69.530 226.250,68.622 223.190,67.917 220.000 L 66.634 214.200 66.505 158.223 C 66.424 123.156,66.524 100.817,66.772 98.423 C 67.366 92.686,69.032 85.223,70.016 83.893 C 70.480 83.265,71.209 81.736,71.636 80.495 C 72.063 79.254,72.751 77.870,73.164 77.419 C 73.578 76.969,74.250 75.966,74.658 75.192 C 75.674 73.265,77.741 70.758,80.600 67.985 C 81.920 66.704,83.563 65.110,84.252 64.443 C 84.940 63.776,86.200 62.829,87.052 62.339 C 87.903 61.848,89.088 61.049,89.684 60.563 C 90.281 60.076,91.631 59.355,92.684 58.960 C 93.738 58.564,95.050 57.926,95.600 57.542 C 96.150 57.157,98.318 56.393,100.417 55.843 C 102.517 55.293,104.767 54.637,105.417 54.386 C 108.030 53.375,115.136 53.299,201.800 53.348 L 291.800 53.400 294.400 54.267 M196.600 88.259 C 196.160 88.351,194.810 88.684,193.600 89.000 C 192.390 89.317,189.600 89.858,187.400 90.204 C 185.200 90.549,182.500 91.262,181.400 91.788 C 180.300 92.314,178.433 93.049,177.252 93.420 C 176.070 93.792,174.809 94.390,174.449 94.748 C 174.088 95.107,172.996 95.758,172.021 96.195 C 171.046 96.632,169.546 97.577,168.686 98.295 C 167.827 99.013,166.956 99.600,166.751 99.600 C 166.546 99.600,165.798 100.126,165.089 100.769 C 164.380 101.411,162.720 102.882,161.400 104.037 C 160.080 105.192,158.772 106.551,158.492 107.058 C 158.213 107.565,157.630 108.170,157.197 108.402 C 156.763 108.634,156.110 109.403,155.745 110.112 C 155.380 110.820,154.744 111.638,154.333 111.928 C 153.922 112.218,153.131 113.352,152.576 114.447 C 152.021 115.542,151.314 116.535,151.004 116.654 C 150.695 116.773,150.135 117.799,149.762 118.935 C 149.388 120.071,148.660 121.507,148.145 122.127 C 147.629 122.746,146.913 124.276,146.553 125.527 C 146.193 126.777,145.474 128.531,144.955 129.425 C 144.436 130.319,143.572 133.109,143.034 135.625 C 142.496 138.141,141.754 141.370,141.384 142.800 C 140.031 148.041,140.466 167.648,142.010 171.000 C 142.213 171.440,142.746 173.690,143.196 176.000 C 143.645 178.310,144.341 180.650,144.742 181.200 C 145.143 181.750,145.878 183.425,146.376 184.921 C 146.873 186.418,147.606 187.948,148.005 188.321 C 148.404 188.695,149.046 189.810,149.433 190.800 C 149.820 191.790,150.735 193.276,151.468 194.101 C 152.201 194.927,152.800 195.776,152.800 195.987 C 152.800 196.199,154.060 197.645,155.600 199.200 C 157.140 200.755,158.400 202.199,158.400 202.409 C 158.400 202.619,159.075 203.230,159.900 203.769 C 160.725 204.307,161.824 205.209,162.342 205.774 C 162.860 206.338,163.490 206.800,163.742 206.801 C 163.994 206.801,164.830 207.356,165.600 208.034 C 166.370 208.711,167.784 209.612,168.741 210.036 C 169.699 210.460,170.924 211.154,171.464 211.579 C 172.004 212.003,173.380 212.656,174.523 213.030 C 175.665 213.404,177.332 214.132,178.226 214.649 C 179.121 215.166,181.461 215.884,183.426 216.243 C 185.392 216.603,188.080 217.251,189.400 217.683 C 195.651 219.731,223.265 219.813,229.819 217.803 C 230.908 217.469,234.302 216.838,237.360 216.402 C 241.053 215.875,243.379 215.337,244.287 214.802 C 245.038 214.358,246.833 213.699,248.275 213.337 C 253.143 212.114,254.264 209.625,252.298 204.400 C 251.147 201.342,251.003 200.612,250.231 193.928 C 249.196 184.971,247.143 182.855,241.895 185.338 C 239.657 186.396,236.825 186.989,232.000 187.410 C 230.350 187.553,226.660 188.014,223.800 188.433 C 216.609 189.486,211.482 189.423,204.837 188.198 C 196.932 186.740,195.632 186.398,194.125 185.375 C 193.378 184.868,191.920 184.133,190.884 183.740 C 189.848 183.348,188.691 182.640,188.314 182.168 C 187.936 181.695,187.081 181.082,186.414 180.806 C 185.746 180.529,185.200 180.145,185.200 179.953 C 185.200 179.760,184.591 178.927,183.846 178.101 C 183.101 177.276,182.193 175.880,181.827 175.000 C 181.462 174.120,180.700 172.730,180.134 171.911 C 179.255 170.637,179.145 170.160,179.377 168.616 L 179.647 166.812 218.615 166.706 L 257.582 166.600 258.640 165.542 L 259.698 164.484 259.893 154.742 C 260.115 143.604,259.619 136.074,258.442 132.693 C 258.000 131.424,257.332 128.843,256.957 126.958 C 256.566 124.989,255.882 122.948,255.349 122.163 C 254.839 121.411,254.141 119.833,253.799 118.657 C 253.457 117.481,252.739 116.106,252.202 115.602 C 251.665 115.098,250.936 113.813,250.582 112.747 C 250.228 111.681,249.769 110.704,249.561 110.576 C 249.352 110.447,248.493 109.410,247.650 108.271 C 244.660 104.230,237.948 97.989,234.973 96.482 C 234.079 96.029,233.120 95.386,232.844 95.053 C 232.568 94.720,231.050 93.954,229.471 93.351 C 227.892 92.748,226.060 91.938,225.400 91.551 C 224.740 91.164,222.490 90.572,220.400 90.236 C 218.310 89.900,215.176 89.259,213.436 88.812 C 210.444 88.044,199.383 87.681,196.600 88.259 M217.720 91.143 C 220.536 91.578,223.283 92.225,223.825 92.580 C 224.367 92.935,225.885 93.560,227.197 93.968 C 228.509 94.377,230.532 95.336,231.691 96.101 C 232.851 96.866,234.385 97.791,235.100 98.156 C 235.815 98.522,236.400 98.955,236.400 99.119 C 236.400 99.283,237.210 99.859,238.200 100.400 C 239.190 100.941,240.000 101.482,240.000 101.603 C 240.000 101.724,241.277 103.168,242.839 104.812 C 244.400 106.455,246.169 108.520,246.770 109.400 C 247.371 110.280,248.344 111.700,248.932 112.556 C 249.519 113.412,250.000 114.422,250.000 114.801 C 250.000 115.181,250.424 115.920,250.941 116.445 C 251.459 116.970,252.294 118.660,252.796 120.200 C 253.299 121.740,254.116 123.720,254.612 124.600 C 255.108 125.480,255.806 127.829,256.162 129.820 C 256.519 131.811,257.169 134.691,257.607 136.220 C 258.556 139.537,259.050 152.123,258.524 159.600 L 258.200 164.200 256.800 164.899 C 255.497 165.550,252.778 165.599,217.431 165.599 C 174.150 165.600,177.995 165.253,178.007 169.162 C 178.011 170.834,178.263 171.805,179.000 173.000 C 179.543 173.880,180.359 175.367,180.814 176.304 C 181.269 177.242,182.063 178.285,182.579 178.623 C 183.095 178.961,183.600 179.557,183.702 179.947 C 183.903 180.716,188.308 184.233,189.761 184.785 C 190.252 184.972,191.515 185.671,192.570 186.340 C 193.624 187.009,195.764 187.846,197.326 188.201 C 198.887 188.557,201.253 189.221,202.583 189.677 C 207.188 191.258,224.072 191.094,230.400 189.406 C 231.610 189.083,234.580 188.532,237.000 188.181 C 239.527 187.815,242.296 187.138,243.504 186.592 L 245.608 185.641 246.237 186.601 C 247.860 189.078,249.209 194.430,249.999 201.530 C 250.228 203.582,250.681 205.898,251.006 206.676 C 252.176 209.477,250.785 211.373,246.938 212.219 C 245.212 212.598,243.080 213.230,242.200 213.622 C 234.481 217.064,204.701 219.076,193.800 216.893 C 191.380 216.409,187.951 215.760,186.180 215.452 C 184.409 215.145,182.102 214.502,181.055 214.025 C 180.007 213.548,177.878 212.727,176.325 212.201 C 174.771 211.676,173.118 210.902,172.650 210.481 C 172.183 210.061,170.743 209.288,169.451 208.765 C 168.160 208.241,167.013 207.578,166.903 207.291 C 166.793 207.005,166.140 206.480,165.452 206.124 C 162.736 204.723,155.310 197.558,153.263 194.365 C 152.899 193.796,152.015 192.456,151.300 191.387 C 150.585 190.318,150.000 189.153,150.000 188.797 C 150.000 188.442,149.627 187.751,149.171 187.261 C 148.716 186.772,147.931 185.160,147.427 183.678 C 146.923 182.197,146.129 180.237,145.663 179.324 C 145.175 178.367,144.383 175.149,143.796 171.731 C 143.235 168.469,142.575 165.080,142.330 164.200 C 141.594 161.553,141.716 149.487,142.513 146.200 C 142.886 144.660,143.565 141.153,144.021 138.406 C 144.488 135.599,145.174 132.884,145.589 132.206 C 145.995 131.543,146.733 129.650,147.228 128.000 C 147.723 126.350,148.519 124.460,148.997 123.800 C 149.475 123.140,150.084 121.832,150.351 120.893 C 150.618 119.955,151.369 118.580,152.019 117.839 C 152.670 117.098,153.478 115.833,153.814 115.028 C 154.150 114.224,154.682 113.467,154.996 113.346 C 155.310 113.226,156.008 112.379,156.547 111.464 C 157.086 110.549,159.209 108.215,161.264 106.278 C 163.319 104.340,165.540 102.225,166.200 101.578 C 166.860 100.930,167.612 100.400,167.870 100.400 C 168.128 100.400,168.877 99.947,169.534 99.394 C 170.192 98.841,171.718 97.936,172.925 97.383 C 174.133 96.830,175.342 96.111,175.613 95.784 C 175.884 95.458,177.387 94.807,178.953 94.338 C 180.519 93.869,182.610 93.089,183.600 92.605 C 184.862 91.988,187.134 91.520,191.200 91.038 C 194.390 90.660,197.360 90.284,197.800 90.203 C 199.948 89.804,213.063 90.423,217.720 91.143 M200.000 114.255 C 195.369 114.930,192.218 115.819,190.789 116.854 C 189.919 117.484,189.046 118.000,188.849 118.000 C 188.208 118.000,183.600 122.694,183.600 123.347 C 183.600 123.696,183.172 124.262,182.648 124.605 C 182.075 124.981,181.341 126.218,180.802 127.714 C 180.309 129.081,179.687 130.470,179.419 130.800 C 177.570 133.076,177.156 138.749,178.744 140.035 C 179.997 141.050,219.777 141.238,222.164 140.241 C 224.627 139.212,225.102 137.136,223.803 133.079 C 223.296 131.496,222.591 129.190,222.237 127.955 C 221.883 126.720,221.145 125.226,220.597 124.634 C 220.049 124.043,219.600 123.403,219.600 123.212 C 219.600 121.443,213.352 116.408,209.957 115.441 C 208.229 114.949,201.052 113.837,201.010 114.054 C 201.005 114.084,200.550 114.175,200.000 114.255 M208.869 116.467 C 210.041 116.723,211.450 117.333,212.000 117.822 C 212.550 118.310,213.372 118.822,213.827 118.959 C 214.694 119.220,218.400 123.259,218.400 123.943 C 218.400 124.160,218.845 124.867,219.389 125.514 C 221.642 128.192,222.970 135.583,221.597 137.805 L 220.735 139.200 200.216 139.200 L 179.697 139.200 179.282 137.564 C 178.841 135.827,179.217 133.976,180.257 132.768 C 180.557 132.420,181.239 130.851,181.773 129.281 C 182.307 127.711,183.206 125.927,183.772 125.317 C 184.337 124.707,184.800 124.041,184.800 123.836 C 184.800 123.257,189.239 119.200,189.872 119.200 C 190.183 119.200,190.923 118.710,191.518 118.111 C 193.422 116.196,203.340 115.256,208.869 116.467 M249.397 284.000 C 242.524 284.291,239.919 284.867,237.800 286.563 L 236.600 287.524 236.494 324.370 C 236.375 365.598,236.226 363.345,239.101 363.803 C 239.925 363.935,241.590 364.348,242.800 364.721 C 246.044 365.722,265.055 365.726,267.412 364.727 C 268.286 364.357,271.065 363.842,273.590 363.583 C 278.552 363.074,279.767 362.749,281.000 361.603 C 281.440 361.194,282.562 360.598,283.494 360.278 C 286.237 359.338,290.231 356.085,291.366 353.867 C 291.910 352.804,292.794 351.527,293.331 351.029 C 294.071 350.343,294.421 349.409,294.778 347.162 C 295.038 345.533,295.411 343.750,295.607 343.200 C 296.160 341.651,296.210 339.485,295.723 338.183 C 295.480 337.532,295.067 335.699,294.805 334.108 C 294.453 331.966,294.080 330.982,293.365 330.308 C 292.834 329.809,292.018 328.624,291.552 327.675 C 290.739 326.021,288.842 324.447,286.929 323.841 C 286.230 323.619,284.878 321.956,284.089 320.348 C 284.021 320.209,284.426 319.980,284.988 319.839 C 287.061 319.318,291.134 314.747,291.644 312.369 C 291.897 311.191,292.480 309.718,292.940 309.096 C 294.172 307.430,294.147 302.536,292.898 300.847 C 292.414 300.193,291.903 298.880,291.762 297.929 C 291.376 295.330,288.443 291.652,285.600 290.203 C 284.830 289.810,283.626 288.989,282.925 288.379 C 282.108 287.667,280.816 287.103,279.325 286.806 C 278.046 286.552,276.148 285.898,275.106 285.352 C 272.119 283.788,264.212 283.372,249.397 284.000 M103.260 285.336 C 101.942 286.739,101.600 288.498,101.600 293.879 C 101.600 302.192,101.973 302.474,112.843 302.374 L 120.520 302.303 121.046 303.251 C 121.466 304.010,121.574 309.923,121.586 332.726 C 121.601 363.473,121.529 362.477,123.819 363.434 C 126.264 364.455,140.064 364.234,141.038 363.158 C 141.771 362.349,141.804 361.202,141.896 333.458 C 141.949 317.586,141.994 304.313,141.996 303.963 C 142.003 302.845,144.757 302.400,151.674 302.400 C 162.909 302.400,163.602 301.907,163.598 293.913 C 163.595 288.801,163.154 286.718,161.785 285.349 L 160.836 284.400 132.488 284.400 L 104.139 284.400 103.260 285.336 M180.151 286.321 C 178.905 287.480,178.008 288.693,177.864 289.414 C 177.733 290.066,177.425 291.770,177.180 293.200 C 176.935 294.630,176.473 296.090,176.155 296.445 C 175.429 297.253,174.910 299.020,174.350 302.584 C 174.095 304.204,173.441 306.210,172.784 307.384 C 172.028 308.734,171.511 310.454,171.219 312.591 C 170.903 314.902,170.489 316.206,169.718 317.318 C 168.950 318.427,168.458 319.970,167.950 322.870 C 167.563 325.079,166.989 327.181,166.674 327.543 C 165.907 328.422,165.341 330.381,164.808 334.000 C 164.564 335.650,164.189 337.061,163.974 337.136 C 163.191 337.409,162.396 339.622,161.770 343.270 C 161.418 345.322,160.883 347.277,160.580 347.615 C 159.589 348.723,158.838 351.048,158.566 353.848 C 158.367 355.899,158.007 357.050,157.150 358.369 C 155.874 360.331,155.800 360.724,156.444 362.137 C 157.200 363.797,158.329 364.000,166.788 364.000 L 174.738 364.000 175.981 362.758 C 177.862 360.876,178.419 359.477,179.036 355.076 C 179.436 352.227,179.827 350.809,180.372 350.225 C 180.796 349.771,181.359 348.500,181.624 347.400 C 182.326 344.481,181.918 344.577,192.600 344.800 L 202.200 345.000 202.507 347.780 C 202.713 349.649,203.184 351.222,203.942 352.580 C 204.607 353.771,205.264 355.806,205.545 357.540 C 206.549 363.741,207.052 364.000,218.107 364.000 C 228.796 364.000,231.359 362.252,227.199 357.800 C 226.701 357.267,226.238 355.667,225.810 353.000 C 225.353 350.153,224.884 348.590,224.184 347.578 C 223.643 346.797,223.197 345.807,223.193 345.378 C 223.176 343.460,221.926 338.932,221.054 337.631 C 220.431 336.700,219.926 335.081,219.610 333.000 C 219.126 329.808,218.210 327.200,217.573 327.200 C 217.388 327.200,217.144 326.615,217.032 325.900 C 216.919 325.185,216.624 323.288,216.375 321.685 C 216.065 319.685,215.627 318.419,214.983 317.653 C 214.297 316.837,213.883 315.541,213.449 312.841 C 213.013 310.135,212.585 308.793,211.846 307.825 C 211.112 306.863,210.680 305.520,210.256 302.886 C 209.899 300.667,209.292 298.598,208.686 297.534 C 208.101 296.507,207.498 294.495,207.207 292.600 C 206.620 288.784,206.431 288.389,204.117 286.140 L 202.327 284.400 192.263 284.407 L 182.200 284.414 180.151 286.321 M275.055 286.482 C 287.985 289.924,293.898 297.702,291.820 308.534 C 290.839 313.644,288.474 316.978,284.239 319.222 C 283.073 319.839,282.469 320.399,282.599 320.740 C 283.069 321.970,284.700 323.603,286.200 324.346 C 288.024 325.251,291.600 328.565,291.600 329.352 C 291.600 329.640,292.053 330.399,292.607 331.038 C 295.397 334.259,295.422 346.959,292.644 350.282 C 292.130 350.897,291.585 351.797,291.433 352.282 C 291.050 353.507,286.019 358.081,283.927 359.107 C 279.135 361.456,276.753 362.348,274.200 362.749 C 261.280 364.775,240.457 364.520,238.101 362.307 L 237.200 361.461 237.200 325.104 C 237.200 302.594,237.347 288.474,237.585 288.029 C 238.197 286.885,242.342 285.821,249.200 285.046 C 255.647 284.319,269.904 285.110,275.055 286.482 M160.058 286.009 C 162.941 286.810,164.255 297.064,161.835 299.878 L 160.870 301.000 151.753 301.096 C 144.677 301.170,142.514 301.314,142.090 301.739 C 141.637 302.192,141.550 307.313,141.584 331.673 C 141.625 360.971,141.623 361.063,140.784 362.130 L 139.942 363.200 132.671 363.199 C 126.128 363.197,125.270 363.118,124.100 362.404 L 122.800 361.612 122.799 332.706 C 122.797 301.565,122.782 301.340,120.706 301.155 C 120.428 301.130,116.845 301.147,112.745 301.193 C 102.334 301.309,102.400 301.356,102.400 293.945 C 102.400 288.828,102.603 287.802,103.913 286.300 C 104.632 285.476,157.159 285.204,160.058 286.009 M203.377 287.057 C 205.134 288.763,206.077 290.802,206.774 294.400 C 207.050 295.830,207.690 297.990,208.195 299.200 C 208.699 300.410,209.403 302.821,209.759 304.558 C 210.115 306.295,210.769 308.303,211.213 309.021 C 211.656 309.738,212.380 311.980,212.822 314.002 C 213.263 316.025,213.981 318.378,214.417 319.232 C 214.852 320.087,215.639 322.564,216.166 324.738 C 216.692 326.912,217.390 329.210,217.716 329.845 C 218.042 330.480,218.618 332.440,218.996 334.200 C 219.374 335.960,220.142 338.390,220.702 339.600 C 221.262 340.810,222.049 343.302,222.451 345.138 C 222.853 346.974,223.536 349.049,223.969 349.750 C 224.402 350.451,224.944 352.189,225.174 353.612 C 225.703 356.899,226.116 358.279,227.051 359.888 C 228.584 362.525,227.366 362.977,218.333 363.125 C 207.960 363.294,207.828 363.220,206.158 356.286 C 205.617 354.039,204.839 351.570,204.429 350.800 C 204.019 350.030,203.456 348.363,203.177 347.095 C 202.899 345.828,202.467 344.621,202.218 344.415 C 201.586 343.890,183.102 343.810,182.134 344.328 C 181.158 344.851,179.006 350.516,178.386 354.200 C 177.899 357.087,176.152 361.391,174.998 362.545 C 173.793 363.749,159.594 363.500,158.139 362.249 L 157.034 361.299 157.714 359.749 C 158.088 358.897,158.750 356.641,159.185 354.735 C 159.620 352.829,160.337 350.579,160.776 349.735 C 161.216 348.891,161.873 346.760,162.235 345.000 C 162.598 343.240,163.299 340.990,163.793 340.000 C 164.288 339.010,165.006 336.760,165.391 335.000 C 165.775 333.240,166.434 330.900,166.855 329.800 C 167.276 328.700,168.057 326.056,168.589 323.925 C 169.122 321.794,169.906 319.364,170.332 318.525 C 170.758 317.686,171.392 315.612,171.741 313.916 C 172.090 312.220,172.821 309.970,173.366 308.916 C 173.911 307.862,174.621 305.459,174.945 303.576 C 175.268 301.693,175.902 299.443,176.353 298.576 C 176.804 297.709,177.455 295.650,177.800 294.000 C 178.627 290.051,179.686 287.951,181.503 286.659 L 182.990 285.600 192.434 285.600 L 201.877 285.600 203.377 287.057 M259.335 299.117 C 255.932 299.373,255.600 300.140,255.600 307.752 L 255.600 314.342 256.700 315.218 C 258.121 316.350,265.365 316.095,268.267 314.811 C 273.258 312.604,275.689 306.866,273.049 303.525 C 272.582 302.934,271.896 302.014,271.524 301.481 C 270.566 300.109,263.741 298.786,259.335 299.117 M268.287 300.845 C 270.276 301.198,270.824 301.457,271.028 302.143 C 271.169 302.614,271.578 303.450,271.939 304.000 C 273.122 305.803,273.591 307.910,272.931 308.457 C 272.614 308.721,272.115 309.509,271.822 310.209 C 271.530 310.909,270.688 311.910,269.951 312.435 C 269.214 312.960,268.318 313.682,267.960 314.040 C 267.117 314.883,258.910 315.501,257.633 314.818 C 256.499 314.211,256.336 301.976,257.445 300.750 C 258.173 299.946,263.466 299.992,268.287 300.845 M191.895 304.056 C 189.378 310.166,188.618 312.427,187.950 315.787 C 187.511 317.994,186.704 320.787,186.156 321.993 C 184.891 324.776,184.546 327.221,185.196 328.789 L 185.697 330.000 191.222 330.000 C 197.858 330.000,198.601 329.786,198.980 327.767 C 199.202 326.583,199.085 326.040,198.410 325.127 C 197.942 324.495,197.202 322.337,196.764 320.332 C 196.326 318.327,195.609 315.899,195.171 314.935 C 194.732 313.972,194.035 311.310,193.622 309.020 C 192.829 304.623,192.294 303.087,191.895 304.056 M192.993 310.345 C 193.578 314.785,194.054 316.326,195.017 316.896 C 195.291 317.060,195.733 318.770,195.998 320.696 C 196.263 322.623,196.813 324.779,197.219 325.487 L 197.958 326.775 196.925 327.587 C 195.715 328.539,186.318 328.838,185.764 327.942 C 185.213 327.050,185.557 325.299,186.582 323.789 C 187.755 322.060,187.775 321.989,188.571 316.859 C 188.890 314.801,189.409 312.821,189.725 312.459 C 190.300 311.799,190.765 310.511,191.604 307.260 C 192.206 304.924,192.308 305.150,192.993 310.345 M257.356 329.481 C 255.439 330.857,254.568 347.742,256.331 349.338 C 258.252 351.076,269.277 349.990,271.594 347.833 C 272.147 347.319,272.999 346.693,273.486 346.442 C 274.821 345.756,275.501 342.277,275.277 337.281 C 275.151 334.480,272.458 332.117,267.800 330.721 C 264.118 329.617,258.153 328.909,257.356 329.481 M265.200 331.402 C 270.553 332.245,270.400 332.188,272.504 334.126 C 275.372 336.768,275.484 344.421,272.675 345.857 C 271.974 346.216,270.704 347.057,269.853 347.725 C 268.410 348.860,267.986 348.965,263.486 349.304 C 256.290 349.846,256.800 350.493,256.800 340.827 C 256.800 329.732,256.529 330.036,265.200 331.402 " stroke="none" fill="#60b6e1" fill-rule="evenodd"></path></g></svg>