<?xml version="1.0" standalone="no"?><!DOCTYPE svg PUBLIC "-//W3C//DTD SVG 1.1//EN" "http://www.w3.org/Graphics/SVG/1.1/DTD/svg11.dtd"><svg width="100%" height="100%" viewBox="0 0 100 100" version="1.1" xmlns="http://www.w3.org/2000/svg" xmlns:xlink="http://www.w3.org/1999/xlink" xml:space="preserve" style="fill-rule:evenodd;clip-rule:evenodd;stroke-linejoin:round;stroke-miterlimit:1.41421;"><g id="Capa1" transform="matrix(0.0523456,0,0,0.0523456,7.50267,36.798)"><g transform="matrix(4.16667,0,0,4.16667,1.42109e-13,0)"><rect x="144.417" y="20.5133" width="27.7667" height="68.7067" style="fill:#231f20;fill-rule:nonzero;"/></g><g transform="matrix(4.16667,0,0,4.16667,1.42109e-13,0)"><path d="M261.18,60.3833l-50.9066,-39.87l-27.7667,0l0,68.7067l27.7667,0l0,-39.16l50.9066,39.16l27.7667,0l0,-68.7067l-27.7667,0l0,39.87Z" style="fill:#231f20;fill-rule:nonzero;"/></g><g transform="matrix(4.16667,0,0,4.16667,1.42109e-13,0)"><path d="M389.693,33.33l0,-12.8167l-62.3,0l-27.7667,0l0,68.7067l90.0667,0l0,-12.8167l-62.3,0l0,-15.13l62.3,0l0,-12.8167l-62.3,0l0,-15.1267l62.3,0Z" style="fill:#231f20;fill-rule:nonzero;"/></g><g transform="matrix(4.16667,0,0,4.16667,1.42109e-13,0)"><path d="M21.06,48.7433c0,0 19.7733,26.0567 45.9833,41.3867c0,0 43.5333,-39.7 50.2767,-40.6201c0,0 -35.5233,-23.2567 -47.0233,-49.0067c0,0 -30.47,19.9833 -49.2367,48.24Z" style="fill:#d3158c;fill-rule:nonzero;"/></g><g transform="matrix(4.16667,0,0,4.16667,1.42109e-13,0)"><path d="M115.007,66.2233l-20.71,0c-0.76667,0.643311 -1.53333,1.29333 -2.3,1.9433l23.01,0l4.29,2.15338l-29.8233,0c-1.05666,0.906616 -2.10667,1.81 -3.14,2.70331l46.2133,0l-17.54,-6.79999Z" style="fill:#231f20;fill-rule:nonzero;"/></g><g transform="matrix(4.16667,0,0,4.16667,1.42109e-13,0)"><path d="M41,70.32l-26.92,0l4.29,-2.15338l20.3633,0c-0.68,-0.65332 -1.34333,-1.30328 -1.99,-1.9433l-18.3733,0l-17.54,6.79999l43.1367,0c-1.01333,-0.90332 -2.00666,-1.80664 -2.96667,-2.70331Z" style="fill:#231f20;fill-rule:nonzero;"/></g><g transform="matrix(4.16667,0,0,4.16667,1.42109e-13,0)"><rect x="0" y="100.01" width="4.58667" height="20.2166" style="fill:#231f20;fill-rule:nonzero;"/></g><g transform="matrix(4.16667,0,0,4.16667,1.42109e-13,0)"><path d="M9.24,110.237c0,-1.83002 -0.0633326,-3.39001 -0.12,-4.67664l3.96,0l0.21,2.00665l0.0866671,0c0.6,-0.929993 2.1,-2.33667 4.53333,-2.33667c2.99667,0 5.24667,1.97668 5.24667,6.29669l0,8.69995l-4.56,0l0,-8.13c0,-1.88995 -0.66,-3.17999 -2.30667,-3.17999c-1.26,0 -2.01,0.869995 -2.31333,1.71002c-0.116667,0.27002 -0.18,0.719971 -0.18,1.14001l0,8.45996l-4.55667,0l0,-9.98999Z" style="fill:#231f20;fill-rule:nonzero;"/></g><g transform="matrix(4.16667,0,0,4.16667,1.42109e-13,0)"><path d="M27.54,116.237c0.836666,0.51001 2.58,1.10999 3.92667,1.10999c1.38,0 1.95,-0.47998 1.95,-1.22998c0,-0.75 -0.450001,-1.10999 -2.16,-1.67999c-3.02667,-1.02002 -4.19667,-2.66998 -4.17,-4.40997c0,-2.73004 2.34,-4.79669 5.97,-4.79669c1.71,0 3.24,0.386658 4.14333,0.83667l-0.813332,3.15002c-0.66,-0.360046 -1.92,-0.840027 -3.17667,-0.840027c-1.11333,0 -1.74333,0.450012 -1.74333,1.20001c0,0.690002 0.573334,1.04999 2.37,1.67999c2.79,0.960022 3.96,2.37 3.99334,4.52997c0,2.73004 -2.16333,4.74005 -6.36333,4.74005c-1.92,0 -3.63,-0.420044 -4.73667,-1.02002l0.809999,-3.27002Z" style="fill:#231f20;fill-rule:nonzero;"/></g><g transform="matrix(4.16667,0,0,4.16667,1.42109e-13,0)"><path d="M46.4367,101.357l0,4.20337l3.27,0l0,3.35663l-3.27,0l0,5.31c0,1.77002 0.419998,2.58002 1.8,2.58002c0.57,0 1.02,-0.0599976 1.35,-0.119995l0.0300026,3.45001c-0.600002,0.23999 -1.68,0.390015 -2.97,0.390015c-1.47,0 -2.7,-0.51001 -3.42,-1.26001c-0.84,-0.869995 -1.26,-2.28003 -1.26,-4.35004l0,-6l-1.95,0l0,-3.35663l1.95,0l0,-3.18335l4.47,-1.02002Z" style="fill:#231f20;fill-rule:nonzero;"/></g><g transform="matrix(4.16667,0,0,4.16667,1.42109e-13,0)"><rect x="53.0967" y="105.56" width="4.56" height="14.6666" style="fill:#231f20;fill-rule:nonzero;"/></g><g transform="matrix(4.16667,0,0,4.16667,1.42109e-13,0)"><path d="M67.1667,101.357l0,4.20337l3.27,0l0,3.35663l-3.27,0l0,5.31c0,1.77002 0.419998,2.58002 1.8,2.58002c0.57,0 1.02,-0.0599976 1.35,-0.119995l0.0300064,3.45001c-0.600006,0.23999 -1.68,0.390015 -2.97,0.390015c-1.47,0 -2.7,-0.51001 -3.42,-1.26001c-0.84,-0.869995 -1.26,-2.28003 -1.26,-4.35004l0,-6l-1.95,0l0,-3.35663l1.95,0l0,-3.18335l4.47001,-1.02002Z" style="fill:#231f20;fill-rule:nonzero;"/></g><g transform="matrix(4.16667,0,0,4.16667,1.42109e-13,0)"><path d="M87.6567,115.517c0,1.91998 0.0599976,3.47998 0.120003,4.70996l-3.96001,0l-0.209999,-2.06995l-0.0899963,0c-0.57,0.899963 -1.95,2.39996 -4.59,2.39996c-2.97,0 -5.16,-1.85999 -5.16,-6.39001l0,-8.60663l4.59,0l0,7.88666c0,2.13 0.690002,3.41998 2.28,3.41998c1.26,0 1.98,-0.869995 2.28001,-1.58997c0.119995,-0.27002 0.149994,-0.630005 0.149994,-0.990051l0,-8.72662l4.59,0l0,9.95667Z" style="fill:#231f20;fill-rule:nonzero;"/></g><g transform="matrix(4.16667,0,0,4.16667,1.42109e-13,0)"><path d="M97.1667,101.357l0,4.20337l3.27,0l0,3.35663l-3.27,0l0,5.31c0,1.77002 0.419998,2.58002 1.8,2.58002c0.57,0 1.02,-0.0599976 1.35,-0.119995l0.0300064,3.45001c-0.600006,0.23999 -1.68,0.390015 -2.97,0.390015c-1.47,0 -2.7,-0.51001 -3.42,-1.26001c-0.840004,-0.869995 -1.26,-2.28003 -1.26,-4.35004l0,-6l-1.95,0l0,-3.35663l1.95,0l0,-3.18335l4.47,-1.02002Z" style="fill:#231f20;fill-rule:nonzero;"/></g><g transform="matrix(4.16667,0,0,4.16667,1.42109e-13,0)"><path d="M107.547,112.877c0,2.52002 1.05,4.40997 3,4.40997c1.77,0 2.91,-1.76996 2.91,-4.40997c0,-2.19 -0.840004,-4.40997 -2.91,-4.40997c-2.19,0 -3,2.25 -3,4.40997ZM118.167,112.727c0,5.37 -3.81001,7.83002 -7.74001,7.83002c-4.28999,0 -7.59,-2.82001 -7.59,-7.56c0,-4.73999 3.12,-7.76666 7.83,-7.76666c4.5,0 7.5,3.08667 7.5,7.49664Z" style="fill:#231f20;fill-rule:nonzero;"/></g><g transform="matrix(4.16667,0,0,4.16667,1.42109e-13,0)"><path d="M128.697,120.227l0,-20.2166l5.34,0l4.2,7.40662c1.20001,2.13 2.40001,4.65002 3.3,6.92999l0.0899963,0c-0.299988,-2.66998 -0.389999,-5.39996 -0.389999,-8.42999l0,-5.90662l4.20001,0l0,20.2166l-4.8,0l-4.32001,-7.79999c-1.2,-2.15997 -2.51999,-4.77002 -3.50999,-7.14001l-0.0899963,0.0300293c0.119995,2.66998 0.179993,5.52002 0.179993,8.82001l0,6.08997l-4.2,0Z" style="fill:#231f20;fill-rule:nonzero;"/></g><g transform="matrix(4.16667,0,0,4.16667,1.42109e-13,0)"><path d="M158.367,113.297c-2.39999,-0.0299683 -4.25999,0.540039 -4.25999,2.31c0,1.17004 0.779999,1.73999 1.8,1.73999c1.14,0 2.06999,-0.75 2.37,-1.67999c0.0599976,-0.23999 0.0899963,-0.509949 0.0899963,-0.779968l0,-1.59003ZM158.907,120.227l-0.270004,-1.46997l-0.0899963,0c-0.960007,1.16998 -2.46001,1.79999 -4.20001,1.79999c-2.97,0 -4.73999,-2.15997 -4.73999,-4.5c0,-3.81 3.42,-5.64001 8.61,-5.60999l0,-0.210022c0,-0.779968 -0.419998,-1.89001 -2.67,-1.89001c-1.5,0 -3.09001,0.51001 -4.05,1.11005l-0.839996,-2.93671c1.01999,-0.573303 3.03,-1.28998 5.7,-1.28998c4.89,0 6.45,2.87665 6.45,6.32666l0,5.10004c0,1.40997 0.0599976,2.75995 0.210007,3.56995l-4.11,0Z" style="fill:#231f20;fill-rule:nonzero;"/></g><g transform="matrix(4.16667,0,0,4.16667,1.42109e-13,0)"><path d="M178.737,119.867c-0.809998,0.359985 -2.34,0.660034 -4.07999,0.660034c-4.74001,0 -7.77,-2.88 -7.77,-7.5c0,-4.29004 2.94,-7.79669 8.39999,-7.79669c1.2,0 2.52,0.210022 3.48001,0.56665l-0.720001,3.39337c-0.540009,-0.243347 -1.35001,-0.453369 -2.55,-0.453369c-2.40001,0 -3.96001,1.71002 -3.93001,4.10999c0,2.70001 1.8,4.11005 4.02,4.11005c1.08,0 1.92,-0.179993 2.61,-0.450012l0.539993,3.35999Z" style="fill:#231f20;fill-rule:nonzero;"/></g><g transform="matrix(4.16667,0,0,4.16667,1.42109e-13,0)"><rect x="182.577" y="105.56" width="4.56" height="14.6666" style="fill:#231f20;fill-rule:nonzero;"/></g><g transform="matrix(4.16667,0,0,4.16667,1.42109e-13,0)"><path d="M195.987,112.877c0,2.52002 1.05,4.40997 2.99667,4.40997c1.77333,0 2.91,-1.76996 2.91,-4.40997c0,-2.19 -0.83667,-4.40997 -2.91,-4.40997c-2.18666,0 -2.99667,2.25 -2.99667,4.40997ZM206.603,112.727c0,5.37 -3.80666,7.83002 -7.73666,7.83002c-4.28999,0 -7.59,-2.82001 -7.59,-7.56c0,-4.73999 3.11667,-7.76666 7.82666,-7.76666c4.5,0 7.5,3.08667 7.5,7.49664Z" style="fill:#231f20;fill-rule:nonzero;"/></g><g transform="matrix(4.16667,0,0,4.16667,1.42109e-13,0)"><path d="M210.747,110.237c0,-1.83002 -0.0599976,-3.39001 -0.119995,-4.67664l3.95999,0l0.210007,2.00665l0.0899963,0c0.596664,-0.929993 2.09666,-2.33667 4.53,-2.33667c2.99667,0 5.24667,1.97668 5.24667,6.29669l0,8.69995l-4.56001,0l0,-8.13c0,-1.88995 -0.659988,-3.17999 -2.30666,-3.17999c-1.26001,0 -2.01001,0.869995 -2.31334,1.71002c-0.116669,0.27002 -0.176666,0.719971 -0.176666,1.14001l0,8.45996l-4.56,0l0,-9.98999Z" style="fill:#231f20;fill-rule:nonzero;"/></g><g transform="matrix(4.16667,0,0,4.16667,1.42109e-13,0)"><path d="M237.443,113.297c-2.40001,-0.0299683 -4.25667,0.540039 -4.25667,2.31c0,1.17004 0.776657,1.73999 1.79666,1.73999c1.14,0 2.07001,-0.75 2.37,-1.67999c0.0600128,-0.23999 0.0900116,-0.509949 0.0900116,-0.779968l0,-1.59003ZM237.983,120.227l-0.270004,-1.46997l-0.0899963,0c-0.959991,1.16998 -2.45999,1.79999 -4.2,1.79999c-2.97,0 -4.73666,-2.15997 -4.73666,-4.5c0,-3.81 3.41666,-5.64001 8.60666,-5.60999l0,-0.210022c0,-0.779968 -0.419998,-1.89001 -2.67,-1.89001c-1.5,0 -3.09,0.51001 -4.05,1.11005l-0.839996,-2.93671c1.02,-0.573303 3.03334,-1.28998 5.70334,-1.28998c4.88666,0 6.44667,2.87665 6.44667,6.32666l0,5.10004c0,1.40997 0.0599976,2.75995 0.209991,3.56995l-4.11,0Z" style="fill:#231f20;fill-rule:nonzero;"/></g><g transform="matrix(4.16667,0,0,4.16667,1.42109e-13,0)"><rect x="246.807" y="98.93" width="4.55667" height="21.2966" style="fill:#231f20;fill-rule:nonzero;"/></g><g transform="matrix(4.16667,0,0,4.16667,1.42109e-13,0)"><path d="M275.937,111.677l-7.44333,0l0,4.79999l8.31332,0l0,3.75l-12.9033,0l0,-20.2166l12.48,0l0,3.74664l-7.88998,0l0,4.20001l7.44333,0l0,3.71997Z" style="fill:#231f20;fill-rule:nonzero;"/></g><g transform="matrix(4.16667,0,0,4.16667,1.42109e-13,0)"><rect x="281.363" y="98.93" width="4.56" height="21.2966" style="fill:#231f20;fill-rule:nonzero;"/></g><g transform="matrix(4.16667,0,0,4.16667,1.42109e-13,0)"><path d="M299.963,111.227c0,-1.10999 -0.480011,-2.96997 -2.58002,-2.96997c-1.91998,0 -2.69998,1.73999 -2.81998,2.96997l5.39999,0ZM294.593,114.347c0.149994,1.89001 2.00998,2.79004 4.13998,2.79004c1.56,0 2.82001,-0.210022 4.05002,-0.600037l0.599976,3.09003c-1.5,0.599976 -3.32999,0.900024 -5.31,0.900024c-4.97998,0 -7.82999,-2.88 -7.82999,-7.47003c0,-3.71997 2.31,-7.82666 7.41,-7.82666c4.73999,0 6.53998,3.68665 6.53998,7.31665c0,0.780029 -0.0899963,1.47003 -0.149994,1.79999l-9.44998,0Z" style="fill:#231f20;fill-rule:nonzero;"/></g><g transform="matrix(4.16667,0,0,4.16667,1.42109e-13,0)"><path d="M319.403,119.867c-0.809998,0.359985 -2.34,0.660034 -4.08002,0.660034c-4.73999,0 -7.76666,-2.88 -7.76666,-7.5c0,-4.29004 2.93668,-7.79669 8.39667,-7.79669c1.20001,0 2.51999,0.210022 3.48001,0.56665l-0.720001,3.39337c-0.540009,-0.243347 -1.35001,-0.453369 -2.55002,-0.453369c-2.39999,0 -3.95999,1.71002 -3.92999,4.10999c0,2.70001 1.80002,4.11005 4.01999,4.11005c1.08002,0 1.92001,-0.179993 2.61002,-0.450012l0.540009,3.35999Z" style="fill:#231f20;fill-rule:nonzero;"/></g><g transform="matrix(4.16667,0,0,4.16667,1.42109e-13,0)"><path d="M328.973,101.357l0,4.20337l3.27002,0l0,3.35663l-3.27002,0l0,5.31c0,1.77002 0.420013,2.58002 1.80002,2.58002c0.573334,0 1.01999,-0.0599976 1.35001,-0.119995l0.0299988,3.45001c-0.600006,0.23999 -1.68002,0.390015 -2.96667,0.390015c-1.47333,0 -2.70334,-0.51001 -3.42001,-1.26001c-0.839996,-0.869995 -1.25998,-2.28003 -1.25998,-4.35004l0,-6l-1.95334,0l0,-3.35663l1.95334,0l0,-3.18335l4.46664,-1.02002Z" style="fill:#231f20;fill-rule:nonzero;"/></g><g transform="matrix(4.16667,0,0,4.16667,1.42109e-13,0)"><path d="M340.073,112.877c0,2.52002 1.05002,4.40997 3,4.40997c1.77002,0 2.91,-1.76996 2.91,-4.40997c0,-2.19 -0.839996,-4.40997 -2.91,-4.40997c-2.19,0 -3,2.25 -3,4.40997ZM350.693,112.727c0,5.37 -3.81,7.83002 -7.73999,7.83002c-4.29001,0 -7.59,-2.82001 -7.59,-7.56c0,-4.73999 3.12,-7.76666 7.82999,-7.76666c4.5,0 7.5,3.08667 7.5,7.49664Z" style="fill:#231f20;fill-rule:nonzero;"/></g><g transform="matrix(4.16667,0,0,4.16667,1.42109e-13,0)"><path d="M354.983,110.387c0,-2.16003 -0.0599976,-3.57001 -0.119995,-4.82666l3.92999,0l0.149994,2.69666l0.120026,0c0.75,-2.13 2.54999,-3.02667 3.95999,-3.02667c0.419983,0 0.630005,0 0.959991,0.0566406l0,4.29004c-0.329987,-0.0599976 -0.720001,-0.119995 -1.22998,-0.119995c-1.68002,0 -2.82001,0.899963 -3.12003,2.31c-0.0599976,0.299988 -0.0899963,0.659973 -0.0899963,1.01996l0,7.44l-4.56,0l0,-9.83997Z" style="fill:#231f20;fill-rule:nonzero;"/></g><g transform="matrix(4.16667,0,0,4.16667,1.42109e-13,0)"><path d="M375.323,113.297c-2.39999,-0.0299683 -4.25998,0.540039 -4.25998,2.31c0,1.17004 0.779999,1.73999 1.79999,1.73999c1.14001,0 2.07001,-0.75 2.37,-1.67999c0.0599976,-0.23999 0.0899963,-0.509949 0.0899963,-0.779968l0,-1.59003ZM375.863,120.227l-0.269989,-1.46997l-0.0899963,0c-0.960022,1.16998 -2.46002,1.79999 -4.20001,1.79999c-2.97,0 -4.73999,-2.15997 -4.73999,-4.5c0,-3.81 3.41998,-5.64001 8.60999,-5.60999l0,-0.210022c0,-0.779968 -0.419983,-1.89001 -2.66998,-1.89001c-1.5,0 -3.09003,0.51001 -4.05002,1.11005l-0.839996,-2.93671c1.01999,-0.573303 3.03,-1.28998 5.70001,-1.28998c4.88998,0 6.44998,2.87665 6.44998,6.32666l0,5.10004c0,1.40997 0.0599976,2.75995 0.209991,3.56995l-4.10999,0Z" style="fill:#231f20;fill-rule:nonzero;"/></g><g transform="matrix(4.16667,0,0,4.16667,1.42109e-13,0)"><rect x="384.837" y="98.93" width="4.55667" height="21.2966" style="fill:#231f20;fill-rule:nonzero;"/></g><g transform="matrix(4.16667,0,0,4.16667,1.42109e-13,0)"><rect x="53.0967" y="101.357" width="4.56" height="3" style="fill:#231f20;fill-rule:nonzero;"/></g><g transform="matrix(4.16667,0,0,4.16667,1.42109e-13,0)"><rect x="182.577" y="101.357" width="4.56" height="3" style="fill:#231f20;fill-rule:nonzero;"/></g></g></svg>