<?xml version="1.0" standalone="no"?><!DOCTYPE svg PUBLIC "-//W3C//DTD SVG 1.1//EN" "http://www.w3.org/Graphics/SVG/1.1/DTD/svg11.dtd"><svg width="100%" height="100%" viewBox="0 0 100 100" version="1.1" xmlns="http://www.w3.org/2000/svg" xmlns:xlink="http://www.w3.org/1999/xlink" xml:space="preserve" style="fill-rule:evenodd;clip-rule:evenodd;stroke-linejoin:round;stroke-miterlimit:1.41421;"><g id="Capa1" transform="matrix(0.0523456,0,0,0.0523456,7.50267,36.798)"><g transform="matrix(12.9422,0,0,14.2285,-51.234,-392.578)"><path d="M21.06,48.7433c0,0 19.7733,26.0567 45.9833,41.3867c0,0 43.5333,-39.7 50.2767,-40.6201c0,0 -35.5233,-23.2567 -47.0233,-49.0067c0,0 -30.47,19.9833 -49.2367,48.24Z" style="fill:#d3158c;fill-rule:nonzero;"/></g><g transform="matrix(12.9422,0,0,14.2285,-51.234,-392.578)"><path d="M115.007,66.2233l-20.71,0c-0.76667,0.643311 -1.53333,1.29333 -2.3,1.9433l23.01,0l4.29,2.15338l-29.8233,0c-1.05666,0.906616 -2.10667,1.81 -3.14,2.70331l46.2133,0l-17.54,-6.79999Z" style="fill:#231f20;fill-rule:nonzero;"/></g><g transform="matrix(12.9422,0,0,14.2285,-51.234,-392.578)"><path d="M41,70.32l-26.92,0l4.29,-2.15338l20.3633,0c-0.68,-0.65332 -1.34333,-1.30328 -1.99,-1.9433l-18.3733,0l-17.54,6.79999l43.1367,0c-1.01333,-0.90332 -2.00666,-1.80664 -2.96667,-2.70331Z" style="fill:#231f20;fill-rule:nonzero;"/></g></g></svg>