<?xml version="1.0" encoding="iso-8859-1"?>
<svg version="1.1" id="recurso" xmlns="http://www.w3.org/2000/svg" xmlns:xlink="http://www.w3.org/1999/xlink" x="0px" y="0px" width="551.3px" height="551.3px" viewBox="0 0 551.3 551.3" style="enable-background:new 0 0 551.3 551.3;" xml:space="preserve">
	<g>
		<path d="M513.5,114.95h-63v-40.3c0-30-24.5-54.5-54.5-54.5H155.4c-30,0-54.5,24.5-54.5,54.5v40.4h-63c-20.8,0-37.9,17.1-37.9,37.9
		v340.3c0,20.801,17.1,37.9,37.9,37.9h475.5c20.8,0,37.899-17.1,37.899-37.9v-340.3C551.4,131.55,534.3,114.95,513.5,114.95z
		 M101.6,506.05H80.8V139.45h20.8V506.05z M381.9,352.45c0,11-8.601,19.601-19,19.601h-37.3v37.3c0,11-8,19-19,19H246
		c-11,0-19-8.601-19-19v-37.3h-37.3c-11,0-19-8.601-19-19.601v-60c0-11,8.6-19.6,19-19.6H227v-37.3c0-11,8.6-19.6,19-19.6l0,0
		h60.601c11,0,19,8.6,19,19.6v37.3h37.3c11,0,19,8.6,19,19.6V352.45L381.9,352.45z M417.4,114.95H134.6v-40.3
		c0-12.2,9.2-21.4,21.4-21.4h240.5c12.2,0,21.4,9.2,21.4,21.4v40.4h-0.5V114.95z M471.2,506.05h-20.8V139.45h20.8V506.05z" />
	</g>
</svg>
