<?xml version="1.0" standalone="no"?><!DOCTYPE svg PUBLIC "-//W3C//DTD SVG 1.1//EN" "http://www.w3.org/Graphics/SVG/1.1/DTD/svg11.dtd"><svg width="100%" height="100%" viewBox="0 0 76 76" version="1.1" xmlns="http://www.w3.org/2000/svg" ><path d="M66.8727,40.3374c-0.340103,0.668319 -0.701229,1.33761 -1.08337,2.00691c-4.86321,9.12611 -17.3684,18.2522 -27.7895,24.3363c-10.4211,-6.08407 -22.9263,-15.2102 -27.7895,-24.3363c-0.430583,-0.754155 -0.83448,-1.50831 -1.21163,-2.26097l11.134,0c0.21221,-0.0122263 0.267378,-0.0062147 0.475365,-0.0549582c0.389999,-0.0913993 0.74996,-0.296524 1.02739,-0.585462c0.147955,-0.154091 0.170904,-0.204618 0.289595,-0.380956l0.110103,-0.212874l4.54917,-10.1929l5.22008,25.0021c0.0215614,0.0794151 0.0384555,0.160247 0.0646843,0.238245c0.0525499,0.156271 0.123464,0.305751 0.211254,0.445303c0.30908,0.491319 0.820735,0.837082 1.39188,0.940599c0.216557,0.0392495 0.27304,0.0295971 0.491964,0.0299138c0.0817263,-0.00961583 0.163453,-0.0192317 0.245179,-0.0288475c0.212872,-0.0511213 0.270053,-0.0548427 0.471586,-0.143284c0.301959,-0.132513 0.570714,-0.337107 0.778828,-0.592895c0.138899,-0.170717 0.157708,-0.224845 0.263652,-0.416427l0.0930739,-0.228653l5.98429,-17.6269l4.4152,10.9168c0.035535,0.0747169 0.0666823,0.151683 0.106605,0.224151c0.119903,0.217646 0.278855,0.413263 0.46736,0.575165c0.50775,0.436092 1.21135,0.602898 1.86083,0.441155c0.160855,-0.0400583 0.316354,-0.0991717 0.463198,-0.176086c0.220121,-0.115296 0.41904,-0.270095 0.584873,-0.455151c0.0552159,-0.0616163 0.102895,-0.129592 0.154342,-0.194388l0.130128,-0.211364l3.87456,-7.22491l13.0148,0.166569ZM68.7204,36.194l-16.074,-0.205722c-0.201423,0.00841825 -0.253478,0.00233602 -0.451721,0.0436526c-0.371674,0.0774617 -0.719268,0.257676 -0.996765,0.516785c-0.148011,0.138204 -0.173039,0.18425 -0.295997,0.344011l-0.118164,0.194115l-2.37163,4.42239l-4.8505,-11.9931c-0.0343665,-0.0725871 -0.0645933,-0.147283 -0.1031,-0.217761c-0.115638,-0.211653 -0.268137,-0.402719 -0.448884,-0.562406c-0.180747,-0.159687 -0.389151,-0.287474 -0.613443,-0.376144c-0.149624,-0.0591513 -0.305597,-0.100771 -0.4648,-0.124027c-0.560254,-0.0818395 -1.141,0.072618 -1.58657,0.421971c-0.1898,0.148813 -0.35324,0.330607 -0.481091,0.535116c-0.0425729,0.0680991 -0.0771277,0.140894 -0.115692,0.211341l-0.0905176,0.223285l-5.33373,15.7106l-4.97725,-23.8391c-0.0218368,-0.0802322 -0.0389093,-0.161916 -0.0655103,-0.240697c-0.0798936,-0.236611 -0.202545,-0.458297 -0.360559,-0.651687c-0.158013,-0.19339 -0.350802,-0.357768 -0.566741,-0.483221c-0.144054,-0.0836906 -0.297627,-0.1498 -0.457428,-0.196911c-0.562717,-0.165895 -1.18202,-0.083265 -1.68155,0.224361c-0.212648,0.130953 -0.401155,0.300225 -0.554154,0.497606c-0.0509416,0.0657192 -0.0938314,0.137302 -0.140747,0.205953l-0.115122,0.221299l-6.62362,14.8409l-11.6068,0c-3.69366,-9.85742 -2.68163,-18.9855 3.03606,-23.9927c6.9474,-6.08407 20.8421,-6.08407 27.7895,6.08407c6.94736,-12.1681 20.8421,-12.1681 27.7895,-6.08407c5.77146,5.0541 6.74851,14.3067 2.93106,24.2701Z"/></svg>