<?xml version="1.0" standalone="no"?><!DOCTYPE svg PUBLIC "-//W3C//DTD SVG 1.1//EN" "http://www.w3.org/Graphics/SVG/1.1/DTD/svg11.dtd"><svg width="100%" height="100%" viewBox="0 0 100 100" version="1.1" xmlns="http://www.w3.org/2000/svg" xmlns:xlink="http://www.w3.org/1999/xlink" xml:space="preserve" style="fill-rule:evenodd;clip-rule:evenodd;stroke-linejoin:round;stroke-miterlimit:1.41421;"><g transform="matrix(1,0,0,1,-47,-47)"><g transform="matrix(1.24237,0,0,1.24237,-20.8994,-11.2986)"><path d="M131.413,102.29l-23.7233,0l0,6.39l7.98,0l0,12.0833l7.82999,0l0,-12.0833l7.91333,0l0,-6.39Z" style="fill:#000;"/></g><g transform="matrix(1.24237,0,0,1.24237,-20.8994,-11.2986)"><path d="M110.883,120.763l-8.8,-18.4133l-11.4,0l-9.11,18.4133c0,0 9.58334,0.0533371 9.68333,0l2.77333,-6.85c0,0 5.23667,1.44334 7.17667,6.85l9.67667,0ZM94.3367,113.087l2.33,-5.80333l1.77666,5.80333l-4.10667,0Z" style="fill:#000;"/></g><g transform="matrix(1.24237,0,0,1.24237,-20.8994,-11.2986)"><path d="M79.6467,102.71l0,5.73333c-0.119995,-0.156662 -0.486664,-0.286667 -0.853333,-0.416664c-3.66666,-1.30334 -8.31333,-1.51 -9.41333,-1.14667c-0.99334,0.313332 -1.20334,0.963333 -0.470001,1.38c0.470001,0.286667 2.97,0.676674 5.64,1.30334c6.33666,1.45667 8.74667,3.93 6.39,7.57667c-1.93667,3.12666 -9.63667,4.95 -20.1633,3.07333c-0.626667,-0.103333 -0.793335,-0.386665 -2.1,-0.51667l0,-5.96667c1.04667,0.183334 1.46667,0.393333 1.88334,0.546669c2.62,1.09666 7.49334,1.79333 9.48667,1.58667c1.46333,-0.130005 2.09333,-0.806671 1.36,-1.38c-0.419998,-0.339996 -3.35,-0.650002 -5.86333,-1.19666c-6.54667,-1.43333 -8.33667,-3.83 -6.45,-7.26667c1.51667,-2.78667 6.55667,-4.58334 14.83,-4.09c1.46667,0.0799942 2.93333,0.259995 4.4,0.496666c0.523338,0.0766678 1.04667,0.18 1.32333,0.283333Z" style="fill:#000;"/></g><g transform="matrix(1.24237,0,0,1.24237,-20.8994,-11.2986)"><path d="M105.823,94.4633c5.40334,0 9.78333,-4.38334 9.78333,-9.78667c0,-5.40334 -4.38,-9.78333 -9.78333,-9.78333c-5.40333,0 -9.78667,4.38 -9.78667,9.78333c0,5.40333 4.38334,9.78667 9.78667,9.78667Z" style="fill:#1573c3;"/></g><g transform="matrix(1.24237,0,0,1.24237,-20.8994,-11.2986)"><path d="M84.2967,94.4633c5.40334,0 9.78333,-4.38334 9.78333,-9.78667c0,-5.40334 -4.38,-9.78333 -9.78333,-9.78333c-5.40334,0 -9.78333,4.38 -9.78333,9.78333c0,5.40333 4.38,9.78667 9.78333,9.78667Z" style="fill:#1573c3;"/></g><g transform="matrix(1.24237,0,0,1.24237,-20.8994,-11.2986)"><path d="M105.823,72.9367c5.40334,0 9.78333,-4.38 9.78333,-9.78333c0,-5.40334 -4.38,-9.78334 -9.78333,-9.78334c-5.40333,0 -9.78667,4.38 -9.78667,9.78334c0,5.40333 4.38334,9.78333 9.78667,9.78333Z" style="fill:#1573c3;"/></g><g transform="matrix(1.24237,0,0,1.24237,-20.8994,-11.2986)"><path d="M84.2967,72.9367c5.40334,0 9.78333,-4.38 9.78333,-9.78333c0,-5.40334 -4.38,-9.78334 -9.78333,-9.78334c-5.40334,0 -9.78333,4.38 -9.78333,9.78334c0,5.40333 4.38,9.78333 9.78333,9.78333Z" style="fill:#1573c3;"/></g></g></svg>