<?xml version="1.0" standalone="no"?><!DOCTYPE svg PUBLIC "-//W3C//DTD SVG 1.1//EN" "http://www.w3.org/Graphics/SVG/1.1/DTD/svg11.dtd"><svg xmlns="http://www.w3.org/2000/svg" width="50" height="50" viewBox="0 0 50 50">
    <path d="M 38 0 C 37.74425 3.7007434e-17 37.47675 0.08575 37.28125 0.28125 C 36.89025 0.67225 36.89025 1.32775 37.28125 1.71875 L 39.0625 3.5 L 33.3125 9.28125 L 40.71875 16.6875 L 46.46875 10.90625 L 48.28125 12.71875 C 48.47625 12.91375 48.744 13 49 13 C 49.256 13 49.52375 12.91375 49.71875 12.71875 C 50.10975 12.32775 50.10975 11.67225 49.71875 11.28125 L 38.71875 0.28125 C 38.52325 0.08575 38.25575 -3.7007434e-17 38 0 z M 27 6 C 26.74425 6 26.47675 6.08575 26.28125 6.28125 C 25.89025 6.67225 25.89025 7.32775 26.28125 7.71875 L 28.71875 10.15625 L 27.15625 11.71875 L 31.71875 16.28125 C 32.10975 16.67225 32.10975 17.32775 31.71875 17.71875 C 31.52375 17.91375 31.256 18 31 18 C 30.744 18 30.47625 17.91375 30.28125 17.71875 L 25.71875 13.15625 L 23.15625 15.71875 L 26.71875 19.28125 C 27.10975 19.67225 27.10975 20.32775 26.71875 20.71875 C 26.52375 20.91375 26.256 21 26 21 C 25.744 21 25.47625 20.91375 25.28125 20.71875 L 21.71875 17.15625 L 19.15625 19.71875 L 23.71875 24.28125 C 24.10975 24.67225 24.10975 25.32775 23.71875 25.71875 C 23.52275 25.91375 23.256 26 23 26 C 22.744 26 22.47625 25.91375 22.28125 25.71875 L 17.71875 21.15625 L 15.15625 23.71875 L 18.71875 27.28125 C 19.10975 27.67225 19.10975 28.32775 18.71875 28.71875 C 18.52375 28.91375 18.256 29 18 29 C 17.744 29 17.47625 28.91375 17.28125 28.71875 L 13.71875 25.15625 L 11.15625 27.71875 L 15.71875 32.28125 C 16.10975 32.67225 16.10975 33.32775 15.71875 33.71875 C 15.52375 33.91475 15.256 34 15 34 C 14.744 34 14.47625 33.91375 14.28125 33.71875 L 9.71875 29.15625 L 7.1875 31.6875 C 6.3245 32.5465 6.6095 33.4965 6.8125 34.1875 C 6.8505 34.3175 6.8975 34.43875 6.9375 34.59375 L 8.28125 39.71875 L 2 46 L 2 50 L 10.25 41.75 L 15.46875 43.09375 C 15.63175 43.12975 15.76425 43.17875 15.90625 43.21875 C 16.23825 43.31275 16.59575 43.40625 16.96875 43.40625 C 17.49575 43.40625 17.95775 43.1975 18.34375 42.8125 L 39.875 21.28125 L 42.28125 23.71875 C 42.47725 23.91375 42.744 24 43 24 C 43.256 24 43.52375 23.91375 43.71875 23.71875 C 44.10975 23.32775 44.10975 22.67225 43.71875 22.28125 L 27.71875 6.28125 C 27.52325 6.08575 27.25575 6 27 6 z"></path>
</svg>
