<?xml version="1.0" encoding="utf-8"?>
<svg viewBox="0 0 128 128" height="100%" width="100%" pointer-events="none" display="block" id="svg-1">
	<g class="currentLayer" style="" transform="matrix(1,0,0,.8,15,20)">
		<title>
			Layer 1
		</title>
		<g id="svg_1" class="selected" fill="#4141e8" fill-opacity="1">
			<path d="M23.526315808296204,33.000001072883606 C22.974315808296204,33.000001072883606 22.526315808296204,33.44800107288361 22.526315808296204,34.000001072883606 L22.526315808296204,41.750001072883606 L18.526315808296204,52.000001072883606 L18.526315808296204,73.0000010728836 C18.939315808296204,74.16400107288361 20.222315808296205,75.0000010728836 21.526315808296204,75.0000010728836 L40.526315808296204,75.0000010728836 C42.73231580829621,75.0000010728836 44.526315808296204,73.20600107288361 44.526315808296204,71.0000010728836 C44.526315808296204,70.1770010728836 44.2658158082962,69.4182510728836 43.838815808296204,68.7812510728836 C45.395815808296206,68.23425107288361 46.526315808296204,66.7420010728836 46.526315808296204,65.0000010728836 C46.526315808296204,64.0210010728836 46.173815808296204,63.13250107288361 45.588815808296204,62.437501072883606 C46.749815808296205,61.73650107288361 47.526315808296204,60.452001072883604 47.526315808296204,59.000001072883606 C47.526315808296204,58.02100107288361 47.173815808296204,57.13250107288361 46.588815808296204,56.437501072883606 C47.749815808296205,55.73650107288361 48.526315808296204,54.45300107288361 48.526315808296204,53.000001072883606 C48.526315808296204,50.79400107288361 46.73231580829621,49.000001072883606 44.526315808296204,49.000001072883606 L29.901315808296204,49.000001072883606 C30.510315808296205,47.07000107288361 31.526315808296204,43.61600107288361 31.526315808296204,42.000001072883606 C31.526315808296204,38.23600107288361 28.767565808296204,33.000001072883606 26.057565808296204,33.000001072883606 L23.526315808296204,33.000001072883606 zM3.5263158082962036,49.000001072883606 C3.2393158082962046,49.000001072883606 2.966315808296203,49.1287510728836 2.7763158082962036,49.34375107288361 C2.586315808296204,49.55875107288361 2.4913158082962035,49.84000107288361 2.5263158082962036,50.125001072883606 L5.526315808296204,74.1250010728836 C5.589315808296204,74.6250010728836 6.022315808296205,75.0000010728836 6.526315808296204,75.0000010728836 L15.526315808296204,75.0000010728836 C16.078315808296203,75.0000010728836 16.526315808296204,74.5530010728836 16.526315808296204,74.0000010728836 L16.526315808296204,50.000001072883606 C16.526315808296204,49.448001072883606 16.078315808296203,49.000001072883606 15.526315808296204,49.000001072883606 L3.5263158082962036,49.000001072883606 zM12.026315808296204,68.0000010728836 C12.854315808296203,68.0000010728836 13.526315808296204,68.6720010728836 13.526315808296204,69.5000010728836 C13.526315808296204,70.32800107288361 12.854315808296203,71.0000010728836 12.026315808296204,71.0000010728836 C11.198315808296204,71.0000010728836 10.526315808296204,70.32800107288361 10.526315808296204,69.5000010728836 C10.526315808296204,68.6720010728836 11.198315808296204,68.0000010728836 12.026315808296204,68.0000010728836 z" id="svg_1" class="" fill="#4141e8" stroke="#000" fill-opacity="1" />
		</g>
		<g id="svg_2">
			<path d="M66.67602187519697,39.31579065322876 C67.28594628601697,39.31579065322876 67.7809574020448,38.921685424804686 67.7809574020448,38.43609148263931 L67.7809574020448,31.6184229105711 L72.20069950943616,22.601506412029263 L72.20069950943616,4.127823829650881 C71.74436113684803,3.1038539950847612 70.32672885590223,2.368425488471983 68.88589292889264,2.368425488471983 L47.8921179187837,2.368425488471983 C45.45463014655736,2.368425488471983 43.47237581139234,3.946605800509449 43.47237581139234,5.887222170829774 C43.47237581139234,6.61121458822489 43.760211516136216,7.278686333909633 44.23201898610023,7.839054705575107 C42.511634370798134,8.320250151887535 41.26250475769666,9.632981239199637 41.26250475769666,11.165417194366455 C41.26250475769666,12.026642682373527 41.651994530910514,12.808255395442245 42.29838181411651,13.419646319001913 C41.01555166744616,14.036315437585117 40.15756923084882,15.166289022207263 40.15756923084882,16.443612217903137 C40.15756923084882,17.304837705910202 40.547059004062675,18.086450418978927 41.19344628726867,18.6978413425386 C39.91061614059832,19.3145104611218 39.05263370400098,20.443604346573352 39.05263370400098,21.72180724143982 C39.05263370400098,23.662423611760147 41.034888039166006,25.240603923797607 43.47237581139234,25.240603923797607 L59.63205789154199,25.240603923797607 C58.95915215569164,26.938423323035238 57.83653766041425,29.97690425825119 57.83653766041425,31.398498117923737 C57.83653766041425,34.70968579602241 60.88477854510572,39.31579065322876 63.87915382286337,39.31579065322876 L66.67602187519697,39.31579065322876 zM88.77473241215375,25.240603923797607 C89.09184890835908,25.240603923797607 89.39349630718854,25.12734265558422 89.60343405728963,24.938207333907485 C89.81337180739072,24.749072012230755 89.91834068244125,24.501656620502473 89.87966793900159,24.250942356884487 L86.56486135845807,3.138162262737751 C86.49525042026666,2.6983126774430284 86.01681333714154,2.368425488471983 85.45992583161024,2.368425488471983 L75.51550608997968,2.368425488471983 C74.90558167915968,2.368425488471983 74.41057056313184,2.7616510177254643 74.41057056313184,3.248124659061432 L74.41057056313184,24.36090475320816 C74.41057056313184,24.846498695373533 74.90558167915968,25.240603923797607 75.51550608997968,25.240603923797607 L88.77473241215375,25.240603923797607 zM79.38278043394712,8.526319682598114 C78.4678938177171,8.526319682598114 77.72537714367536,7.9351618399620065 77.72537714367536,7.2067709267139435 C77.72537714367536,6.47838001346588 78.4678938177171,5.887222170829774 79.38278043394712,5.887222170829774 C80.29766705017714,5.887222170829774 81.04018372421888,6.47838001346588 81.04018372421888,7.2067709267139435 C81.04018372421888,7.9351618399620065 80.29766705017714,8.526319682598114 79.38278043394712,8.526319682598114 z" class="" fill="#e84141" stroke="#000" fill-opacity="1" id="svg_3" />
		</g>
		<g id="svg_3">
			<path fill="#ffffff" fill-opacity="1" stroke="#fff" stroke-opacity="1" stroke-width="2" stroke-dasharray="none" stroke-linejoin="miter" stroke-linecap="butt" stroke-dashoffset="" fill-rule="nonzero" opacity="1" marker-start="" marker-mid="" marker-end="" d="M-0.26315628168722777,0.7894768358842583 L92.89473141885793,76.05263041960396 " id="svg_4" class="" />
		</g>
		<g id="svg_4" class="">
			<path d="M98.02651562515945,81.85761740662969 l-8.058831914052368,-13.958910142682493 c-0.21694027955830103,-0.37573453284055003 -0.7595736981928349,-0.3625409450307489 -0.9639800693318247,0.020073101453483108 c-2.3367728809416293,4.374145558513701 -6.425371503286064,7.423183701358736 -11.129827956609429,8.48677535865456 c-0.3604676669463517,0.0815175246819854 -0.5371675036847592,0.49070722661167376 -0.35245727434754387,0.8107459709122776 l7.136505886234343,12.360789699263872 c0.7045375890433787,1.2203126324936748 2.5105512803792953,1.0506807892248036 2.9837298831865193,-0.26782983253896236 l2.213507074832916,-6.167154141865671 l6.447612122736872,1.1657477229088544 C97.68329386227873,84.55721395234082 98.7283202567279,83.07321804347697 98.02651562515945,81.85761740662969 z" id="svg_6" />
			<path d="M70.37737333154973,76.40564996396813 c-4.7060585318431265,-1.0640628568604589 -8.794091714709998,-4.114703078225255 -11.129827956609429,-8.48677535865456 c-0.20440637113898993,-0.3827082863971592 -0.7470397897735238,-0.3958076342940332 -0.9639800693318247,-0.02016734136641026 L50.2246391516432,81.85761740662969 c-0.7012391920909286,1.2145639978051186 0.34227936375141155,2.699690785624087 1.7235537675246597,2.450237736105919 l6.447612122736872,-1.1657477229088544 l2.213507074832916,6.167154141865671 c0.47317860280722385,1.31803942219913 2.279098054230213,1.4884251847714187 2.9837298831865193,0.26782983253896236 l7.136505886234343,-12.360789699263872 C70.91444659532158,76.89616871075395 70.7378409984961,76.4870732487372 70.37737333154973,76.40564996396813 z" id="svg_7" />
			<path d="M87.77349581842424,65.34932913944186 v-0.00009423991292715082 c1.7882965877056118,-4.516824786685407 1.2219147110134363,-9.617654313780369 -1.5150950801298024,-13.644902752809225 C80.43635315756796,43.13726438225126 67.81385922010543,43.139620380074405 61.99379067755041,51.703483987503375 c-2.737480990707874,4.028096598245203 -3.304334066964686,9.129208845078946 -1.516131719172001,13.645845151938499 C65.37511875337657,77.7165271527848 82.89921904200611,77.65866384624752 87.77349581842424,65.34932913944186 zM82.19166577574907,59.57930199065123 l-2.8353020203262567,2.7635854465886953 l0.6692918616086247,3.9023805544003842 c0.2327725849300623,1.3573374658897521 -1.1970353740006685,2.370981969334185 -2.3955785866081722,1.7405169518515469 L74.12557738840133,66.14339464576608 l-3.5045938819348814,1.842484537638724 c-1.2086268832907079,0.6354597328677775 -2.6265606131926176,-0.3936401162967086 -2.3955785866081722,-1.7405169518515469 l0.6692918616086247,-3.9023805544003842 l-2.8353020203262567,-2.7635854465886953 c-0.9778333365321159,-0.9533309591710566 -0.4371789560690523,-2.619681099548936 0.9149753146097066,-2.8160770780891182 l3.9182128597721455,-0.5693975539058447 l1.7522027010545136,-3.5504887195304033 c0.6043605616018175,-1.224741908401251 2.356374782830477,-1.2254015877917408 2.961112304084003,0 l1.7522027010545136,3.5504887195304033 l3.9182128597721455,0.5693975539058447 C82.62799657260177,56.95952665118938 83.17006455175874,58.62549983191553 82.19166577574907,59.57930199065123 z" id="svg_8" />
		</g>
	</g>
</svg>
