<?xml version="1.0" encoding="utf-8"?>
<svg viewBox="0 0 128 128" height="100%" width="100%" pointer-events="none" display="block" id="svg-1">
	<g class="currentLayer" style="" transform="matrix(1,0,0,.8,15,20)">
		<title>
			Layer 1
		</title>
		<g id="svg_1" class="" fill="#41e841" fill-opacity="1">
			<path d="M23.526315808296204,33.000001072883606 C22.974315808296204,33.000001072883606 22.526315808296204,33.44800107288361 22.526315808296204,34.000001072883606 L22.526315808296204,41.750001072883606 L18.526315808296204,52.000001072883606 L18.526315808296204,73.0000010728836 C18.939315808296204,74.16400107288361 20.222315808296205,75.0000010728836 21.526315808296204,75.0000010728836 L40.526315808296204,75.0000010728836 C42.73231580829621,75.0000010728836 44.526315808296204,73.20600107288361 44.526315808296204,71.0000010728836 C44.526315808296204,70.1770010728836 44.2658158082962,69.4182510728836 43.838815808296204,68.7812510728836 C45.395815808296206,68.23425107288361 46.526315808296204,66.7420010728836 46.526315808296204,65.0000010728836 C46.526315808296204,64.0210010728836 46.173815808296204,63.13250107288361 45.588815808296204,62.437501072883606 C46.749815808296205,61.73650107288361 47.526315808296204,60.452001072883604 47.526315808296204,59.000001072883606 C47.526315808296204,58.02100107288361 47.173815808296204,57.13250107288361 46.588815808296204,56.437501072883606 C47.749815808296205,55.73650107288361 48.526315808296204,54.45300107288361 48.526315808296204,53.000001072883606 C48.526315808296204,50.79400107288361 46.73231580829621,49.000001072883606 44.526315808296204,49.000001072883606 L29.901315808296204,49.000001072883606 C30.510315808296205,47.07000107288361 31.526315808296204,43.61600107288361 31.526315808296204,42.000001072883606 C31.526315808296204,38.23600107288361 28.767565808296204,33.000001072883606 26.057565808296204,33.000001072883606 L23.526315808296204,33.000001072883606 zM3.5263158082962036,49.000001072883606 C3.2393158082962046,49.000001072883606 2.966315808296203,49.1287510728836 2.7763158082962036,49.34375107288361 C2.586315808296204,49.55875107288361 2.4913158082962035,49.84000107288361 2.5263158082962036,50.125001072883606 L5.526315808296204,74.1250010728836 C5.589315808296204,74.6250010728836 6.022315808296205,75.0000010728836 6.526315808296204,75.0000010728836 L15.526315808296204,75.0000010728836 C16.078315808296203,75.0000010728836 16.526315808296204,74.5530010728836 16.526315808296204,74.0000010728836 L16.526315808296204,50.000001072883606 C16.526315808296204,49.448001072883606 16.078315808296203,49.000001072883606 15.526315808296204,49.000001072883606 L3.5263158082962036,49.000001072883606 zM12.026315808296204,68.0000010728836 C12.854315808296203,68.0000010728836 13.526315808296204,68.6720010728836 13.526315808296204,69.5000010728836 C13.526315808296204,70.32800107288361 12.854315808296203,71.0000010728836 12.026315808296204,71.0000010728836 C11.198315808296204,71.0000010728836 10.526315808296204,70.32800107288361 10.526315808296204,69.5000010728836 C10.526315808296204,68.6720010728836 11.198315808296204,68.0000010728836 12.026315808296204,68.0000010728836 z" id="svg_1" class="" fill="#41e841" stroke="#000" fill-opacity="1"/>
		</g>
		<g id="svg_2">
			<path d="M66.67602187519697,39.31579065322876 C67.28594628601697,39.31579065322876 67.7809574020448,38.921685424804686 67.7809574020448,38.43609148263931 L67.7809574020448,31.6184229105711 L72.20069950943616,22.601506412029263 L72.20069950943616,4.127823829650881 C71.74436113684803,3.1038539950847612 70.32672885590223,2.368425488471983 68.88589292889264,2.368425488471983 L47.8921179187837,2.368425488471983 C45.45463014655736,2.368425488471983 43.47237581139234,3.946605800509449 43.47237581139234,5.887222170829774 C43.47237581139234,6.61121458822489 43.760211516136216,7.278686333909633 44.23201898610023,7.839054705575107 C42.511634370798134,8.320250151887535 41.26250475769666,9.632981239199637 41.26250475769666,11.165417194366455 C41.26250475769666,12.026642682373527 41.651994530910514,12.808255395442245 42.29838181411651,13.419646319001913 C41.01555166744616,14.036315437585117 40.15756923084882,15.166289022207263 40.15756923084882,16.443612217903137 C40.15756923084882,17.304837705910202 40.547059004062675,18.086450418978927 41.19344628726867,18.6978413425386 C39.91061614059832,19.3145104611218 39.05263370400098,20.443604346573352 39.05263370400098,21.72180724143982 C39.05263370400098,23.662423611760147 41.034888039166006,25.240603923797607 43.47237581139234,25.240603923797607 L59.63205789154199,25.240603923797607 C58.95915215569164,26.938423323035238 57.83653766041425,29.97690425825119 57.83653766041425,31.398498117923737 C57.83653766041425,34.70968579602241 60.88477854510572,39.31579065322876 63.87915382286337,39.31579065322876 L66.67602187519697,39.31579065322876 zM88.77473241215375,25.240603923797607 C89.09184890835908,25.240603923797607 89.39349630718854,25.12734265558422 89.60343405728963,24.938207333907485 C89.81337180739072,24.749072012230755 89.91834068244125,24.501656620502473 89.87966793900159,24.250942356884487 L86.56486135845807,3.138162262737751 C86.49525042026666,2.6983126774430284 86.01681333714154,2.368425488471983 85.45992583161024,2.368425488471983 L75.51550608997968,2.368425488471983 C74.90558167915968,2.368425488471983 74.41057056313184,2.7616510177254643 74.41057056313184,3.248124659061432 L74.41057056313184,24.36090475320816 C74.41057056313184,24.846498695373533 74.90558167915968,25.240603923797607 75.51550608997968,25.240603923797607 L88.77473241215375,25.240603923797607 zM79.38278043394712,8.526319682598114 C78.4678938177171,8.526319682598114 77.72537714367536,7.9351618399620065 77.72537714367536,7.2067709267139435 C77.72537714367536,6.47838001346588 78.4678938177171,5.887222170829774 79.38278043394712,5.887222170829774 C80.29766705017714,5.887222170829774 81.04018372421888,6.47838001346588 81.04018372421888,7.2067709267139435 C81.04018372421888,7.9351618399620065 80.29766705017714,8.526319682598114 79.38278043394712,8.526319682598114 z" class="" fill="#e84141" stroke="#000" fill-opacity="1" id="svg_3"/>
		</g>
		<g id="svg_3">
			<path fill="#ffffff" fill-opacity="1" stroke="#fff" stroke-opacity="1" stroke-width="2" stroke-dasharray="none" stroke-linejoin="miter" stroke-linecap="butt" stroke-dashoffset="" fill-rule="nonzero" opacity="1" marker-start="" marker-mid="" marker-end="" d="M-0.26315628168722777,0.7894768358842583 L92.89473141885793,76.05263041960396 " id="svg_4" class=""/>
		</g>
		<g id="svg_5" class="">
			<path d="M98.11964252659237,77.46638913663492 H93.66383503147517 V97.2499985268937 H76.33569477268611 V89.01507111819849 L83.24219639011775,82.11553734334574 L84.99976490208064,82.41229148419961 C87.87128528782283,82.41229148419961 90.19820697971736,80.0877173808442 90.19820697971736,77.21909401925669 C90.19820697971736,74.35047065766915 87.87128528782283,72.02589655431375 84.99976490208064,72.02589655431375 A5.198442077636719,5.193197464942933 0 0 0 79.80132282444393,77.21909401925669 L80.04886768528377,78.97488935264215 L76.33569477268611,82.73377513679132 V69.18200270446405 C77.96949085422908,68.2917402819024 79.05868824192439,66.58540397199258 79.05868824192439,64.6070430329667 A5.198442077636719,5.193197464942933 0 0 0 73.86024616428767,59.413845568023774 A5.198442077636719,5.193197464942933 0 0 0 68.66180408665096,64.6070430329667 C68.66180408665096,66.58540397199258 69.75100147434627,68.2917402819024 71.38479755588924,69.18200270446405 V82.73377513679132 L67.67162464329158,78.97488935264215 L67.91916950413142,77.21909401925669 A5.198442077636719,5.193197464942933 0 0 0 62.720727426494705,72.02589655431375 A5.198442077636719,5.193197464942933 0 0 0 57.522285348857984,77.21909401925669 A5.198442077636719,5.193197464942933 0 0 0 62.720727426494705,82.41229148419961 L64.47829593845759,82.11553734334574 L71.38479755588924,89.01507111819849 V97.2499985268937 H54.05665729710017 V77.46638913663492 H49.72462223240291 C48.684933816875564,77.46638913663492 47.669999887432205,77.46638913663492 47.669999887432205,76.94706939014063 C47.69475437351619,76.4030201319085 48.734442789043534,75.36438063891993 49.79888569065486,74.30101163419351 L71.38479755588924,52.73687739881143 C72.20169559666073,51.920803511463255 73.04334812351618,51.080000112377256 73.86024616428767,51.080000112377256 C74.67714420505916,51.080000112377256 75.51879673191462,51.920803511463255 76.33569477268611,52.73687739881143 L86.23748920627986,62.628682093940824 V60.155730920158476 H91.18838642307674 V67.57458444150552 L98.07013355442439,74.44938870462045 C99.06031299778377,75.43856917413339 100.07524692722713,76.45247915538415 100.1000014133111,76.97179890187844 C100.1000014133111,77.46638913663492 99.10982196995172,77.46638913663492 98.11964252659237,77.46638913663492 M62.720727426494705,74.99343796285257 A2.2279037475585937,2.2256560564041137 0 0 1 64.9486311740533,77.21909401925669 A2.2279037475585937,2.2256560564041137 0 0 1 62.720727426494705,79.4447500756608 A2.2279037475585937,2.2256560564041137 0 0 1 60.492823678936105,77.21909401925669 A2.2279037475585937,2.2256560564041137 0 0 1 62.720727426494705,74.99343796285257 M84.99976490208064,74.99343796285257 C86.23748920627986,74.99343796285257 87.22766864963924,75.98261843236551 87.22766864963924,77.21909401925669 C87.22766864963924,78.45556960614786 86.23748920627986,79.4447500756608 84.99976490208064,79.4447500756608 A2.2279037475585937,2.2256560564041137 0 0 1 82.77186115452204,77.21909401925669 A2.2279037475585937,2.2256560564041137 0 0 1 84.99976490208064,74.99343796285257 M73.86024616428767,62.381386976562595 C75.09797046848689,62.381386976562595 76.08814991184627,63.370567446075526 76.08814991184627,64.6070430329667 C76.08814991184627,65.84351861985787 75.09797046848689,66.83269908937082 73.86024616428767,66.83269908937082 C72.62252186008845,66.83269908937082 71.63234241672907,65.84351861985787 71.63234241672907,64.6070430329667 C71.63234241672907,63.370567446075526 72.62252186008845,62.381386976562595 73.86024616428767,62.381386976562595 z" id="svg_6"/>

		</g>
	</g>
</svg>