<?xml version="1.0" encoding="utf-8"?>
<svg viewBox="0 0 128 128" height="100%" width="100%" pointer-events="none" display="block" id="svg-1">
	<g class="currentLayer" style="" transform="matrix(2,0,0,2,25,8)">
		<title>
			Layer 1
		</title>
		<g id="svg_1" class="">
			<path style="fill:#F2FAFF;" d="M20,38.5C9.799,38.5,1.5,30.201,1.5,20S9.799,1.5,20,1.5S38.5,9.799,38.5,20S30.201,38.5,20,38.5z" id="svg_2">
			</path>
			<g id="svg_3">
				<path style="fill:#788B9C;" d="M20,2c9.925,0,18,8.075,18,18s-8.075,18-18,18S2,29.925,2,20S10.075,2,20,2 M20,1C9.507,1,1,9.507,1,20s8.507,19,19,19s19-8.507,19-19S30.493,1,20,1L20,1z" id="svg_4">
				</path>
			</g>
		</g>
		<g id="svg_5" class="" fill="#4141e8" fill-opacity="1">
			<path style="" d="M20,35.5c-8.547,0-15.5-6.953-15.5-15.5S11.453,4.5,20,4.5S35.5,11.453,35.5,20S28.547,35.5,20,35.5z" id="svg_6" fill="#4141e8" fill-opacity="1">
			</path>
			<g id="svg_7" fill="#4141e8" fill-opacity="1">
				<path style="" d="M20,5c8.271,0,15,6.729,15,15s-6.729,15-15,15S5,28.271,5,20S11.729,5,20,5 M20,4C11.163,4,4,11.163,4,20s7.163,16,16,16s16-7.163,16-16S28.837,4,20,4L20,4z" id="svg_8" fill="#4141e8" fill-opacity="1">
				</path>
			</g>
		</g>
		<line style="fill:none;stroke:#FFFFFF;stroke-miterlimit:10;" x1="20" y1="20" x2="27.37700080871582" y2="15.050999641418457" id="svg_9">
		</line>
		<g id="svg_10">
			<circle style="fill:#8BB7F0;" cx="20" cy="20" r="2.5" id="svg_11">
			</circle>
			<g id="svg_12">
				<path style="fill:#FFFFFF;" d="M20,18c1.103,0,2,0.897,2,2s-0.897,2-2,2s-2-0.897-2-2S18.897,18,20,18 M20,17c-1.657,0-3,1.343-3,3s1.343,3,3,3s3-1.343,3-3S21.657,17,20,17L20,17z" id="svg_13">
				</path>
			</g>
		</g>
		<line style="fill:none;stroke:#FFFFFF;stroke-miterlimit:10;" x1="17.920000076293945" y1="9.541999816894531" x2="17.426000595092773" y2="7.059000015258789" id="svg_14">
		</line>
		<line style="fill:none;stroke:#C74343;stroke-miterlimit:10;" x1="30.45800018310547" y1="17.920000076293945" x2="32.941001892089844" y2="17.426000595092773" id="svg_15">
		</line>
		<line style="fill:none;stroke:#FFFFFF;stroke-miterlimit:10;" x1="9.541999816894531" y1="22.079999923706055" x2="7.059000015258789" y2="22.573999404907227" id="svg_16">
		</line>
		<line style="fill:none;stroke:#FFFFFF;stroke-miterlimit:10;" x1="25.923999786376953" y1="11.133999824523926" x2="27.329999923706055" y2="9.029000282287598" id="svg_17">
		</line>
		<line style="fill:none;stroke:#C74343;stroke-miterlimit:10;" x1="28.865999221801758" y1="25.923999786376953" x2="30.97100067138672" y2="27.329999923706055" id="svg_18">
		</line>
		<line style="fill:none;stroke:#FFFFFF;stroke-miterlimit:10;" x1="11.133999824523926" y1="14.076000213623047" x2="9.029000282287598" y2="12.670000076293945" id="svg_19">
		</line>
		<line style="fill:none;stroke:#FFFFFF;stroke-miterlimit:10;" x1="14.076000213623047" y1="11.133999824523926" x2="12.670000076293945" y2="9.029000282287598" id="svg_20">
		</line>
		<line style="fill:none;stroke:#FFFFFF;stroke-miterlimit:10;" x1="28.865999221801758" y1="14.076000213623047" x2="30.97100067138672" y2="12.670000076293945" id="svg_21">
		</line>
		<line style="fill:none;stroke:#FFFFFF;stroke-miterlimit:10;" x1="11.133999824523926" y1="25.923999786376953" x2="9.029000282287598" y2="27.329999923706055" id="svg_22">
		</line>
		<line style="fill:none;stroke:#FFFFFF;stroke-miterlimit:10;" x1="22.079999923706055" y1="9.541999816894531" x2="22.573999404907227" y2="7.059000015258789" id="svg_23" class="">
		</line>
		<line style="fill:none;stroke:#C74343;stroke-miterlimit:10;" x1="30.45800018310547" y1="22.079999923706055" x2="32.941001892089844" y2="22.573999404907227" id="svg_24">
		</line>
		<line style="fill:none;stroke:#FFFFFF;stroke-miterlimit:10;" x1="9.541999816894531" y1="17.920000076293945" x2="7.059000015258789" y2="17.426000595092773" id="svg_25">
		</line>
		<g id="svg_28" class="">
			<path d="M25.944055581306095,31.25931534562205 l-2.0457743029552904,-2.847398939638306 c-0.05507136194544862,-0.07664395711842296 -0.19282153661177892,-0.07395267194245626 -0.2447111039704573,0.004094598160577907 c-0.5932013426582722,0.8922571531606732 -1.6311123061696877,1.5142131573265756 -2.8253618232490902,1.7311691894405765 c-0.09150649845410103,0.016628297694365708 -0.1363626251472877,0.1000965850804186 -0.08947302071067673,0.1653794740631534 l1.8116372832506404,2.5214074109665683 c0.1788503483510744,0.24892465531137686 0.6373158480567976,0.214322417334662 0.7574345745242583,-0.05463308907212408 l0.5619097086771049,-1.258002808574546 l1.6367581973161367,0.23779426876220047 C25.856927040817254,31.80999073955592 26.12221215489766,31.507278827656297 25.944055581306095,31.25931534562205 z" id="svg_29" />
			<path d="M18.92518418576437,30.147199417050444 c-1.1946562126280877,-0.21705214944171394 -2.2324236365340866,-0.8393349525218416 -2.8253618232490902,-1.7311691894405765 c-0.05188956735867851,-0.07806649356857698 -0.1896397420250089,-0.08073855527900103 -0.2447111039704573,-0.004113821626120525 L13.80931303232196,31.25931534562205 c-0.17801303398613494,0.2477520239132768 0.08688930781314898,0.5506946173994156 0.4375326405822361,0.4998101041081009 l1.6367581973161367,-0.23779426876220047 l0.5619097086771049,1.258002808574546 c0.12011872646746169,0.2688593890790734 0.5785603029056144,0.30361541478012827 0.7574345745242583,0.05463308907212408 l1.8116372832506404,-2.5214074109665683 C19.061522887644085,30.247257555199774 19.01669068421847,30.16380849127927 18.92518418576437,30.147199417050444 z" id="svg_30" />
			<path d="M23.341275839525498,27.89188321612481 v-0.000019223465542619376 c0.4539679254026193,-0.921361479992198 0.3101890873087254,-1.9618507759520074 -0.3846143727180608,-2.783346352450298 C21.478705919618967,23.360970058126078 18.2744234613334,23.361450644764645 16.796970302763892,25.108344629019086 c-0.6949230763646347,0.8216685876881759 -0.8388215307963776,1.8622155540446115 -0.3848775286613273,2.783538587105724 C17.655337143164715,30.414597822748274 22.10391659428549,30.40279461490511 23.341275839525498,27.89188321612481 zM21.924300701372193,26.71488809134686 l-0.7197554281019827,0.5637281270373093 l0.16990304628000683,0.7960244846543206 c0.05909047089715811,0.2768755742103457 -0.30387334467032434,0.4836431695867575 -0.6081294616217636,0.3550381851066353 L19.87668430681403,28.05386013678692 l-0.8896584743819892,0.3758379748237495 c-0.3068159065813973,0.12962382815388127 -0.6667653904350981,-0.08029641557152084 -0.6081294616217636,-0.3550381851066353 l0.16990304628000683,-0.7960244846543206 l-0.7197554281019827,-0.5637281270373093 c-0.24822782430320306,-0.19446457742913653 -0.11098003825583642,-0.5343738951537298 0.23227100483421328,-0.5744355973445486 l0.9946576957454,-0.1161481788085056 l0.4448053139234251,-0.7242440643181818 c0.1534199149244836,-0.24982815819188 0.5981773823127684,-0.24996272245067824 0.751692990307532,0 l0.4448053139234251,0.7242440643181818 l0.9946576957454,0.1161481788085056 C22.0350654302199,26.18049497272759 22.172672065280807,26.520327396590012 21.924300701372193,26.71488809134686 z" id="svg_31" />
		</g>
	</g>
</svg>
