<?xml version="1.0" encoding="utf-8"?>
<svg viewBox="0 0 128 128" height="100%" width="100%" pointer-events="none" display="block" id="svg-1">
	<g class="currentLayer" style="" transform="matrix(2,0,0,2,25,8)">
		<title>
			Layer 1
		</title>
		<g id="svg_1" class="">
			<path style="fill:#F2FAFF;" d="M20,38.5C9.799,38.5,1.5,30.201,1.5,20S9.799,1.5,20,1.5S38.5,9.799,38.5,20S30.201,38.5,20,38.5z" id="svg_2">
			</path>
			<g id="svg_3">
				<path style="fill:#788B9C;" d="M20,2c9.925,0,18,8.075,18,18s-8.075,18-18,18S2,29.925,2,20S10.075,2,20,2 M20,1C9.507,1,1,9.507,1,20s8.507,19,19,19s19-8.507,19-19S30.493,1,20,1L20,1z" id="svg_4">
				</path>
			</g>
		</g>
		<g id="svg_5" class="" fill="#41e8e8" fill-opacity="1">
			<path style="" d="M20,35.5c-8.547,0-15.5-6.953-15.5-15.5S11.453,4.5,20,4.5S35.5,11.453,35.5,20S28.547,35.5,20,35.5z" id="svg_6" fill="#41e8e8" fill-opacity="1">
			</path>
			<g id="svg_7" fill="#41e8e8" fill-opacity="1">
				<path style="" d="M20,5c8.271,0,15,6.729,15,15s-6.729,15-15,15S5,28.271,5,20S11.729,5,20,5 M20,4C11.163,4,4,11.163,4,20s7.163,16,16,16s16-7.163,16-16S28.837,4,20,4L20,4z" id="svg_8" fill="#41e8e8" fill-opacity="1">
				</path>
			</g>
		</g>
		<line style="fill:none;stroke:#FFFFFF;stroke-miterlimit:10;" x1="20" y1="20" x2="27.37700080871582" y2="15.050999641418457" id="svg_9">
		</line>
		<g id="svg_10">
			<circle style="fill:#8BB7F0;" cx="20" cy="20" r="2.5" id="svg_11">
			</circle>
			<g id="svg_12">
				<path style="fill:#FFFFFF;" d="M20,18c1.103,0,2,0.897,2,2s-0.897,2-2,2s-2-0.897-2-2S18.897,18,20,18 M20,17c-1.657,0-3,1.343-3,3s1.343,3,3,3s3-1.343,3-3S21.657,17,20,17L20,17z" id="svg_13">
				</path>
			</g>
		</g>
		<line style="fill:none;stroke:#FFFFFF;stroke-miterlimit:10;" x1="17.920000076293945" y1="9.541999816894531" x2="17.426000595092773" y2="7.059000015258789" id="svg_14">
		</line>
		<line style="fill:none;stroke:#C74343;stroke-miterlimit:10;" x1="30.45800018310547" y1="17.920000076293945" x2="32.941001892089844" y2="17.426000595092773" id="svg_15">
		</line>
		<line style="fill:none;stroke:#FFFFFF;stroke-miterlimit:10;" x1="9.541999816894531" y1="22.079999923706055" x2="7.059000015258789" y2="22.573999404907227" id="svg_16">
		</line>
		<line style="fill:none;stroke:#FFFFFF;stroke-miterlimit:10;" x1="25.923999786376953" y1="11.133999824523926" x2="27.329999923706055" y2="9.029000282287598" id="svg_17">
		</line>
		<line style="fill:none;stroke:#C74343;stroke-miterlimit:10;" x1="28.865999221801758" y1="25.923999786376953" x2="30.97100067138672" y2="27.329999923706055" id="svg_18">
		</line>
		<line style="fill:none;stroke:#FFFFFF;stroke-miterlimit:10;" x1="11.133999824523926" y1="14.076000213623047" x2="9.029000282287598" y2="12.670000076293945" id="svg_19">
		</line>
		<line style="fill:none;stroke:#FFFFFF;stroke-miterlimit:10;" x1="14.076000213623047" y1="11.133999824523926" x2="12.670000076293945" y2="9.029000282287598" id="svg_20">
		</line>
		<line style="fill:none;stroke:#FFFFFF;stroke-miterlimit:10;" x1="28.865999221801758" y1="14.076000213623047" x2="30.97100067138672" y2="12.670000076293945" id="svg_21">
		</line>
		<line style="fill:none;stroke:#FFFFFF;stroke-miterlimit:10;" x1="11.133999824523926" y1="25.923999786376953" x2="9.029000282287598" y2="27.329999923706055" id="svg_22">
		</line>
		<line style="fill:none;stroke:#FFFFFF;stroke-miterlimit:10;" x1="22.079999923706055" y1="9.541999816894531" x2="22.573999404907227" y2="7.059000015258789" id="svg_23" class="">
		</line>
		<line style="fill:none;stroke:#C74343;stroke-miterlimit:10;" x1="30.45800018310547" y1="22.079999923706055" x2="32.941001892089844" y2="22.573999404907227" id="svg_24">
		</line>
		<line style="fill:none;stroke:#FFFFFF;stroke-miterlimit:10;" x1="9.541999816894531" y1="17.920000076293945" x2="7.059000015258789" y2="17.426000595092773" id="svg_25">
		</line>
		<g id="svg_26" class="">
			<path d="M26.686936732698328,25.968094085003138 h-1.687525410069055 v-0.7728776563932631 c0,-0.5753431685309645 -0.6562598816935228,-1.0452067561645852 -1.4598434102978324,-1.0452067561645852 H17.094828012924864 c-0.8035835286043105,0 -1.4598434102978324,0.4698635876336218 -1.4598434102978324,1.0452067561645852 v0.774795466955033 h-1.687525410069055 c-0.5571512464989907,0 -1.0151938578034463,0.32794560606265094 -1.0151938578034463,0.7268502029107866 v6.526309341702907 c0,0.3989237749537544 0.45804261130445867,0.7268502029107866 1.0151938578034463,0.7268502029107866 h12.736798928378331 c0.5571512464989907,0 1.015167071685826,-0.32794560606265094 1.015167071685826,-0.7268502029107866 v-6.526309341702907 C27.70213059050177,26.286450638256937 27.24408797919731,25.968094085003138 26.686936732698328,25.968094085003138 zM15.653734884961136,33.46865119208513 H15.096583638462148 V26.437957672636756 h0.5571512464989907 V33.46865119208513 zM23.161883653887415,30.522894169206605 c0,0.21095916179468704 -0.23038739765085606,0.375910048212515 -0.5089362347827293,0.375910048212515 h-0.9991221872313584 v0.7153433395401656 c0,0.21095916179468704 -0.21428894096114987,0.3643840067362782 -0.5089362347827293,0.3643840067362782 H19.521650269309887 c-0.2946472938215809,0 -0.5089362347827293,-0.1649508864178283 -0.5089362347827293,-0.3643840067362782 v-0.7153433395401656 h-0.9991221872313584 c-0.2946472938215809,0 -0.5089362347827293,-0.1649508864178283 -0.5089362347827293,-0.375910048212515 v-1.1506863370619287 c0,-0.21095916179468704 0.23036061153323595,-0.37589087010689787 0.5089362347827293,-0.37589087010689787 H19.012714034527157 v-0.7153433395401656 c0,-0.21095916179468704 0.23036061153323595,-0.37589087010689787 0.5089362347827293,-0.37589087010689787 l0,0 h1.6232655138983287 c0.2946472938215809,0 0.5089362347827293,0.16493170831221024 0.5089362347827293,0.37589087010689787 v0.7153433395401656 h0.9991221872313584 c0.2946472938215809,0 0.5089362347827293,0.16493170831221024 0.5089362347827293,0.37589087010689787 V30.522894169206605 L23.161883653887415,30.522894169206605 zM24.11279082940251,25.968094085003138 H16.537676766425875 v-0.7728776563932631 c0,-0.23397288853592604 0.24643228210532298,-0.41041146021875535 0.5732229170710756,-0.41041146021875535 h6.44206128764456 c0.3267906349657537,0 0.5732229170710756,0.1764385716828294 0.5732229170710756,0.41041146021875535 v0.774795466955033 h-0.01339305881007187 V25.968094085003138 zM25.553883957366242,33.46865119208513 h-0.5571512464989907 V26.437957672636756 h0.5571512464989907 V33.46865119208513 z" id="svg_27"/>
		</g>
	</g>
</svg>