<?xml version="1.0" encoding="utf-8"?>
<svg viewBox="0 0 128 128" height="100%" width="100%" pointer-events="none" display="block" id="svg-1">
	<g class="currentLayer" style="" transform="matrix(2.2,0,0,2,20,20)">
		<title>
			Layer 1
		</title>
		<g id="svg_1" class="selected">
			<path style="fill:#FFEEA3;" d="M20,38.5C9.799,38.5,1.5,30.201,1.5,20S9.799,1.5,20,1.5S38.5,9.799,38.5,20S30.201,38.5,20,38.5z" id="svg_2" />
			<g id="svg_3">
				<path style="fill:#C29653;" d="M20,2c9.925,0,18,8.075,18,18s-8.075,18-18,18S2,29.925,2,20S10.075,2,20,2 M20,1C9.507,1,1,9.507,1,20s8.507,19,19,19s19-8.507,19-19S30.493,1,20,1L20,1z" id="svg_4" />
			</g>
		</g>
		<path style="fill:#FFEEA3;" d="M11,5.852c0-0.807-0.195-1.574-0.514-2.281C6.531,5.844,3.149,9.762,1.822,14.455c-0.207,0.554-0.284,1.028-0.321,1.341C1.486,15.865,1.5,16.607,1.5,17c0,1.378,1.122,2.5,2.5,2.5s2.5-1.122,2.5-2.5c0-0.467-0.137-0.899-0.36-1.273C6.14,11.938,11,9.969,11,5.852z" id="svg_5" />
		<path style="fill:none;stroke:#C29653;stroke-miterlimit:10;" d="M9,30c0,0,16-7.853,22,0" id="svg_6" />
		<path style="fill:none;stroke:#C29653;stroke-miterlimit:10;" d="M33.358,11.378c-1.014-2.419-3.797-3.559-6.217-2.545" id="svg_7" />
		<path style="fill:none;stroke:#C29653;stroke-miterlimit:10;" d="M11.642,11.378c1.014-2.419,3.797-3.559,6.217-2.545" id="svg_8" />
		<circle style="fill:#C74343;" cx="4" cy="17" r="1.5" id="svg_9" />
		<path style="fill:none;stroke:#C74343;stroke-width:2;stroke-miterlimit:10;" d="M1,6c0-2.127,1.873-4,4-4h0c2.127,0,4,1.725,4,3.852l0,0C9,9.004,4,10.668,4,14" id="svg_10" class="" />
		<g id="svg_11">
			<path style="fill:#FFFFFF;" d="M29,21.5c-1.93,0-3.5-2.019-3.5-4.5s1.57-4.5,3.5-4.5s3.5,2.019,3.5,4.5S30.93,21.5,29,21.5z" id="svg_12" />
			<g id="svg_13">
				<path style="fill:#C29653;" d="M29,13c1.654,0,3,1.794,3,4s-1.346,4-3,4s-3-1.794-3-4S27.346,13,29,13 M29,12c-2.209,0-4,2.239-4,5s1.791,5,4,5s4-2.239,4-5S31.209,12,29,12L29,12z" id="svg_14" />
			</g>
		</g>
		<ellipse style="fill:#36404D;" cx="29" cy="17" rx="1.25" ry="2" id="svg_15" />
		<g id="svg_16">
			<path style="fill:#FFFFFF;" d="M16,21.5c-1.93,0-3.5-2.019-3.5-4.5s1.57-4.5,3.5-4.5s3.5,2.019,3.5,4.5S17.93,21.5,16,21.5z" id="svg_17" />
			<g id="svg_18">
				<path style="fill:#C29653;" d="M16,13c1.654,0,3,1.794,3,4s-1.346,4-3,4s-3-1.794-3-4S14.346,13,16,13 M16,12c-2.209,0-4,2.239-4,5s1.791,5,4,5s4-2.239,4-5S18.209,12,16,12L16,12z" id="svg_19" />
			</g>
		</g>
		<ellipse style="fill:#36404D;" cx="16" cy="17" rx="1.25" ry="2" id="svg_20" />
		<g id="svg_21" class="">
			<path d="M27.186939537525177,29.33333396911621 C26.874775433540343,29.33333396911621 26.66666603088379,29.539394569396972 26.66666603088379,29.848485469818115 L26.66666603088379,30.878788471221924 C26.66666603088379,31.187879371643067 26.874775433540343,31.393939971923828 27.186939537525177,31.393939971923828 L28.227486550807953,31.393939971923828 C28.539650654792787,31.393939971923828 28.74776005744934,31.187879371643067 28.74776005744934,30.878788471221924 L28.74776005744934,29.848485469818115 C28.74776005744934,29.539394569396972 28.539650654792787,29.33333396911621 28.227486550807953,29.33333396911621 L27.186939537525177,29.33333396911621 zM30.211029294878244,29.848485469818115 A0.5208447669516802,0.515717137049675 0 0 0 30.308580577373505,30.878788471221924 L39.1532301902771,30.878788471221924 A0.5203255339920521,0.5152030158519745 0 1 0 39.1532301902771,29.848485469818115 L30.308580577373505,29.848485469818115 A0.5203255339920521,0.5152030158519745 0 0 0 30.259804936125875,29.848485469818115 A0.5208447669516802,0.515717137049675 0 0 0 30.211029294878244,29.848485469818115 zM27.186939537525177,32.42424297332764 C26.874775433540343,32.42424297332764 26.66666603088379,32.6303035736084 26.66666603088379,32.93939447402954 L26.66666603088379,33.96969747543335 C26.66666603088379,34.27878837585449 26.874775433540343,34.484848976135254 27.186939537525177,34.484848976135254 L28.227486550807953,34.484848976135254 C28.539650654792787,34.484848976135254 28.74776005744934,34.27878837585449 28.74776005744934,33.96969747543335 L28.74776005744934,32.93939447402954 C28.74776005744934,32.6303035736084 28.539650654792787,32.42424297332764 28.227486550807953,32.42424297332764 L27.186939537525177,32.42424297332764 zM30.211029294878244,32.93939447402954 A0.5208447669516802,0.515717137049675 0 0 0 30.308580577373505,33.96969747543335 L39.1532301902771,33.96969747543335 A0.5203255339920521,0.5152030158519745 0 1 0 39.1532301902771,32.93939447402954 L30.308580577373505,32.93939447402954 A0.5203255339920521,0.5152030158519745 0 0 0 30.259804936125875,32.93939447402954 A0.5208447669516802,0.515717137049675 0 0 0 30.211029294878244,32.93939447402954 zM27.186939537525177,35.51515197753906 C26.874775433540343,35.51515197753906 26.66666603088379,35.72121257781983 26.66666603088379,36.03030347824097 L26.66666603088379,37.060606479644775 C26.66666603088379,37.369697380065915 26.874775433540343,37.57575798034668 27.186939537525177,37.57575798034668 L28.227486550807953,37.57575798034668 C28.539650654792787,37.57575798034668 28.74776005744934,37.369697380065915 28.74776005744934,37.060606479644775 L28.74776005744934,36.03030347824097 C28.74776005744934,35.72121257781983 28.539650654792787,35.51515197753906 28.227486550807953,35.51515197753906 L27.186939537525177,35.51515197753906 zM30.211029294878244,36.03030347824097 A0.5208447669516802,0.515717137049675 0 0 0 30.308580577373505,37.060606479644775 L39.1532301902771,37.060606479644775 A0.5203255339920521,0.5152030158519745 0 1 0 39.1532301902771,36.03030347824097 L30.308580577373505,36.03030347824097 A0.5203255339920521,0.5152030158519745 0 0 0 30.259804936125875,36.03030347824097 A0.5208447669516802,0.515717137049675 0 0 0 30.211029294878244,36.03030347824097 zM27.186939537525177,38.60606098175049 C26.874775433540343,38.60606098175049 26.66666603088379,38.81212158203125 26.66666603088379,39.12121248245239 L26.66666603088379,40.1515154838562 C26.66666603088379,40.46060638427734 26.874775433540343,40.666666984558105 27.186939537525177,40.666666984558105 L28.227486550807953,40.666666984558105 C28.539650654792787,40.666666984558105 28.74776005744934,40.46060638427734 28.74776005744934,40.1515154838562 L28.74776005744934,39.12121248245239 C28.74776005744934,38.81212158203125 28.539650654792787,38.60606098175049 28.227486550807953,38.60606098175049 L27.186939537525177,38.60606098175049 zM30.211029294878244,39.12121248245239 A0.5208447669516802,0.515717137049675 0 0 0 30.308580577373505,40.1515154838562 L39.1532301902771,40.1515154838562 A0.5203255339920521,0.5152030158519745 0 1 0 39.1532301902771,39.12121248245239 L30.308580577373505,39.12121248245239 A0.5203255339920521,0.5152030158519745 0 0 0 30.259804936125875,39.12121248245239 A0.5208447669516802,0.515717137049675 0 0 0 30.211029294878244,39.12121248245239 z" id="svg_22" />
		</g>
	</g>
</svg>
