<?xml version="1.0" encoding="utf-8"?>
<svg viewBox="0 0 128 128" height="100%" width="100%" pointer-events="none" display="block" id="svg-1">
	<g class="currentLayer" style="" transform="matrix(2,0,0,2,25,8)">
		<title>
			Layer 1
		</title>
		<g id="svg_1" class="">
			<path style="fill:#F2FAFF;" d="M20,38.5C9.799,38.5,1.5,30.201,1.5,20S9.799,1.5,20,1.5S38.5,9.799,38.5,20S30.201,38.5,20,38.5z" id="svg_2">
			</path>
			<g id="svg_3">
				<path style="fill:#788B9C;" d="M20,2c9.925,0,18,8.075,18,18s-8.075,18-18,18S2,29.925,2,20S10.075,2,20,2 M20,1C9.507,1,1,9.507,1,20s8.507,19,19,19s19-8.507,19-19S30.493,1,20,1L20,1z" id="svg_4">
				</path>
			</g>
		</g>
		<g id="svg_5" class="" fill="#41e841" fill-opacity="1">
			<path style="" d="M20,35.5c-8.547,0-15.5-6.953-15.5-15.5S11.453,4.5,20,4.5S35.5,11.453,35.5,20S28.547,35.5,20,35.5z" id="svg_6" fill="#41e841" fill-opacity="1">
			</path>
			<g id="svg_7" fill="#41e841" fill-opacity="1">
				<path style="" d="M20,5c8.271,0,15,6.729,15,15s-6.729,15-15,15S5,28.271,5,20S11.729,5,20,5 M20,4C11.163,4,4,11.163,4,20s7.163,16,16,16s16-7.163,16-16S28.837,4,20,4L20,4z" id="svg_8" fill="#41e841" fill-opacity="1">
				</path>
			</g>
		</g>
		<line style="fill:none;stroke:#FFFFFF;stroke-miterlimit:10;" x1="20" y1="20" x2="27.37700080871582" y2="15.050999641418457" id="svg_9">
		</line>
		<g id="svg_10">
			<circle style="fill:#8BB7F0;" cx="20" cy="20" r="2.5" id="svg_11">
			</circle>
			<g id="svg_12">
				<path style="fill:#FFFFFF;" d="M20,18c1.103,0,2,0.897,2,2s-0.897,2-2,2s-2-0.897-2-2S18.897,18,20,18 M20,17c-1.657,0-3,1.343-3,3s1.343,3,3,3s3-1.343,3-3S21.657,17,20,17L20,17z" id="svg_13">
				</path>
			</g>
		</g>
		<line style="fill:none;stroke:#FFFFFF;stroke-miterlimit:10;" x1="17.920000076293945" y1="9.541999816894531" x2="17.426000595092773" y2="7.059000015258789" id="svg_14">
		</line>
		<line style="fill:none;stroke:#C74343;stroke-miterlimit:10;" x1="30.45800018310547" y1="17.920000076293945" x2="32.941001892089844" y2="17.426000595092773" id="svg_15">
		</line>
		<line style="fill:none;stroke:#FFFFFF;stroke-miterlimit:10;" x1="9.541999816894531" y1="22.079999923706055" x2="7.059000015258789" y2="22.573999404907227" id="svg_16">
		</line>
		<line style="fill:none;stroke:#FFFFFF;stroke-miterlimit:10;" x1="25.923999786376953" y1="11.133999824523926" x2="27.329999923706055" y2="9.029000282287598" id="svg_17">
		</line>
		<line style="fill:none;stroke:#C74343;stroke-miterlimit:10;" x1="28.865999221801758" y1="25.923999786376953" x2="30.97100067138672" y2="27.329999923706055" id="svg_18">
		</line>
		<line style="fill:none;stroke:#FFFFFF;stroke-miterlimit:10;" x1="11.133999824523926" y1="14.076000213623047" x2="9.029000282287598" y2="12.670000076293945" id="svg_19">
		</line>
		<line style="fill:none;stroke:#FFFFFF;stroke-miterlimit:10;" x1="14.076000213623047" y1="11.133999824523926" x2="12.670000076293945" y2="9.029000282287598" id="svg_20">
		</line>
		<line style="fill:none;stroke:#FFFFFF;stroke-miterlimit:10;" x1="28.865999221801758" y1="14.076000213623047" x2="30.97100067138672" y2="12.670000076293945" id="svg_21">
		</line>
		<line style="fill:none;stroke:#FFFFFF;stroke-miterlimit:10;" x1="11.133999824523926" y1="25.923999786376953" x2="9.029000282287598" y2="27.329999923706055" id="svg_22">
		</line>
		<line style="fill:none;stroke:#FFFFFF;stroke-miterlimit:10;" x1="22.079999923706055" y1="9.541999816894531" x2="22.573999404907227" y2="7.059000015258789" id="svg_23" class="">
		</line>
		<line style="fill:none;stroke:#C74343;stroke-miterlimit:10;" x1="30.45800018310547" y1="22.079999923706055" x2="32.941001892089844" y2="22.573999404907227" id="svg_24">
		</line>
		<line style="fill:none;stroke:#FFFFFF;stroke-miterlimit:10;" x1="9.541999816894531" y1="17.920000076293945" x2="7.059000015258789" y2="17.426000595092773" id="svg_25">
		</line>
		<g id="svg_26" class="">
			<path d="M27.241738493846654,29.45656083060505 H25.98564778129935 V34.199999478609506 H21.100850565837618 V32.225543141377656 L23.047791170285937,30.571268912886094 L23.543249173568483,30.642420492606163 C24.352729854987857,30.642420492606163 25.008688338207,30.08506645146564 25.008688338207,29.397267847504992 C25.008688338207,28.709469243544348 24.352729854987857,28.152115202403824 23.543249173568483,28.152115202403824 A1.4654391646385194,1.2451526451011699 0 0 0 22.077810008929966,29.397267847504992 L22.147592826293703,29.818248027515388 L21.100850565837618,30.719501370636234 V27.47024589675318 C21.561417160438296,27.25679115759298 21.868461556838746,26.847669574202598 21.868461556838746,26.373325709402152 A1.4654391646385194,1.2451526451011699 0 0 0 20.403022392200228,25.12817306430098 A1.4654391646385194,1.2451526451011699 0 0 0 18.93758322756171,26.373325709402152 C18.93758322756171,26.847669574202598 19.24462762396216,27.25679115759298 19.705194218562838,27.47024589675318 V30.719501370636234 L18.658451958106752,29.818248027515388 L18.72823477547049,29.397267847504992 A1.4654391646385194,1.2451526451011699 0 0 0 17.262795610831972,28.152115202403824 A1.4654391646385194,1.2451526451011699 0 0 0 15.797356446193454,29.397267847504992 A1.4654391646385194,1.2451526451011699 0 0 0 17.262795610831972,30.642420492606163 L17.758253614114523,30.571268912886094 L19.705194218562838,32.225543141377656 V34.199999478609506 H14.820397003101107 V29.45656083060505 H13.599197699235674 C13.30610986630797,29.45656083060505 13.02000031511664,29.45656083060505 13.02000031511664,29.33204556609493 C13.026978596853015,29.201601003274806 13.320066429780718,28.952570474254575 13.620132544444797,28.697610646924332 L19.705194218562838,23.52726252059948 C19.935477515863177,23.331595676369293 20.17273909489989,23.129999533829103 20.403022392200228,23.129999533829103 C20.633305689500567,23.129999533829103 20.87056726853728,23.331595676369293 21.100850565837618,23.52726252059948 L23.89216326038718,25.898981844601707 V25.30605201360115 H25.28781960766196 V27.08484150660282 L27.227781930373904,28.73318643678437 C27.50691319982886,28.97035836918459 27.79302275102019,29.21345959989482 27.800001032756562,29.337974864404938 C27.800001032756562,29.45656083060505 27.520869763301604,29.45656083060505 27.241738493846654,29.45656083060505 M17.262795610831972,28.863630999604492 A0.6280453562736524,0.5336368479005016 0 0 1 17.890840967105625,29.397267847504992 A0.6280453562736524,0.5336368479005016 0 0 1 17.262795610831972,29.930904695405495 A0.6280453562736524,0.5336368479005016 0 0 1 16.63475025455832,29.397267847504992 A0.6280453562736524,0.5336368479005016 0 0 1 17.262795610831972,28.863630999604492 M23.543249173568483,28.863630999604492 C23.89216326038718,28.863630999604492 24.171294529842136,29.100802932004715 24.171294529842136,29.397267847504992 C24.171294529842136,29.693732763005272 23.89216326038718,29.930904695405495 23.543249173568483,29.930904695405495 A0.6280453562736524,0.5336368479005016 0 0 1 22.91520381729483,29.397267847504992 A0.6280453562736524,0.5336368479005016 0 0 1 23.543249173568483,28.863630999604492 M20.403022392200228,25.83968886150165 C20.751936479018923,25.83968886150165 21.03106774847388,26.076860793901872 21.03106774847388,26.373325709402152 C21.03106774847388,26.66979062490243 20.751936479018923,26.906962557302652 20.403022392200228,26.906962557302652 C20.054108305381536,26.906962557302652 19.774977035926575,26.66979062490243 19.774977035926575,26.373325709402152 C19.774977035926575,26.076860793901872 20.054108305381536,25.83968886150165 20.403022392200228,25.83968886150165 z" id="svg_27"/>
		</g>
	</g>
</svg>