<?xml version="1.0" encoding="utf-8"?>
<svg viewBox="0 0 128 128" height="100%" width="100%" pointer-events="none" display="block" id="svg-1">
	<g class="currentLayer" style="" transform="matrix(3,0,0,2.4,-10,20)">
		<title>
			Layer 1
		</title>
		<g id="svg_1" class="" fill="#41e8e8" fill-opacity="1">
			<path fill="#41e8e8" d="M12.22221851348877,24.66666603088379 h26 c6,0 11,-4.9 11,-11 l0,0 c0,-6 -4.9,-11 -11,-11 h-26 c-6,0 -11,4.9 -11,11 l0,0 C1.2222185134887695,19.766666030883812 6.122218513488747,24.66666603088379 12.22221851348877,24.66666603088379 z" id="svg_1" class="" fill-opacity="1"/>
		</g>
		<g id="svg_2">
			<circle fill="#C5CAE9" cx="37.22221755981445" cy="13.666666030883789" r="12" id="svg_2" class=""/>
		</g>
		<g id="svg_3" class="" fill="#0bd5d5" fill-opacity="1">
			<path fill="#0bd5d5" d="M25.22221851348877,13.666666030883789 c0,-4.9 3,-9.2 7.2,-11 h-6.8 c-2.7,2.9 -4.4,6.7 -4.4,11 s1.7000000000000002,8.1 4.4,11 h6.8 C28.22221851348877,22.866666030883778 25.22221851348877,18.566666030883766 25.22221851348877,13.666666030883789 z" id="svg_3" class="" fill-opacity="1"/>
		</g>
		<g id="svg_4">
			<path fill="#9FA8DA" d="M37.22221851348877,23.66666603088379 c5.5,0 10,-4.5 10,-10 c0,-1.2 -0.2,-2.3 -0.6000000000000006,-3.3 l-9.4,3.3 l-4.5,8.9 C34.122218513488775,23.266666030883812 35.622218513488775,23.66666603088379 37.22221851348877,23.66666603088379 zM37.22221851348877,3.666666030883789 c-5.5,0 -10,4.5 -10,10 c0,1.2 0.2,2.3 0.6000000000000006,3.3 l9.4,-3.3 l4.5,-8.9 C40.322218513488764,4.066666030883766 38.822218513488764,3.666666030883789 37.22221851348877,3.666666030883789 z" id="svg_4" class=""/>
		</g>
		<g id="svg_5" class="">
			<path d="M20.189853522747228,8.266110504770893 h-1.8493145684949122 v-1.1829742398467453 c0,-0.8806259849975778 -0.7191778877480216,-1.5998038727455994 -1.5998038727455994,-1.5998038727455994 H9.678114681826145 c-0.8806259849975778,0 -1.5998038727455994,0.7191778877480216 -1.5998038727455994,1.5998038727455994 v1.1859096597967373 h-1.8493145684949122 c-0.6105673495983203,0 -1.1125241610469392,0.501956811448619 -1.1125241610469392,1.1125241610469392 v9.989234089822519 c0,0.6105967037978202 0.501956811448619,1.1125241610469392 1.1125241610469392,1.1125241610469392 h13.9579218622116 c0.6105673495983203,0 1.1124948068474394,-0.501956811448619 1.1124948068474394,-1.1125241610469392 v-9.989234089822519 C21.302377683794163,8.753390216469569 20.80042087234554,8.266110504770893 20.189853522747228,8.266110504770893 zM8.098858748730493,19.746537929189316 H7.488291399132166 V8.985288392518925 h0.6105673495983203 V19.746537929189316 zM16.326840868557852,15.237732886001709 c0,0.32289619449911183 -0.2524754698988057,0.575371664397917 -0.5577297904984659,0.575371664397917 h-1.0949116413469877 v1.0949116413469877 c0,0.32289619449911183 -0.23483359599935388,0.5577297904984659 -0.5577297904984659,0.5577297904984659 H12.337605156518833 c-0.32289619449911183,0 -0.5577297904984659,-0.2524754698988057 -0.5577297904984659,-0.5577297904984659 v-1.0949116413469877 h-1.0949116413469877 c-0.32289619449911183,0 -0.5577297904984659,-0.2524754698988057 -0.5577297904984659,-0.575371664397917 v-1.7612519699951545 c0,-0.32289619449911183 0.25244611569930564,-0.5753423101984175 0.5577297904984659,-0.5753423101984175 H11.779875366020363 v-1.0949116413469877 c0,-0.32289619449911183 0.25244611569930564,-0.5753423101984175 0.5577297904984659,-0.5753423101984175 l0,0 h1.778893843894606 c0.32289619449911183,0 0.5577297904984659,0.25244611569930564 0.5577297904984659,0.5753423101984175 v1.0949116413469877 h1.0949116413469877 c0.32289619449911183,0 0.5577297904984659,0.25244611569930564 0.5577297904984659,0.5753423101984175 V15.237732886001709 L16.326840868557852,15.237732886001709 zM17.368914950804992,8.266110504770893 H9.067547332227818 v-1.1829742398467453 c0,-0.35812123389901496 0.2700586353992574,-0.6281798692982723 0.6281798692982723,-0.6281798692982723 h7.059684979730577 c0.35812123389901496,0 0.6281798692982723,0.2700586353992574 0.6281798692982723,0.6281798692982723 v1.1859096597967373 h-0.014677099749959637 V8.266110504770893 zM18.948170883900644,19.746537929189316 h-0.6105673495983203 V8.985288392518925 h0.6105673495983203 V19.746537929189316 z" id="svg_7"/>
		</g>
	</g>
</svg>