<?xml version="1.0" encoding="utf-8"?>
<svg viewBox="0 0 128 128" height="100%" width="100%" pointer-events="none" display="block" id="svg-1">
	<g class="currentLayer" style="" transform="matrix(3,0,0,2.4,-10,20)">
		<title>
			Layer 1
		</title>
		<g id="svg_1" class="" fill="#41e841" fill-opacity="1">
			<path fill="#41e841" d="M12.22221851348877,24.66666603088379 h26 c6,0 11,-4.9 11,-11 l0,0 c0,-6 -4.9,-11 -11,-11 h-26 c-6,0 -11,4.9 -11,11 l0,0 C1.2222185134887695,19.766666030883812 6.122218513488747,24.66666603088379 12.22221851348877,24.66666603088379 z" id="svg_1" class="" fill-opacity="1" />
		</g>
		<g id="svg_2">
			<circle fill="#C5CAE9" cx="37.22221755981445" cy="13.666666030883789" r="12" id="svg_2" class="" />
		</g>
		<g id="svg_3" class="" fill="#0bd50b" fill-opacity="1">
			<path fill="#0bd50b" d="M25.22221851348877,13.666666030883789 c0,-4.9 3,-9.2 7.2,-11 h-6.8 c-2.7,2.9 -4.4,6.7 -4.4,11 s1.7000000000000002,8.1 4.4,11 h6.8 C28.22221851348877,22.866666030883778 25.22221851348877,18.566666030883766 25.22221851348877,13.666666030883789 z" id="svg_3" class="" fill-opacity="1" />
		</g>
		<g id="svg_4" class="">
			<path fill="#9FA8DA" d="M37.22221851348877,23.66666603088379 c5.5,0 10,-4.5 10,-10 c0,-1.2 -0.2,-2.3 -0.6000000000000006,-3.3 l-9.4,3.3 l-4.5,8.9 C34.122218513488775,23.266666030883812 35.622218513488775,23.66666603088379 37.22221851348877,23.66666603088379 zM37.22221851348877,3.666666030883789 c-5.5,0 -10,4.5 -10,10 c0,1.2 0.2,2.3 0.6000000000000006,3.3 l9.4,-3.3 l4.5,-8.9 C40.322218513488764,4.066666030883766 38.822218513488764,3.666666030883789 37.22221851348877,3.666666030883789 z" id="svg_4" class="" />
		</g>
		<g id="svg_5" class="">
			<path d="M19.951086322425056,14.428316373313775 H18.491029636710234 V20.9999999235977 H12.813031414485932 V18.264536645792013 L15.076119277343903,15.972662007630497 L15.652030525598084,16.071237260884757 C16.59295594528097,16.071237260884757 17.35542999226538,15.299064443726396 17.35542999226538,14.346170328935226 C17.35542999226538,13.393276214144057 16.59295594528097,12.621103396985697 15.652030525598084,12.621103396985697 A1.7033994666672911,1.7250669319495295 0 0 0 13.948631058930793,14.346170328935226 L14.029745319248283,14.929407244022924 L12.813031414485932,16.17802711857687 V11.676423886632383 C13.348385532581366,11.380698126869605 13.70528827797832,10.81389042065762 13.70528827797832,10.156722065629227 A1.7033994666672911,1.7250669319495295 0 0 0 12.001888811311032,8.431655133679698 A1.7033994666672911,1.7250669319495295 0 0 0 10.298489344643741,10.156722065629227 C10.298489344643741,10.81389042065762 10.655392090040696,11.380698126869605 11.190746208136131,11.676423886632383 V16.17802711857687 L9.97403230337378,14.929407244022924 L10.055146563691268,14.346170328935226 A1.7033994666672911,1.7250669319495295 0 0 0 8.35174709702398,12.621103396985697 A1.7033994666672911,1.7250669319495295 0 0 0 6.648347630356689,14.346170328935226 A1.7033994666672911,1.7250669319495295 0 0 0 8.35174709702398,16.071237260884757 L8.927658345278159,15.972662007630497 L11.190746208136131,18.264536645792013 V20.9999999235977 H5.512747985911827 V14.428316373313775 H4.093248430355752 C3.752568537022293,14.428316373313775 3.420000069720584,14.428316373313775 3.420000069720584,14.255809680118821 C3.4281114957523333,14.075088382486015 3.7687913890857914,13.730074996096109 4.117582708450999,13.376847005268347 L11.190746208136131,6.213711935458873 C11.458423267183848,5.942629989009662 11.734211752263313,5.663333438122595 12.001888811311032,5.663333438122595 C12.269565870358749,5.663333438122595 12.545354355438214,5.942629989009662 12.813031414485932,6.213711935458873 L16.057601827185536,9.499553710600834 V8.678093266815344 H17.679887033535334 V11.142474598171814 L19.93486347036156,13.426134631895478 C20.259320511631522,13.754718809409672 20.591888978933227,14.091517591361725 20.60000040496498,14.264024284556678 C20.60000040496498,14.428316373313775 20.275543363695014,14.428316373313775 19.951086322425056,14.428316373313775 M8.35174709702398,13.606855929528285 A0.730028342857411,0.7393143994069411 0 0 1 9.08177543988139,14.346170328935226 A0.730028342857411,0.7393143994069411 0 0 1 8.35174709702398,15.085484728342168 A0.730028342857411,0.7393143994069411 0 0 1 7.621718754166568,14.346170328935226 A0.730028342857411,0.7393143994069411 0 0 1 8.35174709702398,13.606855929528285 M15.652030525598084,13.606855929528285 C16.057601827185536,13.606855929528285 16.38205886845549,13.935440107042481 16.38205886845549,14.346170328935226 C16.38205886845549,14.756900550827972 16.057601827185536,15.085484728342168 15.652030525598084,15.085484728342168 A0.730028342857411,0.7393143994069411 0 0 1 14.922002182740671,14.346170328935226 A0.730028342857411,0.7393143994069411 0 0 1 15.652030525598084,13.606855929528285 M12.001888811311032,9.417407666222283 C12.407460112898482,9.417407666222283 12.731917154168443,9.74599184373648 12.731917154168443,10.156722065629227 C12.731917154168443,10.567452287521972 12.407460112898482,10.896036465036167 12.001888811311032,10.896036465036167 C11.596317509723582,10.896036465036167 11.27186046845362,10.567452287521972 11.27186046845362,10.156722065629227 C11.27186046845362,9.74599184373648 11.596317509723582,9.417407666222283 12.001888811311032,9.417407666222283 z" id="svg_6" />
		</g>
	</g>
</svg>
