<?xml version="1.0" encoding="utf-8"?>
<svg viewBox="0 0 128 128" height="100%" width="100%" pointer-events="none" display="block" id="svg-1">
	<g class="currentLayer" style="" transform="matrix(3,0,0,2.4,-10,20)">
		<title>
			Layer 1
		</title>
		<g id="svg_1">
			<path fill="#4141e8" d="M12.22221851348877,24.66666603088379 h26 c6,0 11,-4.9 11,-11 l0,0 c0,-6 -4.9,-11 -11,-11 h-26 c-6,0 -11,4.9 -11,11 l0,0 C1.2222185134887695,19.766666030883812 6.122218513488747,24.66666603088379 12.22221851348877,24.66666603088379 z" id="svg_1" class="" />
		</g>
		<g id="svg_2">
			<circle fill="#C5CAff" cx="37.22221755981445" cy="13.666666030883789" r="12" id="svg_2" class="" />
		</g>
		<g id="svg_3">
			<path fill="#2f4a55" d="M25.22221851348877,13.666666030883789 c0,-4.9 3,-9.2 7.2,-11 h-6.8 c-2.7,2.9 -4.4,6.7 -4.4,11 s1.7000000000000002,8.1 4.4,11 h6.8 C28.22221851348877,22.866666030883778 25.22221851348877,18.566666030883766 25.22221851348877,13.666666030883789 z" id="svg_3" class="" />
		</g>
		<g id="svg_4">
			<path fill="#9FA8DA" d="M37.22221851348877,23.66666603088379 c5.5,0 10,-4.5 10,-10 c0,-1.2 -0.2,-2.3 -0.6000000000000006,-3.3 l-9.4,3.3 l-4.5,8.9 C34.122218513488775,23.266666030883812 35.622218513488775,23.66666603088379 37.22221851348877,23.66666603088379 zM37.22221851348877,3.666666030883789 c-5.5,0 -10,4.5 -10,10 c0,1.2 0.2,2.3 0.6000000000000006,3.3 l9.4,-3.3 l4.5,-8.9 C40.322218513488764,4.066666030883766 38.822218513488764,3.666666030883789 37.22221851348877,3.666666030883789 z" id="svg_4" class="" />
		</g>
		<g id="svg_5" class="">
			<path d="M24.40025275126163,17.139280408263723 l-3.6189039601706625,-4.786036141112261 c-0.09741933386711962,-0.12882660861467715 -0.3410946268327476,-0.1243029755055589 -0.43288547616280004,0.006882384658872908 c-1.049352650985707,1.499745933998053 -2.8853812347498184,2.5451575455152997 -4.997967310617155,2.9098269974403674 c-0.16187182973142164,0.02794959028133828 -0.24122076587427566,0.16824683999413703 -0.15827467795961228,0.2779772545553218 l3.204723673221271,4.23809492493777 c0.3163800781887865,0.41840375092838067 1.1273896847176654,0.3602427538111449 1.3398755558500768,-0.09182975211510222 l0.9939988331324523,-2.1145076735272346 l2.8953686208456655,0.3996952968556704 C24.24612537769775,18.064880365719468 24.715405565904742,17.55606857593885 24.40025275126163,17.139280408263723 z" id="svg_7" />
			<path d="M11.984112098521367,15.269985960915765 c-2.113305506221699,-0.36483101025039355 -3.9490801733901533,-1.4107919200737473 -4.997967310617155,-2.9098269974403674 c-0.09179084933005324,-0.13121767182949706 -0.335466142295681,-0.13570899327355027 -0.43288547616280004,-0.006914696323938041 L2.9343130321381405,17.139280408263723 c-0.3148988980474534,0.41643273935940706 0.15370417923778415,0.9256322691208062 0.7739801029955475,0.8401032916934047 l2.8953686208456655,-0.3996952968556704 l0.9939988331324523,2.1145076735272346 c0.2124858711324102,0.4519109476009215 1.0234531582286794,0.5103304380386783 1.3398755558500768,0.09182975211510222 l3.204723673221271,-4.23809492493777 C12.225290544963032,15.438168177579776 12.14598392825279,15.297903239532046 11.984112098521367,15.269985960915765 z" id="svg_8" />
			<path d="M19.79602544164347,11.47914910380954 v-0.000032311665065131 c0.8030535531982892,-1.5486657949066611 0.5487137632150625,-3.2975669782219392 -0.6803695180632857,-4.678373673115244 C16.501203696396523,3.863386582953374 10.832938892677152,3.864194374580003 8.219375373578293,6.800452314043646 c-1.2292948784413944,1.381097499878892 -1.48384626558767,3.130095618189365 -0.6808350318219897,4.678696789765896 C9.737796615607941,15.719441221971744 17.607179748213774,15.699601859621753 19.79602544164347,11.47914910380954 zM17.289445448181482,9.500802786866771 l-1.2732224494900781,0.9475395780349648 l0.30055261039282505,1.3379937386820073 c0.1045289985455194,0.4653849119330811 -0.5375414330061487,0.8129291813736296 -1.0757599769340487,0.5967641420879037 L13.667282891699884,11.751407193648339 l-1.5737750598829037,0.6317253636883757 c-0.5427467232171197,0.21787755753417823 -1.179484906259987,-0.13496582497705217 -1.0757599769340487,-0.5967641420879037 l0.30055261039282505,-1.3379937386820073 l-1.2732224494900781,-0.9475395780349648 c-0.4391064327564001,-0.3268648037988648 -0.19631984787557263,-0.8981996654805103 0.4108793712058491,-0.9655371754762426 l1.7595150496060956,-0.1952270803235214 l0.7868452105088425,-1.2173419813288082 c0.2713945213248646,-0.4199223991864419 1.0581550929684882,-0.4201485808418983 1.3297188920237908,0 l0.7868452105088425,1.2173419813288082 l1.7595150496060956,0.1952270803235214 C17.48538442116357,8.602570809721195 17.72880579753354,9.173776424742575 17.289445448181482,9.500802786866771 z" id="svg_9" />
		</g>
	</g>
</svg>
