<?xml version="1.0" encoding="utf-8"?>
<svg viewBox="0 0 128 128" height="100%" width="100%" pointer-events="none" display="block" id="svg-1">
	<g class="currentLayer" style="" transform="matrix(2,0,0,2,18,8)">
		<title>
			Layer 1
		</title>
		<polygon style="" points="40,45 8,45 8,3 30,3 40,13 " id="svg_1" class="" fill="#ffffff" fill-opacity="1" />
		<polygon style="" points="38.5,14 29,14 29,4.5 " id="svg_2" class="" fill="#dadada" fill-opacity="1" />
		<g id="svg_3">
			<rect x="18" y="23" style="fill:#1976D2;" width="16" height="2" id="svg_4" />
			<rect x="18" y="19" style="fill:#1976D2;" width="16" height="2" id="svg_5" />
			<rect x="14" y="19" style="fill:#1976D2;" width="2" height="2" id="svg_6" />
			<rect x="14" y="23" style="fill:#1976D2;" width="2" height="2" id="svg_7" />
			<rect x="14" y="35" style="fill:#1976D2;" width="2" height="2" id="svg_8" />
			<rect x="14" y="27" style="fill:#1976D2;" width="2" height="2" id="svg_9" />
			<rect x="14" y="31" style="fill:#1976D2;" width="2" height="2" id="svg_10" />
		</g>
		<path style="" d="M48,38c0,5.523-4.478,10-10,10c-5.523,0-10-4.477-10-10s4.477-10,10-10C43.522,28,48,32.477,48,38" id="svg_11" class="" fill="#4141e8" fill-opacity="1" />
		<g id="svg_12">
			<path style="fill:#1976D2;" d="M33.219,27H18v2h12.089C31.018,28.182,32.069,27.502,33.219,27z" id="svg_13" />
			<path style="fill:#1976D2;" d="M26.395,35H18v2h8.051C26.108,36.315,26.227,35.648,26.395,35z" id="svg_14" />
			<path style="fill:#1976D2;" d="M28.273,31H18v2h9.105C27.431,32.293,27.822,31.625,28.273,31z" id="svg_15" />
		</g>
		<rect x="36" y="32" style="fill:#FFFFFF;" width="4" height="12" id="svg_16" />
		<rect x="32" y="36" style="fill:#FFFFFF;" width="12" height="4" id="svg_17" />
		<g id="svg_18" class="">
			<path d="M26.32703601181165,16.674599464306382 l-2.6561363719420585,-4.456050633005471 c-0.07150204560903042,-0.1199443284462896 -0.250350342141088,-0.11573258879680853 -0.31772129649642544,0.006407861038138867 c-0.7701845017035255,1.3963421130761264 -2.117758892992744,2.3696751460711716 -3.668315850769804,2.709201529528613 c-0.11880769958928812,0.02602253426286443 -0.17704676801540992,0.15664663110605206 -0.11616752848730408,0.2588114014606041 l2.3521439651759515,3.9458886260347743 c0.232210813628632,0.3895558337223484 0.8274606841983353,0.33540489537187995 0.9834171442343635,-0.08549831488446305 l0.7295569275694632,-1.968717531440586 l2.1250892504053116,0.3721372818862799 C26.21391244530075,17.536381564299468 26.558346061181954,17.062651105296773 26.32703601181165,16.674599464306382 z" id="svg_19" />
			<path d="M17.21406613202059,14.934188305722301 c-1.5510849919974574,-0.3396768027306385 -2.8984730182677128,-1.3135212612545488 -3.668315850769804,-2.709201529528613 c-0.06737095435533749,-0.12217053368958647 -0.2462192508873958,-0.12635218948442842 -0.31772129649642544,-0.006437944892778021 L10.571861551975807,16.674599464306382 c-0.2311236843513444,0.38772071858936 0.11281295814595926,0.8618121838477163 0.568071638637515,0.7821802206178886 l2.1250892504053116,-0.3721372818862799 l0.7295569275694632,1.968717531440586 c0.1559564600360306,0.42075279098314616 0.7511752697692395,0.475144400170728 0.9834171442343635,0.08549831488446305 l2.3521439651759515,-3.9458886260347743 C17.3910818391995,15.090774769119076 17.332873831609877,14.960180756130534 17.21406613202059,14.934188305722301 z" id="svg_20" />
			<path d="M22.947710183781385,11.404720395602638 v-0.000030083854639149648 c0.5894104333088452,-1.4418890689997994 0.40273480598031586,-3.0702077851984084 -0.4993650683129375,-4.355811229347824 C20.529437697709845,4.314046108719008 16.369149257712664,4.3147982050849905 14.450894117520443,7.048608327708424 c-0.9022551784757223,1.28587419884117 -1.0890861099867204,2.9142831666036964 -0.49970673751437056,4.356112067894217 C15.565356930922704,15.352654723752874 21.341181598642258,15.334183237004439 22.947710183781385,11.404720395602638 zM21.10797683824582,9.562776227611428 l-0.9344963267564225,0.8822090372930624 l0.22059406077990198,1.245742336752544 c0.0767202661400111,0.4332977583676713 -0.3945347451459188,0.7568796988663636 -0.7895664636757385,0.5556187113304536 L18.44944878189373,11.658206954792117 l-1.1550903875363252,0.5881694420500126 c-0.3983552280346724,0.20285543183178575 -0.8656965739223649,-0.12566026082772774 -0.7895664636757385,-0.5556187113304536 l0.22059406077990198,-1.245742336752544 l-0.9344963267564225,-0.8822090372930624 c-0.32228723946103327,-0.30432827352963804 -0.1440912204953486,-0.8362709912590803 0.3015696615195818,-0.8989657443270671 l1.2914163989081904,-0.1817666497297417 l0.5775141329316674,-1.1334092235299593 c0.19919314443558303,-0.39096977489038837 0.7766451556942636,-0.3911803618728634 0.9759625434758215,0 l0.5775141329316674,1.1334092235299593 l1.2914163989081904,0.1817666497297417 C21.251788511212716,8.726475152497715 21.430450442725817,9.258297534808595 21.10797683824582,9.562776227611428 z" id="svg_21" />
		</g>
	</g>
</svg>
