<?xml version="1.0" encoding="utf-8"?>
<svg viewBox="0 0 128 128" height="100%" width="100%" pointer-events="none" display="block" id="svg-1">
	<g class="currentLayer" style="" transform="matrix(2,0,0,2,18,8)">
		<title>
			Layer 1
		</title>
		<polygon style="" points="40,45 8,45 8,3 30,3 40,13 " id="svg_1" class="" fill="#ffffff" fill-opacity="1" />
		<polygon style="" points="38.5,14 29,14 29,4.5 " id="svg_2" class="" fill="#dadada" fill-opacity="1" />
		<g id="svg_3">
			<rect x="18" y="23" style="fill:#1976D2;" width="16" height="2" id="svg_4" />
			<rect x="18" y="19" style="fill:#1976D2;" width="16" height="2" id="svg_5" />
			<rect x="14" y="19" style="fill:#1976D2;" width="2" height="2" id="svg_6" />
			<rect x="14" y="23" style="fill:#1976D2;" width="2" height="2" id="svg_7" />
			<rect x="14" y="35" style="fill:#1976D2;" width="2" height="2" id="svg_8" />
			<rect x="14" y="27" style="fill:#1976D2;" width="2" height="2" id="svg_9" />
			<rect x="14" y="31" style="fill:#1976D2;" width="2" height="2" id="svg_10" />
		</g>
		<path style="" d="M48,38c0,5.523-4.478,10-10,10c-5.523,0-10-4.477-10-10s4.477-10,10-10C43.522,28,48,32.477,48,38" id="svg_11" class="" fill="#41e841" fill-opacity="1" />
		<g id="svg_12">
			<path style="fill:#1976D2;" d="M33.219,27H18v2h12.089C31.018,28.182,32.069,27.502,33.219,27z" id="svg_13" />
			<path style="fill:#1976D2;" d="M26.395,35H18v2h8.051C26.108,36.315,26.227,35.648,26.395,35z" id="svg_14" />
			<path style="fill:#1976D2;" d="M28.273,31H18v2h9.105C27.431,32.293,27.822,31.625,28.273,31z" id="svg_15" />
		</g>
		<rect x="36" y="32" style="fill:#FFFFFF;" width="4" height="12" id="svg_16" />
		<rect x="32" y="36" style="fill:#FFFFFF;" width="12" height="4" id="svg_17" />
		<g id="svg_18" class="">
			<path d="M24.856846712856917,11.285163245262869 H23.634750356694465 V16.19999976812888 H18.882153416062703 V14.154199065485903 L20.776402768114504,12.440149828136382 L21.258451886378584,12.513872375979371 C22.046025093683276,12.513872375979371 22.684230968568112,11.936379084542615 22.684230968568112,11.223727788727045 C22.684230968568112,10.511076492911474 22.046025093683276,9.933583201474718 21.258451886378584,9.933583201474718 A1.4257790821895286,1.2901445872523278 0 0 0 19.832672804189055,11.223727788727045 L19.90056704619808,11.659919530131402 L18.882153416062703,12.593738469475944 V9.227075451312729 C19.33025541332227,9.005907807783757 19.62899007816198,8.582003157686563 19.62899007816198,8.09051950539996 A1.4257790821895286,1.2901445872523278 0 0 0 18.20321099597245,6.800374918147635 A1.4257790821895286,1.2901445872523278 0 0 0 16.777431913782927,8.09051950539996 C16.777431913782927,8.582003157686563 17.076166578622633,9.005907807783757 17.5242685758822,9.227075451312729 V12.593738469475944 L16.505854945746822,11.659919530131402 L16.573749187755844,11.223727788727045 A1.4257790821895286,1.2901445872523278 0 0 0 15.14797010556632,9.933583201474718 A1.4257790821895286,1.2901445872523278 0 0 0 13.722191023376793,11.223727788727045 A1.4257790821895286,1.2901445872523278 0 0 0 15.14797010556632,12.513872375979371 L15.630019223830397,12.440149828136382 L17.5242685758822,14.154199065485903 V16.19999976812888 H12.771671635250438 V11.285163245262869 H11.583522400092498 C11.298366583654593,11.285163245262869 11.02000019141759,11.285163245262869 11.02000019141759,11.156148786537637 C11.026789615618492,11.02099078215882 11.3119454320564,10.762961864708355 11.603890672695206,10.498789401604308 L17.5242685758822,5.1416175916803555 C17.74831957451198,4.938880585112132 17.979159997342666,4.730000032890327 18.20321099597245,4.730000032890327 C18.427261994602233,4.730000032890327 18.658102417432918,4.938880585112132 18.882153416062703,5.1416175916803555 L21.59792309642371,7.599035853113362 V6.98468128775511 H22.955807936604213 V8.827744983829863 L24.843267864455115,10.535650675525803 C25.11484483249121,10.781392501669103 25.39321122472822,11.033277873465986 25.40000064892912,11.16229233219122 C25.40000064892912,11.285163245262869 25.12842368089302,11.285163245262869 24.856846712856917,11.285163245262869 M15.14797010556632,10.670808679904617 A0.6110481780812301,0.5529191088224297 0 0 1 15.759018283647547,11.223727788727045 A0.6110481780812301,0.5529191088224297 0 0 1 15.14797010556632,11.77664689754947 A0.6110481780812301,0.5529191088224297 0 0 1 14.536921927485091,11.223727788727045 A0.6110481780812301,0.5529191088224297 0 0 1 15.14797010556632,10.670808679904617 M21.258451886378584,10.670808679904617 C21.59792309642371,10.670808679904617 21.86950006445981,10.916550506047919 21.86950006445981,11.223727788727045 C21.86950006445981,11.53090507140617 21.59792309642371,11.77664689754947 21.258451886378584,11.77664689754947 A0.6110481780812301,0.5529191088224297 0 0 1 20.647403708297357,11.223727788727045 A0.6110481780812301,0.5529191088224297 0 0 1 21.258451886378584,10.670808679904617 M18.20321099597245,7.537600396577536 C18.542682206017577,7.537600396577536 18.814259174053678,7.783342222720836 18.814259174053678,8.09051950539996 C18.814259174053678,8.397696788079088 18.542682206017577,8.643438614222386 18.20321099597245,8.643438614222386 C17.863739785927326,8.643438614222386 17.592162817891225,8.397696788079088 17.592162817891225,8.09051950539996 C17.592162817891225,7.783342222720836 17.863739785927326,7.537600396577536 18.20321099597245,7.537600396577536 z" id="svg_19" />
		</g>
	</g>
</svg>
