<?xml version="1.0" encoding="utf-8"?>
<svg viewBox="0 0 128 128" height="100%" width="100%" pointer-events="none" display="block" id="svg-1">
	<g class="currentLayer" style="" transform="matrix(2,0,0,2,18,8)">
		<title>
			Layer 1
		</title>
		<polygon style="" points="40,45 8,45 8,3 30,3 40,13 " id="svg_1" class="" fill="#ffffff" fill-opacity="1" />
		<polygon style="" points="38.5,14 29,14 29,4.5 " id="svg_2" class="" fill="#dadada" fill-opacity="1" />
		<g id="svg_3">
			<rect x="18" y="23" style="fill:#1976D2;" width="16" height="2" id="svg_4" />
			<rect x="18" y="19" style="fill:#1976D2;" width="16" height="2" id="svg_5" />
			<rect x="14" y="19" style="fill:#1976D2;" width="2" height="2" id="svg_6" />
			<rect x="14" y="23" style="fill:#1976D2;" width="2" height="2" id="svg_7" />
			<rect x="14" y="35" style="fill:#1976D2;" width="2" height="2" id="svg_8" />
			<rect x="14" y="27" style="fill:#1976D2;" width="2" height="2" id="svg_9" />
			<rect x="14" y="31" style="fill:#1976D2;" width="2" height="2" id="svg_10" />
		</g>
		<path style="" d="M48,38c0,5.523-4.478,10-10,10c-5.523,0-10-4.477-10-10s4.477-10,10-10C43.522,28,48,32.477,48,38" id="svg_11" class="" fill="#41e8e8" fill-opacity="1" />
		<g id="svg_12">
			<path style="fill:#1976D2;" d="M33.219,27H18v2h12.089C31.018,28.182,32.069,27.502,33.219,27z" id="svg_13" />
			<path style="fill:#1976D2;" d="M26.395,35H18v2h8.051C26.108,36.315,26.227,35.648,26.395,35z" id="svg_14" />
			<path style="fill:#1976D2;" d="M28.273,31H18v2h9.105C27.431,32.293,27.822,31.625,28.273,31z" id="svg_15" />
		</g>
		<rect x="36" y="32" style="fill:#FFFFFF;" width="4" height="12" id="svg_16" />
		<rect x="32" y="36" style="fill:#FFFFFF;" width="12" height="4" id="svg_17" />
		<g id="svg_18" class="">
			<path d="M23.30063084159041,7.242300785624576 h-1.3313508735916708 v-0.8044235667596258 c0,-0.5988264764959996 -0.5177475619523162,-1.0878680989677325 -1.1517241684245403,-1.0878680989677325 H15.733063415666962 c-0.6339766064722242,0 -1.1517241684245403,0.4890416224717329 -1.1517241684245403,1.0878680989677325 v0.8064196550146127 h-1.3313508735916708 c-0.43955711382074225,0 -0.8009237795099098,0.34133109160271985 -0.8009237795099098,0.756517448639946 v6.792688331719622 c0,0.41520631791977625 0.36136666568916814,0.756517448639946 0.8009237795099098,0.756517448639946 h10.04852921258475 c0.43955711382074225,0 0.8009026469563608,-0.34133109160271985 0.8009026469563608,-0.756517448639946 v-6.792688331719622 C24.101554621100323,7.573651435952357 23.740187955411155,7.242300785624576 23.30063084159041,7.242300785624576 zM14.596132034726779,15.049001950877418 H14.156574920906035 V7.731342408096306 h0.43955711382074225 V15.049001950877418 zM20.519586794532252,11.983010391217903 c0,0.21956970804853324 -0.1817610930755868,0.39125325885993634 -0.4015185174324087,0.39125325885993634 h-0.7882442473804653 v0.7445409191100261 c0,0.21956970804853324 -0.16906042839259325,0.3792567684474664 -0.4015185174324087,0.3792567684474664 H17.64767276721308 c-0.23245808903981555,0 -0.4015185174324087,-0.17168355081140313 -0.4015185174324087,-0.3792567684474664 v-0.7445409191100261 h-0.7882442473804653 c-0.23245808903981555,0 -0.4015185174324087,-0.17168355081140313 -0.4015185174324087,-0.39125325885993634 v-1.197652952991999 c0,-0.21956970804853324 0.18173996052203767,-0.39123329797738676 0.4015185174324087,-0.39123329797738676 H17.246154249780673 v-0.7445409191100261 c0,-0.21956970804853324 0.18173996052203767,-0.39123329797738676 0.4015185174324087,-0.39123329797738676 l0,0 h1.2806538776274419 c0.23245808903981555,0 0.4015185174324087,0.17166358992885325 0.4015185174324087,0.39123329797738676 v0.7445409191100261 h0.7882442473804653 c0.23245808903981555,0 0.4015185174324087,0.17166358992885325 0.4015185174324087,0.39123329797738676 V11.983010391217903 L20.519586794532252,11.983010391217903 zM21.269792445524384,7.242300785624576 H15.293506301846225 v-0.8044235667596258 c0,-0.2435227671083732 0.19441949265148223,-0.4271628865671465 0.45223664595018664,-0.4271628865671465 h5.08237912855233 c0.25781715329870447,0 0.45223664595018664,0.18364011945877334 0.45223664595018664,0.4271628865671465 v0.8064196550146127 h-0.010566276774537076 V7.242300785624576 zM22.406723826464575,15.049001950877418 h-0.43955711382074225 V7.731342408096306 h0.43955711382074225 V15.049001950877418 z" id="svg_19" />
		</g>
	</g>
</svg>
