<?xml version="1.0" encoding="utf-8"?>
<svg viewBox="0 0 128 128" height="100%" width="100%" pointer-events="none" display="block" id="svg-1">
	<g class="currentLayer" style="" transform="matrix(0.3,0,0,0.2,13,20)">
		<title>
			Layer 1
		</title>
		<g transform="translate(0,352) scale(0.10000000149011612,-0.10000000149011612) " fill="#4141e8" stroke="none" id="svg_1" class="" fill-opacity="1">
			<g id="svg_2" fill="#4141e8" fill-opacity="1">
				<path d="M0 1760 l0 -1760 1760 0 1760 0 0 1760 0 1760 -1760 0 -1760 0 0 -1760z m960 1120 l0 -320 -320 0 -320 0 0 320 0 320 320 0 320 0 0 -320z m2240 0 l0 -320 -960 0 -960 0 0 320 0 320 960 0 960 0 0 -320z m-2240 -1600 l0 -960 -320 0 -320 0 0 960 0 960 320 0 320 0 0 -960z m2240 0 l0 -960 -960 0 -960 0 0 960 0 960 960 0 960 0 0 -960z" id="svg_3" fill="#4141e8" fill-opacity="1" />
			</g>
			<g id="svg_4" fill="#4141e8" fill-opacity="1">
				<path d="M2315 1840 l-240 -240 163 0 164 0 -4 -182 c-3 -167 -5 -186 -25 -218 -42 -68 -66 -75 -270 -78 l-183 -4 0 164 0 163 -242 -243 -243 -242 243 -242 242 -243 0 162 0 162 218 3 c199 3 222 5 275 27 132 52 246 174 287 307 17 57 20 93 20 265 l0 199 162 0 163 0 -240 240 c-132 132 -242 240 -245 240 -3 0 -113 -108 -245 -240z" id="svg_5" fill="#4141e8" fill-opacity="1" />
			</g>
		</g>
		<g id="svg_6" class="">
			<path d="M90.94963651640423,81.74847271949686 l-9.022819094835812,-17.077782739019018 c-0.24289039872198762,-0.4596857959402708 -0.8504329338397999,-0.4435443333288744 -1.0792901340257213,0.024558082401624718 c-2.616294668423285,5.351471336485491 -7.193966235996451,9.081763345979226 -12.461163761713921,10.382995824780805 c-0.40358634887558775,0.09973117970612848 -0.6014227944028362,0.6003471129824404 -0.39461776334501897,0.9918928774703157 l7.990165605569048,15.12259043213286 c0.7888134756062463,1.4929699953926672 2.81086021805115,1.285436904674712 3.3406398409803857,-0.3276716910113491 l2.478283964023476,-7.545096105374278 l7.218867249940147,1.4262135178783912 C90.56535900461206,85.0512465621116 91.73539012165296,83.23567790681406 90.94963651640423,81.74847271949686 z" id="svg_7" />
			<path d="M59.99313913523884,75.0783591838218 c-5.268991242823584,-1.3018089596091285 -9.846029733771061,-5.034061003848531 -12.461163761713921,-10.382995824780805 c-0.22885720018592165,-0.4682177118920084 -0.8363997353037337,-0.48424387834189525 -1.0792901340257213,-0.024673378563134698 L37.42976063189244,81.74847271949686 c-0.7851205286230712,1.4859369295405587 0.38322238408264947,3.3028891387762553 1.9297230678655215,2.997700199259352 l7.218867249940147,-1.4262135178783912 l2.478283964023476,7.545096105374278 c0.529779622929235,1.612532114878511 2.551720852603191,1.8209875748885465 3.3406398409803857,0.3276716910113491 l7.990165605569048,-15.12259043213286 C60.594456416870734,75.67847570448123 60.39672548411444,75.1779750673664 59.99313913523884,75.0783591838218 z" id="svg_8" />
			<path d="M79.47016357558923,61.551698219310005 v-0.00011529616150997518 c2.002210341506705,-5.526029725011595 1.3680785881100301,-11.766549762900505 -1.6963288185288419,-16.693615928867775 C71.25536128067216,34.37673883989342 57.12298073991502,34.379621243931155 50.606723031716704,44.85692932882712 c-3.0649349704936113,4.9281038314208665 -3.699594287745025,11.168969757794304 -1.6974894590092682,16.69476889048288 C54.39252125332613,76.68212879042555 74.0128320366237,76.61133694725844 79.47016357558923,61.551698219310005 zM73.22064215234712,54.49246013853877 l-3.174457226737496,3.3810599362800184 l0.7493516992717442,4.774298751966557 c0.26061654424122904,1.660610614228171 -1.340223216579794,2.9007361274294623 -2.6821346374947534,2.129404806927729 L64.18969857414834,62.52318367619305 l-3.9238089260092406,2.254155253681522 c-1.3532012874063812,0.7774420170617617 -2.9407464390879725,-0.48159206662716597 -2.6821346374947534,-2.129404806927729 l0.7493516992717442,-4.774298751966557 l-3.174457226737496,-3.3810599362800184 c-1.0948005113550574,-1.1663359698349078 -0.4894737444271504,-3.2050026976542867 1.0244234931328309,-3.445279898241075 l4.386904477699424,-0.6966194078432693 l1.9617989502336723,-4.34378288488831 c0.6766534000886647,-1.498388914983636 2.6382413247804415,-1.4991959881142056 3.3153167759528976,0 l1.9617989502336723,4.34378288488831 l4.386904477699424,0.6966194078432693 C73.70916628183573,51.28734214472297 74.31607574032788,53.3255476878963 73.22064215234712,54.49246013853877 z" id="svg_9" />
		</g>
	</g>
</svg>
