<?xml version="1.0" encoding="utf-8"?>
<svg viewBox="0 0 128 128" height="100%" width="100%" pointer-events="none" display="block" id="svg-1">
	<g class="currentLayer" style="" transform="matrix(0.3,0,0,0.2,13,20)">
		<title>
			Layer 1
		</title>
		<g transform="translate(0,352) scale(0.10000000149011612,-0.10000000149011612) " fill="#41e8e8" stroke="none" id="svg_1" class="selected" fill-opacity="1">
			<g id="svg_2" fill="#41e8e8" fill-opacity="1">
				<path d="M0 1760 l0 -1760 1760 0 1760 0 0 1760 0 1760 -1760 0 -1760 0 0 -1760z m960 1120 l0 -320 -320 0 -320 0 0 320 0 320 320 0 320 0 0 -320z m2240 0 l0 -320 -960 0 -960 0 0 320 0 320 960 0 960 0 0 -320z m-2240 -1600 l0 -960 -320 0 -320 0 0 960 0 960 320 0 320 0 0 -960z m2240 0 l0 -960 -960 0 -960 0 0 960 0 960 960 0 960 0 0 -960z" id="svg_3" fill="#41e8e8" fill-opacity="1" />
			</g>
			<g id="svg_4" fill="#41e8e8" fill-opacity="1">
				<path d="M2315 1840 l-240 -240 163 0 164 0 -4 -182 c-3 -167 -5 -186 -25 -218 -42 -68 -66 -75 -270 -78 l-183 -4 0 164 0 163 -242 -243 -243 -242 243 -242 242 -243 0 162 0 162 218 3 c199 3 222 5 275 27 132 52 246 174 287 307 17 57 20 93 20 265 l0 199 162 0 163 0 -240 240 c-132 132 -242 240 -245 240 -3 0 -113 -108 -245 -240z" id="svg_5" fill="#41e8e8" fill-opacity="1" />
			</g>
		</g>
		<g id="svg_6" class="">
			<path d="M86.76912172744771,46.55985287423884 h-6.217287987777594 v-4.0852077335305275 c0,-3.0410975683850077 -2.417834217469064,-5.5246605825660975 -5.378447544982204,-5.5246605825660975 H51.429267308032536 c-2.9606133275131397,0 -5.378447544982204,2.4835630141810894 -5.378447544982204,5.5246605825660975 v4.095344725425143 h-6.217287987777594 c-2.052691907075777,0 -3.7402415037582664,1.7334256139794548 -3.7402415037582664,3.841919928059726 v34.49618341738061 c0,2.108595683999218 1.68754959668249,3.841919928059726 3.7402415037582664,3.841919928059726 h46.92572124108326 c2.052691907075777,0 3.7401428166473494,-1.7334256139794548 3.7401428166473494,-3.841919928059726 v-34.49618341738061 C90.50936323120598,48.24259352874522 88.82181363452348,46.55985287423884 86.76912172744771,46.55985287423884 zM46.1199007406923,86.20562817408472 H44.067208833616526 V49.04341588841993 h2.052691907075777 V86.20562817408472 zM73.78189793075674,70.63520862395347 c0,1.1150691084078361 -0.8488078409980174,1.9869517812638176 -1.875055107424989,1.9869517812638176 h-3.6810292372080045 v3.781097976692026 c0,1.1150691084078361 -0.7894968873368374,1.9260284599771715 -1.875055107424989,1.9260284599771715 H60.370319557122215 c-1.0855582200881513,0 -1.875055107424989,-0.871882672855982 -1.875055107424989,-1.9260284599771715 v-3.781097976692026 h-3.6810292372080045 c-1.0855582200881513,0 -1.875055107424989,-0.871882672855982 -1.875055107424989,-1.9869517812638176 v-6.082195136770015 c0,-1.1150691084078361 0.8487091538871002,-1.9868504113448722 1.875055107424989,-1.9868504113448722 H58.49526444969723 v-3.781097976692026 c0,-1.1150691084078361 0.8487091538871002,-1.9868504113448722 1.875055107424989,-1.9868504113448722 l0,0 h5.9805376086874595 c1.0855582200881513,0 1.875055107424989,0.8717813029370356 1.875055107424989,1.9868504113448722 v3.781097976692026 h3.6810292372080045 c1.0855582200881513,0 1.875055107424989,0.8717813029370356 1.875055107424989,1.9868504113448722 V70.63520862395347 L73.78189793075674,70.63520862395347 zM77.28529036831395,46.55985287423884 H49.37657540095676 v-4.0852077335305275 c0,-1.2367130111432363 0.9079214204373628,-2.1693162654479723 2.1119041736260398,-2.1693162654479723 h23.73425017556367 c1.2039827531886769,0 2.1119041736260398,0.9326032543047358 2.1119041736260398,2.1693162654479723 v4.095344725425143 h-0.04934355545855244 V46.55985287423884 zM82.59465693565419,86.20562817408472 h-2.052691907075777 V49.04341588841993 h2.052691907075777 V86.20562817408472 z" id="svg_7" />
		</g>
	</g>
</svg>
