<?xml version="1.0" encoding="utf-8"?>
<svg viewBox="0 0 128 128" height="100%" width="100%" pointer-events="none" display="block" id="svg-1">
	<g class="currentLayer" transform="matrix(0.3,0,0,0.2,13,20)">
		<title>
			Layer 1
		</title>
		<g transform="translate(0,352) scale(0.10000000149011612,-0.10000000149011612) " fill="#41e841" stroke="none" id="svg_1" class="" fill-opacity="1">
			<g id="svg_2" fill="#41e841" fill-opacity="1">
				<path d="M0 1760 l0 -1760 1760 0 1760 0 0 1760 0 1760 -1760 0 -1760 0 0 -1760z m960 1120 l0 -320 -320 0 -320 0 0 320 0 320 320 0 320 0 0 -320z m2240 0 l0 -320 -960 0 -960 0 0 320 0 320 960 0 960 0 0 -320z m-2240 -1600 l0 -960 -320 0 -320 0 0 960 0 960 320 0 320 0 0 -960z m2240 0 l0 -960 -960 0 -960 0 0 960 0 960 960 0 960 0 0 -960z" id="svg_3" fill="#41e841" fill-opacity="1" />
			</g>
			<g id="svg_4" fill="#41e841" fill-opacity="1">
				<path d="M2315 1840 l-240 -240 163 0 164 0 -4 -182 c-3 -167 -5 -186 -25 -218 -42 -68 -66 -75 -270 -78 l-183 -4 0 164 0 163 -242 -243 -243 -242 243 -242 242 -243 0 162 0 162 218 3 c199 3 222 5 275 27 132 52 246 174 287 307 17 57 20 93 20 265 l0 199 162 0 163 0 -240 240 c-132 132 -242 240 -245 240 -3 0 -113 -108 -245 -240z" id="svg_5" fill="#41e841" fill-opacity="1" />
			</g>
		</g>
		<g id="svg_6" class="">
			<path d="M89.7459817671488,68.14558207658152 H85.12445258650979 V91.40000314922518 H67.15183910624684 V81.72035037773726 L74.31520933623737,73.61037102865278 L76.13814584637831,73.95918734474243 C79.116464651679,73.95918734474243 81.5299298904572,71.22679286870682 81.5299298904572,67.85490181317348 C81.5299298904572,64.48301075764014 79.116464651679,61.75061628160451 76.13814584637831,61.75061628160451 A5.391784044078882,6.104285531568962 0 0 0 70.74636180229943,67.85490181317348 L71.00311342344605,69.9187316833706 L67.15183910624684,74.3370716871729 V58.40779325241198 C68.84639980581449,57.36134430414301 69.9761069388596,55.35565048662751 69.9761069388596,53.03020837936314 A5.391784044078882,6.104285531568962 0 0 0 64.58432289478071,46.925922847794176 A5.391784044078882,6.104285531568962 0 0 0 59.19253885070182,53.03020837936314 C59.19253885070182,55.35565048662751 60.32224598374693,57.36134430414301 62.01680668331458,58.40779325241198 V74.3370716871729 L58.16553236611537,69.9187316833706 L58.42228398726199,67.85490181317348 A5.391784044078882,6.104285531568962 0 0 0 53.03049994318311,61.75061628160451 A5.391784044078882,6.104285531568962 0 0 0 47.63871589910422,67.85490181317348 A5.391784044078882,6.104285531568962 0 0 0 53.03049994318311,73.95918734474243 L54.85343645332405,73.61037102865278 L62.01680668331458,81.72035037773726 V91.40000314922518 H44.044193203051634 V68.14558207658152 H39.5510398329859 C38.47268302417012,68.14558207658152 37.42000137746903,68.14558207658152 37.42000137746903,67.53515352342463 C37.445676539583665,66.89565694392691 38.52403334839945,65.67479983761312 39.628065319329885,64.42487470495853 L62.01680668331458,39.07755573577693 C62.864087033098386,38.11831086653039 63.737042544996896,37.129997970943016 64.58432289478071,37.129997970943016 C65.43160324456451,37.129997970943016 66.30455875646304,38.11831086653039 67.15183910624684,39.07755573577693 L77.42190395211138,50.704766272098766 V47.79796363801831 H82.55693637504365 V56.518371540259686 L89.69463144291953,64.59928286300337 C90.72163792750598,65.76200391663556 91.77431957420708,66.95379299660856 91.79999473632174,67.5642215497654 C91.79999473632174,68.14558207658152 90.77298825173528,68.14558207658152 89.7459817671488,68.14558207658152 M53.03049994318311,65.23877944250106 A2.310764590319521,2.616122370672412 0 0 1 55.341264533502624,67.85490181317348 A2.310764590319521,2.616122370672412 0 0 1 53.03049994318311,70.47102418384587 A2.310764590319521,2.616122370672412 0 0 1 50.71973535286359,67.85490181317348 A2.310764590319521,2.616122370672412 0 0 1 53.03049994318311,65.23877944250106 M76.13814584637831,65.23877944250106 C77.42190395211138,65.23877944250106 78.44891043669783,66.40150049613325 78.44891043669783,67.85490181317348 C78.44891043669783,69.3083031302137 77.42190395211138,70.47102418384587 76.13814584637831,70.47102418384587 A2.310764590319521,2.616122370672412 0 0 1 73.8273812560588,67.85490181317348 A2.310764590319521,2.616122370672412 0 0 1 76.13814584637831,65.23877944250106 M64.58432289478071,50.41408600869072 C65.86808100051378,50.41408600869072 66.89508748510023,51.57680706232291 66.89508748510023,53.03020837936314 C66.89508748510023,54.48360969640336 65.86808100051378,55.64633075003555 64.58432289478071,55.64633075003555 C63.30056478904764,55.64633075003555 62.27355830446119,54.48360969640336 62.27355830446119,53.03020837936314 C62.27355830446119,51.57680706232291 63.30056478904764,50.41408600869072 64.58432289478071,50.41408600869072 z" id="svg_7" />
		</g>
	</g>
</svg>
