<?xml version="1.0" encoding="utf-8"?>
<svg viewBox="0 0 128 128" height="100%" width="100%" pointer-events="none" display="block" id="svg-1">
	<g class="currentLayer" style="" transform="matrix(2,0,0,2,25,8)">
		<title>
			Layer 1
		</title>
		<g id="svg_1" class="" fill="#41e8e8" stroke="#000" fill-opacity="1" stroke-opacity="1">
			<path style="" d="M20,37.5c-9.649,0-17.5-7.851-17.5-17.5S10.351,2.5,20,2.5S37.5,10.351,37.5,20S29.649,37.5,20,37.5z" id="svg_2" fill="#41e8e8" stroke="#000" fill-opacity="1" stroke-opacity="1" />
			<g id="svg_3" fill="#41e8e8" fill-opacity="1" stroke-opacity="1">
				<path style="" stroke="#000" d="M20,3c9.374,0,17,7.626,17,17s-7.626,17-17,17S3,29.374,3,20S10.626,3,20,3 M20,2C10.059,2,2,10.059,2,20s8.059,18,18,18s18-8.059,18-18S29.941,2,20,2L20,2z" id="svg_4" fill="#41e8e8" fill-opacity="1" stroke-opacity="1" />
			</g>
		</g>
		<g id="svg_5" class="" stroke="#000" fill="#e84141" fill-opacity="1" stroke-opacity="1">
			<path style="" stroke="#000" d="M20.5,19.5V2.507c9.253,0.261,16.732,7.74,16.993,16.993H20.5z" id="svg_6" fill="#e84141" fill-opacity="1" stroke-opacity="1" />
			<path style="" stroke="#000" d="M21,3.029c8.579,0.5,15.471,7.392,15.971,15.971H21V3.029 M20,2v18h18C38,10.059,29.941,2,20,2L20,2z" id="svg_7" fill="#e84141" fill-opacity="1" stroke-opacity="1" />
		</g>
		<g id="svg_8" class="">
			<path d="M19.271228145777396,21.999308577338695 h-1.4678595778584493 v-0.9389641426618338 c0,-0.6989807513611667 -0.5708342802782856,-1.269815031639452 -1.269815031639452,-1.269815031639452 H10.92772791036294 c-0.6989807513611667,0 -1.269815031639452,0.5708342802782856 -1.269815031639452,1.269815031639452 v0.9412940784997046 h-1.4678595778584493 c-0.4846266542770757,0 -0.8830456825529402,0.3984190282758649 -0.8830456825529402,0.8830456825529402 v7.928771656273497 c0,0.48464995363545427 0.3984190282758649,0.8830456825529402 0.8830456825529402,0.8830456825529402 h11.078844909074487 c0.4846266542770757,0 0.8830223831945615,-0.3984190282758649 0.8830223831945615,-0.8830456825529402 v-7.928771656273497 C20.15427382833034,22.386077926425195 19.755854800054486,21.999308577338695 19.271228145777396,21.999308577338695 zM9.674222429588589,31.111687639250434 H9.18959577531152 V22.570142857616982 h0.4846266542770757 V31.111687639250434 zM16.205032583139758,27.532906192281256 c0,0.2562929421657611 -0.20039778141524642,0.4566907235810074 -0.44268780919540546,0.4566907235810074 h-0.8690660675257168 v0.8690660675257168 c0,0.2562929421657611 -0.18639486702964436,0.44268780919540546 -0.44268780919540546,0.44268780919540546 H13.03864977947368 c-0.2562929421657611,0 -0.44268780919540546,-0.20039778141524642 -0.44268780919540546,-0.44268780919540546 v-0.8690660675257168 h-0.8690660675257168 c-0.2562929421657611,0 -0.44268780919540546,-0.20039778141524642 -0.44268780919540546,-0.4566907235810074 v-1.3979615027223327 c0,-0.2562929421657611 0.20037448205686773,-0.4566674242226285 0.44268780919540546,-0.4566674242226285 H12.595961970278273 v-0.8690660675257168 c0,-0.2562929421657611 0.20037448205686773,-0.4566674242226285 0.44268780919540546,-0.4566674242226285 l0,0 h1.4119644171079346 c0.2562929421657611,0 0.44268780919540546,0.20037448205686773 0.44268780919540546,0.4566674242226285 v0.8690660675257168 h0.8690660675257168 c0.2562929421657611,0 0.44268780919540546,0.20037448205686773 0.44268780919540546,0.4566674242226285 V27.532906192281256 L16.205032583139758,27.532906192281256 zM17.032159805583795,21.999308577338695 H10.44310125608587 v-0.9389641426618338 c0,-0.2842521722202078 0.21435409708409123,-0.4986062693042989 0.4986062693042989,-0.4986062693042989 h5.603495690078683 c0.2842521722202078,0 0.4986062693042989,0.21435409708409123 0.4986062693042989,0.4986062693042989 v0.9412940784997046 h-0.011649679189352788 V21.999308577338695 zM18.285665286358164,31.111687639250434 h-0.4846266542770757 V22.570142857616982 h0.4846266542770757 V31.111687639250434 z" id="svg_9" />
		</g>
	</g>
</svg>
