<?xml version="1.0" encoding="utf-8"?>
<svg viewBox="0 0 128 128" height="100%" width="100%" pointer-events="none" display="block" id="svg-1">
	<g class="currentLayer" style="" transform="matrix(2,0,0,2,25,8)">
		<title>
			visita calidad
		</title>
		<g id="svg_1" class="" fill="#41e841" fill-opacity="1" stroke-opacity="1">
			<path style="" d="M20,37.5c-9.649,0-17.5-7.851-17.5-17.5S10.351,2.5,20,2.5S37.5,10.351,37.5,20S29.649,37.5,20,37.5z" id="svg_2" fill="#41e841" fill-opacity="1" stroke="#000" stroke-opacity="1" />
			<g id="svg_3" fill="#41e841" fill-opacity="1" stroke="#000" stroke-opacity="1">
				<path style="" d="M20,3c9.374,0,17,7.626,17,17s-7.626,17-17,17S3,29.374,3,20S10.626,3,20,3 M20,2C10.059,2,2,10.059,2,20s8.059,18,18,18s18-8.059,18-18S29.941,2,20,2L20,2z" id="svg_4" fill="#41e841" fill-opacity="1" stroke="#000" stroke-opacity="1" />
			</g>
		</g>
		<g id="svg_5" class="" fill="#e84141" stroke="#000" fill-opacity="1" stroke-opacity="1">
			<path style="" stroke="#000" d="M20.5,19.5V2.507c9.253,0.261,16.732,7.74,16.993,16.993H20.5z" id="svg_6" fill="#e84141" fill-opacity="1" stroke-opacity="1" />
			<path style="" stroke="#000" d="M21,3.029c8.579,0.5,15.471,7.392,15.971,15.971H21V3.029 M20,2v18h18C38,10.059,29.941,2,20,2L20,2z" id="svg_7" fill="#e84141" fill-opacity="1" stroke-opacity="1" />
		</g>
		<g id="svg_8" class="">
			<path d="M22.55718330569132,27.67565797479722 H21.231337563465672 V33.568305718022316 H16.075270788143712 V31.11549109490487 L18.130331688593465,29.06043019445512 L18.653304175804692,29.148819910603493 C19.507738098572332,29.148819910603493 20.20012420840128,28.456433800774544 20.20012420840128,27.601999878006904 C20.20012420840128,26.747565955239267 19.507738098572332,26.05517984541032 18.653304175804692,26.05517984541032 A1.5468200325965884,1.5468200325965884 0 0 0 17.106484143208103,27.601999878006904 L17.180142239998418,28.12497236521813 L16.075270788143712,29.244575436430903 V25.208111732321708 C16.561414226959783,24.94294258387658 16.885509852837163,24.434701716023415 16.885509852837163,23.845436941700907 A1.5468200325965884,1.5468200325965884 0 0 0 15.338689820240575,22.298616909104318 A1.5468200325965884,1.5468200325965884 0 0 0 13.79186978764399,23.845436941700907 C13.79186978764399,24.434701716023415 14.115965413521366,24.94294258387658 14.602108852337437,25.208111732321708 V29.244575436430903 L13.497237400482732,28.12497236521813 L13.570895497273042,27.601999878006904 A1.5468200325965884,1.5468200325965884 0 0 0 12.024075464676457,26.05517984541032 A1.5468200325965884,1.5468200325965884 0 0 0 10.477255432079868,27.601999878006904 A1.5468200325965884,1.5468200325965884 0 0 0 12.024075464676457,29.148819910603493 L12.547047951887684,29.06043019445512 L14.602108852337437,31.11549109490487 V33.568305718022316 H9.446042077015477 V27.67565797479722 H8.157025383184987 C7.84766137666567,27.67565797479722 7.545663179825382,27.67565797479722 7.545663179825382,27.52097597153756 C7.553028989504414,27.358928158598868 7.862392996023733,27.04956415207955 8.179122812222081,26.7328343358812 L14.602108852337437,20.309848295765846 C14.845180571745473,20.06677657635781 15.095618100832539,19.816339047270745 15.338689820240575,19.816339047270745 C15.58176153964861,19.816339047270745 15.832199068735676,20.06677657635781 16.075270788143712,20.309848295765846 L19.02159465975626,23.256172167378395 V22.519591199475258 H20.494756595562535 V24.72933410318467 L22.54245168633326,26.777029193955393 C22.837084073494513,27.071661581116647 23.139082270334796,27.37365977795693 23.14644808001383,27.528341781216593 C23.14644808001383,27.67565797479722 22.851815692852572,27.67565797479722 22.55718330569132,27.67565797479722 M12.024075464676457,26.93907700689408 A0.6629228711128237,0.6629228711128237 0 0 1 12.686998335789283,27.601999878006904 A0.6629228711128237,0.6629228711128237 0 0 1 12.024075464676457,28.26492274911973 A0.6629228711128237,0.6629228711128237 0 0 1 11.361152593563633,27.601999878006904 A0.6629228711128237,0.6629228711128237 0 0 1 12.024075464676457,26.93907700689408 M18.653304175804692,26.93907700689408 C19.02159465975626,26.93907700689408 19.316227046917515,27.233709394055335 19.316227046917515,27.601999878006904 C19.316227046917515,27.970290361958472 19.02159465975626,28.26492274911973 18.653304175804692,28.26492274911973 A0.6629228711128237,0.6629228711128237 0 0 1 17.99038130469187,27.601999878006904 A0.6629228711128237,0.6629228711128237 0 0 1 18.653304175804692,26.93907700689408 M15.338689820240575,23.18251407058808 C15.706980304192143,23.18251407058808 16.001612691353397,23.477146457749335 16.001612691353397,23.845436941700907 C16.001612691353397,24.213727425652475 15.706980304192143,24.508359812813726 15.338689820240575,24.508359812813726 C14.970399336289006,24.508359812813726 14.675766949127752,24.213727425652475 14.675766949127752,23.845436941700907 C14.675766949127752,23.477146457749335 14.970399336289006,23.18251407058808 15.338689820240575,23.18251407058808 z" id="svg_9" />
		</g>
	</g>
</svg>
