<?xml version="1.0" encoding="utf-8"?>
<svg viewBox="0 0 128 128" height="100%" width="100%" pointer-events="none" display="block" id="svg-1">
	<g class="currentLayer" style="" transform="matrix(2,0,0,2,25,8)">
		<title>
			visita calidad
		</title>
		<g id="svg_1" class="" fill="#4141e8" fill-opacity="1" stroke-opacity="1">
			<path style="" d="M20,37.5c-9.649,0-17.5-7.851-17.5-17.5S10.351,2.5,20,2.5S37.5,10.351,37.5,20S29.649,37.5,20,37.5z" id="svg_2" fill="#4141e8" fill-opacity="1" stroke="#000" stroke-opacity="1" />
			<g id="svg_3" fill="#4141e8" fill-opacity="1" stroke="#000" stroke-opacity="1">
				<path style="" d="M20,3c9.374,0,17,7.626,17,17s-7.626,17-17,17S3,29.374,3,20S10.626,3,20,3 M20,2C10.059,2,2,10.059,2,20s8.059,18,18,18s18-8.059,18-18S29.941,2,20,2L20,2z" id="svg_4" fill="#4141e8" fill-opacity="1" stroke="#000" stroke-opacity="1" />
			</g>
		</g>
		<g id="svg_5" class="" fill="#e84141" stroke="#000" fill-opacity="1" stroke-opacity="1">
			<path style="" stroke="#000" d="M20.5,19.5V2.507c9.253,0.261,16.732,7.74,16.993,16.993H20.5z" id="svg_6" fill="#e84141" fill-opacity="1" stroke-opacity="1" />
			<path style="" stroke="#000" d="M21,3.029c8.579,0.5,15.471,7.392,15.971,15.971H21V3.029 M20,2v18h18C38,10.059,29.941,2,20,2L20,2z" id="svg_7" fill="#e84141" fill-opacity="1" stroke-opacity="1" />
		</g>
		<g id="svg_8" class="">
			<path d="M21.770547192556702,30.571924365863957 l-2.3911494815610355,-4.141771550369556 c-0.06436871280203833,-0.11148482099988133 -0.22537438105318383,-0.10757012951756806 -0.2860241369470244,0.005955923469519622 c-0.6933477856817294,1.2978600367969628 -1.906482713968625,2.202545238359581 -3.302349848233504,2.5181252959980718 c-0.10695496371320459,0.024187200944293313 -0.15938386749418712,0.1455985610600407 -0.10457818674179996,0.2405577915881564 l2.1174845848653154,3.667590563533341 c0.20904452515553376,0.36208100003197 0.7449098649202006,0.3117492524022267 0.8853074787251677,-0.07946823709096125 l0.6567733824041168,-1.8298666092433498 l1.9130817653245242,0.3458909545444028 C21.668709289852522,31.372926167309338 21.978780817333742,30.932607261795113 21.770547192556702,30.571924365863957 z" id="svg_9" />
			<path d="M13.56672398764668,28.954261997044025 c-1.39634248965916,-0.31571986804857316 -2.609309645453956,-1.2208804250054721 -3.302349848233504,-2.5181252959980718 c-0.06064975589384064,-0.11355401506910416 -0.22165542414498599,-0.11744074446940099 -0.2860241369470244,-0.005983885551536155 L7.587172558823123,30.571924365863957 c-0.2080658522849555,0.36037531302896214 0.10155828188401536,0.8010297635273645 0.511398518000208,0.7270141324296246 l1.9130817653245242,-0.3458909545444028 l0.6567733824041168,1.8298666092433498 c0.1403976138049672,0.39107767908310537 0.676234991487617,0.4416331233689809 0.8853074787251677,0.07946823709096125 l2.1174845848653154,-3.667590563533341 C13.726079893058888,29.099804633940032 13.67367895135993,28.97842123590629 13.56672398764668,28.954261997044025 z" id="svg_10" />
			<path d="M18.72835655540493,25.673722572783397 v-0.00002796208201652412 c0.53060846834556,-1.3401946289699804 0.3625563554262509,-2.85367028019636 -0.44954639257965734,-4.048601893090496 C16.55134069792646,19.083143727734743 12.806099432633188,19.083842779785147 11.079217171456737,21.62484105887274 c-0.8122425584159898,1.1951832716322863 -0.9804344817453818,2.7087428091047157 -0.4498539754818391,4.048881513910663 C12.082496674209613,29.343214557893873 17.282101749346285,29.326045839535723 18.72835655540493,25.673722572783397 zM17.072162437566245,23.961688177157686 l-0.8412671995491421,0.8199880551345677 l0.19858670648135368,1.1578818542222433 c0.06906634258081448,0.40273786728399585 -0.3551743657738885,0.7034980214537286 -0.7107961248600412,0.5164316927631828 L14.678859875689913,25.90933107585465 l-1.0398539060304954,0.5466866655050612 c-0.35861370186192104,0.18854831903742153 -0.7793311878825413,-0.11679761658302096 -0.7107961248600412,-0.5164316927631828 l0.19858670648135368,-1.1578818542222433 l-0.8412671995491421,-0.8199880551345677 c-0.29013456300345375,-0.2828644216791574 -0.12971609847465504,-0.7772899558953354 0.2714838542984317,-0.8355629348177711 l1.1625794840010193,-0.16894689954383849 l0.5198989909332312,-1.0534714399725422 c0.17932083197196882,-0.36339521788674695 0.6991638987411677,-0.3635909524608622 0.8785965790412005,0 l0.5198989909332312,1.0534714399725422 l1.1625794840010193,0.16894689954383849 C17.20162687730274,23.184370259180344 17.36246477306177,23.678683945068457 17.072162437566245,23.961688177157686 z" id="svg_11" />
		</g>
	</g>
</svg>
