<svg xmlns="http://www.w3.org/2000/svg" xmlns:xlink="http://www.w3.org/1999/xlink" width="76" height="76" version="1.1" xml:space="preserve" style="fill-rule:evenodd;clip-rule:evenodd;stroke-linejoin:round;stroke-miterlimit:1.41421;"><rect id="backgroundrect" width="100%" height="100%" x="0" y="0" fill="none" stroke="none"/>
    
<g class="currentLayer" style=""><title>Layer 1</title><g id="CIUM" class="" fill-opacity="1" fill="#428cd6">
        <g stroke-width="0" id="svg_1" fill="#428cd6">
            <path d="M42.92219258,8.957697401999999 C46.05279627600001,9.698461583 48.44206200000001,10.579804559 48.44206200000001,10.579804559 L48.44206200000001,17.153154255 C48.44206200000001,18.631239871000002 47.24398639200001,19.829315479 45.76590077600001,19.829315479 L25.871419224000004,19.829315479 C24.393333608000002,19.829315479 23.195258000000003,18.631239871000002 23.195258000000003,17.153154255 L23.195258000000003,10.579804559 C23.195258000000003,10.579804559 25.519685341000006,9.587146128999999 28.759309327000004,8.824004099 C29.762869786000003,5.8902107159999995 32.54460855400001,3.780954999999999 35.81866000000001,3.780954999999999 C39.142057472000005,3.780954999999999 41.958223700000005,5.954475307999999 42.92219258,8.957697401999999 zM35.81866000000001,7.797492 C37.72020337400001,7.797492 39.26140600000001,9.338694626 39.26140600000001,11.240238 C39.26140600000001,13.141781374 37.72020337400001,14.682984000000001 35.81866000000001,14.682984000000001 C33.91711662600001,14.682984000000001 32.37591400000001,13.141781374 32.37591400000001,11.240238 C32.37591400000001,9.338694626 33.91711662600001,7.797492 35.81866000000001,7.797492 z" style="" stroke-width="0" id="svg_2" fill="#428cd6"/>
        </g>
        <g stroke-width="0" id="svg_3" fill="#428cd6">
            <g stroke-width="0" id="svg_4" fill="#428cd6">
                <ellipse cx="33.44200134277344" cy="77.08599853515625" rx="8.402000427246094" ry="7.988999843597412" style="" transform="matrix(0.41919610616499997,0,0,0.440250125,7.649776005549999,10.859212967999998) " stroke-width="0" id="svg_5" fill="#428cd6"/>
            </g>
            <g stroke-width="0" id="svg_6" fill="#428cd6">
                <ellipse cx="33.44200134277344" cy="77.08599853515625" rx="8.402000427246094" ry="7.988999843597412" style="" transform="matrix(0.41919610616499997,0,0,0.440250125,14.3445212921,-4.633314716500001) " stroke-width="0" id="svg_7" fill="#428cd6"/>
            </g>
            <g stroke-width="0" id="svg_8" fill="#428cd6">
                <ellipse cx="33.44200134277344" cy="77.08599853515625" rx="8.402000427246094" ry="7.988999843597412" style="" transform="matrix(0.41919610616499997,0,0,0.440250125,26.1578661034,2.2677846086399986) " stroke-width="0" id="svg_9" fill="#428cd6"/>
            </g>
            <g stroke-width="0" id="svg_10" fill="#428cd6">
                <ellipse cx="33.44200134277344" cy="77.08599853515625" rx="8.402000427246094" ry="7.988999843597412" style="" transform="matrix(0.41919610616499997,0,0,0.440250125,35.752551541900004,-9.099815756100002) " stroke-width="0" id="svg_11" fill="#428cd6"/>
            </g>
            <g stroke-width="0" id="svg_12" fill="#428cd6">
                <path d="M21.719960184887565,46.94305506147598 C21.58795995468881,46.93405504578061 21.554959897139117,46.936055049268475 21.42495967042822,46.91205500741415 C21.230959332105797,46.87605494463267 21.042959004246956,46.81205483302115 20.86695869731528,46.72005467257959 C20.69195839212753,46.62905451388196 20.530958111354796,46.512054309842156 20.390957867204595,46.37305406743588 C20.001957188815826,45.988053396022835 19.786956813870876,45.44905245604456 19.803956843517685,44.903051503858784 C19.80895685223734,44.755051245757144 19.829956888859865,44.607050987655505 19.867956955129205,44.464050738273514 C19.900957012678898,44.337050516794406 19.916957040581774,44.307050464476504 19.963957122546486,44.18405024997311 L26.791969030100525,28.28902253020577 C26.84596912427275,28.17502233139775 26.855969141712045,28.144022277335917 26.922969258555355,28.03602208899148 C26.99696938760618,27.91402187623202 27.08496954107202,27.801021679167928 27.18396971372109,27.698021499543138 C27.65197052988033,27.212020651993157 28.353971754119186,26.99502027356035 29.013972905112986,27.13302051422269 C29.153973149263187,27.16202056479666 29.290973388181598,27.20702064327351 29.420973614892496,27.26502074442145 C29.536973817188375,27.317020835105808 29.562973862530555,27.336020868240478 29.67197405261893,27.401020981595927 L39.690991525053605,33.77303209391789 L48.292006524595536,23.815014727862952 L48.393006700732464,23.70701453951851 C48.48900686814974,23.618014384308736 48.5110069065162,23.592014338966557 48.61700709137278,23.514014202940018 C48.777007370401584,23.397013998900206 48.953007677333254,23.304013836714716 49.14000800344817,23.240013725103196 C49.32600832781915,23.17501361174775 49.52200866962943,23.13801354722234 49.719009013183644,23.13101353501483 C49.917009358481785,23.124013522807317 50.115009703779926,23.147013562917707 50.306010036870546,23.19801365185814 C50.88201104137423,23.354013923911218 51.367011887180276,23.77301465461789 51.605012302235615,24.321015610291532 C51.70401247488469,24.54701600441971 51.75901257080084,24.792016431682562 51.76801258649621,25.03801686068934 C51.78001260742337,25.38401746408912 51.70001246790898,25.73101806923283 51.538012185392304,26.03701860287541 C51.468012063317204,26.1700188348181 51.3810119115953,26.28601903711398 51.288011749409804,26.40301924115379 L41.568994800154144,37.65403886211022 C41.53599474260445,37.690038924891695 41.50299468505476,37.728038991161036 41.46799462401721,37.763039052198586 C41.36299444090456,37.867039233567304 41.24599423686475,37.960039395752794 41.11999401712957,38.039039533523265 C40.65499320620212,38.32904003926296 40.07899220169844,38.414040187497015 39.54999127915947,38.2700399363711 C39.40699102977748,38.231039868357826 39.26799078737121,38.175039770697744 39.13699055891638,38.10503964862264 C39.09399048392739,38.082039608512254 39.05199041068233,38.05503956142614 39.00899033569334,38.030039517827895 L29.510973771846196,31.98902898274677 L23.6009634652199,45.74605297399178 L23.536963353608378,45.8800532076784 C23.46296322455756,46.01005343438929 23.386963092018878,46.13305364889269 23.28996292285767,46.24805384944463 C23.03296247466766,46.549054374367564 22.686961871267876,46.76905475803216 22.304961205086617,46.87405494114482 C22.160960953960696,46.91405501090202 22.016960702834776,46.93105504054882 21.867960442989208,46.94305506147598 C21.817960355792707,46.94305506147598 21.768960270340138,46.94305506147598 21.719960184887565,46.94305506147598 z" style="fill-rule: nonzero;" stroke-width="0" id="svg_13" fill="#428cd6"/>
            </g>
        </g>
        <g stroke-width="0" id="svg_14" fill="#428cd6">
            <path d="M37.148707538,68.045547 L13.355889932000002,68.045547 C10.867358365000003,68.045547 8.850483000000002,66.028671635 8.850483000000002,63.540140068 L8.850483000000002,15.171853932000001 C8.850483000000002,12.683322365 10.867358365000003,10.666447 13.355889932000002,10.666447 L21.500853177,10.666447 L21.500853177,15.256775000000001 L15.171938447000002,15.256775000000001 C14.216002641000001,15.256775000000001 13.440811000000002,16.031966641 13.440811000000002,16.987902447 L13.440811000000002,61.72409155300001 C13.440811000000002,62.68002735900001 14.216002641000001,63.45521900000001 15.171938447000002,63.45521900000001 L34.008923186000004,63.45521900000001 C34.820837451,65.14445970400001 35.88292459200001,66.69082644900001 37.148707538,68.045547 zM62.786837000000006,41.808379734000006 C61.423509584,40.592516605 59.878290421,39.576906535000006 58.196509000000006,38.808026595 L58.196509000000006,16.987902447 C58.196509000000006,16.031966641 57.421317359000014,15.256775000000001 56.465381553000014,15.256775000000001 L50.19040317700001,15.256775000000001 L50.19040317700001,10.666447 L58.281430068000006,10.666447 C60.769961635,10.666447 62.786837000000006,12.683322365 62.786837000000006,15.171853932000001 L62.786837000000006,41.808379734000006 z" style="" stroke-width="0" id="svg_15" fill="#428cd6"/>
        </g>
        <g stroke-width="0" id="svg_16" fill="#428cd6">
            <path d="M50.50943097300001,38.938850943 C59.69984142000001,38.938850943 67.149369973,46.38895328700001 67.149369973,55.578789943000004 C67.149369973,64.76920039000001 59.69984142000001,72.218728943 50.50943097300001,72.218728943 C41.31959431700001,72.218728943 33.86949197300001,64.76920039000001 33.86949197300001,55.578789943000004 C33.86949197300001,46.38895328700001 41.31959431700001,38.938850943 50.50943097300001,38.938850943 zM50.5077096,41.8232983 C58.113309305000016,41.8232983 64.2786936,47.98868259500001 64.2786936,55.5942823 C64.2786936,63.199882005000006 58.113309305000016,69.3652663 50.5077096,69.3652663 C42.90210989500001,69.3652663 36.7367256,63.199882005000006 36.7367256,55.5942823 C36.7367256,47.98868259500001 42.90210989500001,41.8232983 50.5077096,41.8232983 z" style="" stroke-width="0" id="svg_17" fill="#428cd6"/>
        </g>
        <g stroke-width="0" id="svg_18" fill="#428cd6">
            <path d="M53.725789077,61.11181146899999 L53.725789077,66.628516013 L47.485173077,66.628516013 L47.485173077,61.11181146899999 L42.707981528999994,63.870163741 L39.587673529,58.465790285 L44.364865077000005,55.707438013 L39.587673529,52.94908574099999 L42.707981528999994,47.544712285 L47.485173077,50.303064557 L47.485173077,44.78636001299999 L53.725789077,44.78636001299999 L53.725789077,50.303064557 L58.50376070200001,47.544712285 L61.624068702,52.94908574099999 L56.84609707700001,55.707438013 L61.624068702,58.465790285 L58.50376070200001,63.870163741 L53.725789077,61.11181146899999 z" style="" stroke-width="0" id="svg_19" fill="#428cd6"/>
        </g>
    </g></g></svg>