<svg xmlns="http://www.w3.org/2000/svg" jsname="BUfzDd" preserveAspectRatio="xMinYMin slice" aria-hidden="true" width="1440" height="810" style="">
	<defs><linearGradient id="svg_19" x1="0" y1="0.984375" x2="1" y2="0" spreadMethod="repeat"><stop stop-color="#6094f1" stop-opacity="1" offset="0.34765625"/><stop stop-color="#9f6b0e" stop-opacity="1" offset="0.9765625"/></linearGradient><linearGradient id="svg_21" x2="1" y2="1" x1="0" y1="0.015625"><stop stop-color="#fbfbfc" stop-opacity="1" offset="0"/><stop stop-color="#040403" stop-opacity="1" offset="1"/></linearGradient></defs><rect id="backgroundrect" width="100%" height="100%" x="0" y="0" fill="none" stroke="none"/>
	<g class="currentLayer" style="">
		<title>
			Fondo
		</title>
		<path fill="#efefef" d="M594.6842917537689,-1.0526316165924072 c-15,64.21381028795243 -30.7,125.52311087071895 -46.598,184.12627805793284 C636.080291753769,325.1261126470566 750.3722917537689,550.9264442362786 821.666291753769,809.9858666062355 h419.672 C1186.542291753769,593.8027784320116 1085.148291753769,289.562650592804 904.6612917537689,-1.0526316165924072 H594.6842917537689 z" id="svg_1" class=""/>
		<path fill="#eae8e8" d="M549.0389230127334,183.7769998807907 c-53.796,196.576 -111.592,361.156 -163.49,490.74 c11.7,44.494 22.8,89.49 33.1,134.883 h404.07 c-71.294,-258.468 -185.586,-483.84 -273.68,-625.623 z" id="svg_2" class="" fill-opacity="1"/>
		<path fill="#f7f7ff" d="M158.5053846979141,0.42735016345977783 c74.094,180.678 161.088,417.448 228.483,674.517 C454.28538469791414,506.76435016345977 531.6783846979141,279.89235016345975 597.1753846979141,0.42735016345977783 H158.5053846979141 z" id="svg_3" class=""/>
		<path fill="#e3f5fc" d="M162.86592911529382,-1.5384615659713745 H1.000002862770749 v820.1891043492873 h437.1084734080253 C364.38264373575083,506.0142123741438 254.36871934475636,213.13324478968136 162.86592911529382,-1.5384615659713745 z" id="svg_4" class="selected" fill-opacity="1" transform="translate(0,-1) "/>
		<path fill="#ebebec" d="M1144.22,499.99953843402864 c52.596000000000004,-134.583 101.492,-290.964 134.09,-463.343 c1.2,-6.1 2.3,-12.298 3.4,-18.497 c0,-0.2 0.1,-0.4 0.1,-0.6000000000000003 c1.1,-6.3 2.3,-12.7 3.4,-19.098 H902.536 c105.293,169.28 183.688,343.158 241.684,501.638 v-0.1 z" id="svg_5" class=""/>
		<path fill="#e8eae8" d="M1285.3100001192092,0.48582983016967796 c-2.2,12.798 -4.5,25.597 -6.9,38.195 C1321.5070001192094,86.87582983016968 1379.6030001192094,159.46582983016967 1440.0000001192093,257.6538298301697 V0.48582983016967796 h-154.69 z" id="svg_6" class="" fill-opacity="1" stroke="#efeff4" stroke-opacity="1" opacity="1" stroke-dasharray="none"/>
		<path fill="#dbdddb" d="M1277.573457191975,36.196016961265514 C1244.5223842368434,210.78500473945232 1195.1084877786946,369.1067628871688 1141.819988614113,505.6656606890449 L1141.819988614113,509.530093834568 C1183.5151883421252,623.720025460411 1214.623875163586,729.7753253149281 1237.7087784276316,820.6800133268127 L1441.7000007067036,821.0867957631835 L1441.7000007067036,258.47414366738883 C1380.377548423798,158.82465022962185 1321.404264710934,85.10346928613276 1277.573457191975,36.19500000517459 L1277.573457191975,36.196016961265514 z" id="svg_7" class="" fill-opacity="1"/>
	<path fill="#4393b2" fill-opacity="1" stroke="none" stroke-opacity="1" stroke-width="1" stroke-dasharray="none" stroke-linejoin="miter" stroke-linecap="butt" stroke-dashoffset="" fill-rule="nonzero" opacity="1" marker-start="" marker-mid="" marker-end="" id="svg_9" d="M1099.999939478364,503.69227058930016 " style="color: rgb(67, 147, 178);"/><path fill="#4393b2" fill-opacity="1" stroke="none" stroke-opacity="1" stroke-width="1" stroke-dasharray="none" stroke-linejoin="miter" stroke-linecap="butt" stroke-dashoffset="" fill-rule="nonzero" opacity="1" marker-start="" marker-mid="" marker-end="" id="svg_8" d="M1141.5383987313935,499.07688622785247 " style="color: rgb(67, 147, 178);"/><path fill="#4393b2" fill-opacity="1" stroke="none" stroke-opacity="1" stroke-width="1" stroke-dasharray="none" stroke-linejoin="miter" stroke-linecap="butt" stroke-dashoffset="" fill-rule="nonzero" opacity="1" marker-start="" marker-mid="" marker-end="" id="svg_10" d="M941.538409735327,537.5384225732498 " style="color: rgb(67, 147, 178);"/><path fill="#4393b2" fill-opacity="1" stroke="none" stroke-opacity="1" stroke-width="1" stroke-dasharray="none" stroke-linejoin="miter" stroke-linecap="butt" stroke-dashoffset="" fill-rule="nonzero" opacity="1" marker-start="" marker-mid="" marker-end="" id="svg_11" d="M1141.5383987313935,508.30765495074786 " style="color: rgb(67, 147, 178);"/><path fill="#4393b2" fill-opacity="1" stroke="none" stroke-opacity="1" stroke-width="1" stroke-dasharray="none" stroke-linejoin="miter" stroke-linecap="butt" stroke-dashoffset="" fill-rule="nonzero" opacity="1" marker-start="" marker-mid="" marker-end="" id="svg_12" d="M 1144.6153216390248 497.53842477403657 C 1144.6153216390248 497.53842477403657 826.1538006991351 812.9230228062947 826.1538006991351 812.9230228062947 C 826.1538006991351 812.9230228062947 1144.6153216390248 497.53842477403657 1144.6153216390248 497.53842477403657 z" style="color: rgb(67, 147, 178);"/><path fill="#4393b2" fill-opacity="1" stroke="none" stroke-opacity="1" stroke-width="1" stroke-dasharray="none" stroke-linejoin="miter" stroke-linecap="butt" stroke-dashoffset="" fill-rule="nonzero" opacity="1" marker-start="" marker-mid="" marker-end="" id="svg_14" d="M1136.9230143699456,502.1538091354842 " style="color: rgb(67, 147, 178);"/><path fill="#4393b2" fill-opacity="1" stroke="none" stroke-opacity="1" stroke-width="1" stroke-dasharray="none" stroke-linejoin="miter" stroke-linecap="butt" stroke-dashoffset="" fill-rule="nonzero" opacity="1" marker-start="" marker-mid="" marker-end="" id="svg_13" d="M1144.6153216390248,503.69227058930016 " style="color: rgb(67, 147, 178);"/><path fill="#4393b2" fill-opacity="1" stroke="none" stroke-opacity="1" stroke-width="1" stroke-dasharray="none" stroke-linejoin="miter" stroke-linecap="butt" stroke-dashoffset="" fill-rule="nonzero" opacity="1" marker-start="" marker-mid="" marker-end="" id="svg_15" d="M1143.0768601852092,500.61534768166837 " style="color: rgb(67, 147, 178);"/><path fill="#4393b2" fill-opacity="1" stroke="none" stroke-opacity="1" stroke-width="1" stroke-dasharray="none" stroke-linejoin="miter" stroke-linecap="butt" stroke-dashoffset="" fill-rule="nonzero" opacity="1" marker-start="" marker-mid="" marker-end="" id="svg_18" d="M 1136.9230143699456 517.5384236736433 L 1140 575.3846153846154" style="color: rgb(67, 147, 178);"/><path fill="#4393b2" fill-opacity="1" stroke="none" stroke-opacity="1" stroke-width="1" stroke-dasharray="none" stroke-linejoin="miter" stroke-linecap="butt" stroke-dashoffset="" fill-rule="nonzero" opacity="1" marker-start="" marker-mid="" marker-end="" id="svg_20" d="M1139.9999372775774,500.61534768166837 " style="color: rgb(67, 147, 178);"/><path fill="#4393b2" fill-opacity="1" stroke="none" stroke-opacity="1" stroke-width="1" stroke-dasharray="none" stroke-linejoin="miter" stroke-linecap="butt" stroke-dashoffset="" fill-rule="nonzero" opacity="1" marker-start="" marker-mid="" marker-end="" id="svg_16" d="M 1143.0768601852092 500.61534768166837 C 1143.0768601852092 500.61534768166837 821.5384163376874 806.7691769910311 821.5384163376874 806.7691769910311" style="color: rgb(67, 147, 178);"/><path fill="#dee7ea" fill-opacity="1" stroke="none" stroke-opacity="1" stroke-width="1" stroke-dasharray="none" stroke-linejoin="miter" stroke-linecap="butt" stroke-dashoffset="" fill-rule="nonzero" opacity="1" marker-start="" marker-mid="" marker-end="" id="svg_17" d="M1238.8132363022269,817.054278182681 C1238.8132363022269,817.054278182681 814.1978852166927,821.8060780646525 814.1978852166927,821.8060780646525 C814.1978852166927,821.8060780646525 1031.2235091048549,755.2808797170511 1144.4542693943306,500.26761938457855 " style="color: rgb(67, 147, 178);" class=""/></g>
</svg>