<svg xmlns="http://www.w3.org/2000/svg" xmlns:xlink="http://www.w3.org/1999/xlink" width="36" height="36" version="1.1" xml:space="preserve" style="fill-rule:evenodd;clip-rule:evenodd;stroke-linejoin:round;stroke-miterlimit:1.41421;"><rect id="backgroundrect" width="100%" height="100%" x="0" y="0" fill="none" stroke="none" class="" style=""/>
    
<g class="currentLayer" style=""><title>Layer 1</title><g id="CIUM" class="" fill-opacity="1" fill="#428cd6">

        <g stroke-width="0" id="svg_1" fill="#428cd6">
            <path d="M17.722545949882942,1.2339326776572856 C26.912956396882947,1.2339326776572856 34.36248494988294,8.684035021657294 34.36248494988294,17.87387167765729 C34.36248494988294,27.064282124657296 26.912956396882947,34.51381067765729 17.722545949882942,34.51381067765729 C8.532709293882945,34.51381067765729 1.082606949882944,27.064282124657296 1.082606949882944,17.87387167765729 C1.082606949882944,8.684035021657294 8.532709293882945,1.2339326776572856 17.722545949882942,1.2339326776572856 zM17.720824576882933,4.118380034657285 C25.32642428188295,4.118380034657285 31.49180857688293,10.283764329657295 31.49180857688293,17.88936403465729 C31.49180857688293,25.494963739657294 25.32642428188295,31.66034803465729 17.720824576882933,31.66034803465729 C10.115224871882944,31.66034803465729 3.9498405768829343,25.494963739657294 3.9498405768829343,17.88936403465729 C3.9498405768829343,10.283764329657295 10.115224871882944,4.118380034657285 17.720824576882933,4.118380034657285 z" style="" stroke-width="0" id="svg_2" fill="#428cd6"/>
        </g>
        <g stroke-width="0" id="svg_3" fill="#428cd6">
            <path d="M20.938904053882936,23.406893203657276 L20.938904053882936,28.923597747657283 L14.698288053882933,28.923597747657283 L14.698288053882933,23.406893203657276 L9.921096505882929,26.165245475657287 L6.8007885058829345,20.760872019657285 L11.57798005388294,18.00251974765729 L6.8007885058829345,15.244167475657278 L9.921096505882929,9.83979401965729 L14.698288053882933,12.598146291657287 L14.698288053882933,7.081441747657281 L20.938904053882936,7.081441747657281 L20.938904053882936,12.598146291657287 L25.716875678882943,9.83979401965729 L28.837183678882937,15.244167475657278 L24.059212053882945,18.00251974765729 L28.837183678882937,20.760872019657285 L25.716875678882943,26.165245475657287 L20.938904053882936,23.406893203657276 z" style="" stroke-width="0" id="svg_4" fill="#428cd6"/>
        </g>
    </g></g></svg>